G75*
%MOIN*%
%OFA0B0*%
%FSLAX25Y25*%
%IPPOS*%
%LPD*%
%AMOC8*
5,1,8,0,0,1.08239X$1,22.5*
%
%ADD10C,0.00000*%
%ADD11C,0.01200*%
%ADD12C,0.00600*%
%ADD13C,0.00500*%
%ADD14C,0.00700*%
%ADD15C,0.02000*%
%ADD16R,0.07500X0.05000*%
%ADD17R,0.07000X0.03000*%
%ADD18R,0.03000X0.05000*%
%ADD19C,0.00200*%
%ADD20R,0.02400X0.02300*%
%ADD21C,0.00400*%
%ADD22R,0.02000X0.01500*%
D10*
X0008200Y0001000D02*
X0008200Y0282961D01*
X0227901Y0282961D01*
X0226901Y0001000D01*
X0008200Y0001000D01*
X0205539Y0023000D02*
X0205542Y0023213D01*
X0205549Y0023425D01*
X0205562Y0023637D01*
X0205581Y0023849D01*
X0205604Y0024060D01*
X0205633Y0024271D01*
X0205667Y0024481D01*
X0205705Y0024690D01*
X0205749Y0024898D01*
X0205799Y0025104D01*
X0205853Y0025310D01*
X0205912Y0025514D01*
X0205976Y0025717D01*
X0206045Y0025918D01*
X0206119Y0026117D01*
X0206198Y0026314D01*
X0206282Y0026510D01*
X0206371Y0026703D01*
X0206464Y0026894D01*
X0206562Y0027083D01*
X0206664Y0027269D01*
X0206771Y0027453D01*
X0206883Y0027634D01*
X0206999Y0027812D01*
X0207119Y0027987D01*
X0207243Y0028159D01*
X0207372Y0028329D01*
X0207505Y0028494D01*
X0207642Y0028657D01*
X0207783Y0028816D01*
X0207927Y0028972D01*
X0208076Y0029124D01*
X0208228Y0029273D01*
X0208384Y0029417D01*
X0208543Y0029558D01*
X0208706Y0029695D01*
X0208871Y0029828D01*
X0209041Y0029957D01*
X0209213Y0030081D01*
X0209388Y0030201D01*
X0209566Y0030317D01*
X0209747Y0030429D01*
X0209931Y0030536D01*
X0210117Y0030638D01*
X0210306Y0030736D01*
X0210497Y0030829D01*
X0210690Y0030918D01*
X0210886Y0031002D01*
X0211083Y0031081D01*
X0211282Y0031155D01*
X0211483Y0031224D01*
X0211686Y0031288D01*
X0211890Y0031347D01*
X0212096Y0031401D01*
X0212302Y0031451D01*
X0212510Y0031495D01*
X0212719Y0031533D01*
X0212929Y0031567D01*
X0213140Y0031596D01*
X0213351Y0031619D01*
X0213563Y0031638D01*
X0213775Y0031651D01*
X0213987Y0031658D01*
X0214200Y0031661D01*
X0214413Y0031658D01*
X0214625Y0031651D01*
X0214837Y0031638D01*
X0215049Y0031619D01*
X0215260Y0031596D01*
X0215471Y0031567D01*
X0215681Y0031533D01*
X0215890Y0031495D01*
X0216098Y0031451D01*
X0216304Y0031401D01*
X0216510Y0031347D01*
X0216714Y0031288D01*
X0216917Y0031224D01*
X0217118Y0031155D01*
X0217317Y0031081D01*
X0217514Y0031002D01*
X0217710Y0030918D01*
X0217903Y0030829D01*
X0218094Y0030736D01*
X0218283Y0030638D01*
X0218469Y0030536D01*
X0218653Y0030429D01*
X0218834Y0030317D01*
X0219012Y0030201D01*
X0219187Y0030081D01*
X0219359Y0029957D01*
X0219529Y0029828D01*
X0219694Y0029695D01*
X0219857Y0029558D01*
X0220016Y0029417D01*
X0220172Y0029273D01*
X0220324Y0029124D01*
X0220473Y0028972D01*
X0220617Y0028816D01*
X0220758Y0028657D01*
X0220895Y0028494D01*
X0221028Y0028329D01*
X0221157Y0028159D01*
X0221281Y0027987D01*
X0221401Y0027812D01*
X0221517Y0027634D01*
X0221629Y0027453D01*
X0221736Y0027269D01*
X0221838Y0027083D01*
X0221936Y0026894D01*
X0222029Y0026703D01*
X0222118Y0026510D01*
X0222202Y0026314D01*
X0222281Y0026117D01*
X0222355Y0025918D01*
X0222424Y0025717D01*
X0222488Y0025514D01*
X0222547Y0025310D01*
X0222601Y0025104D01*
X0222651Y0024898D01*
X0222695Y0024690D01*
X0222733Y0024481D01*
X0222767Y0024271D01*
X0222796Y0024060D01*
X0222819Y0023849D01*
X0222838Y0023637D01*
X0222851Y0023425D01*
X0222858Y0023213D01*
X0222861Y0023000D01*
X0222858Y0022787D01*
X0222851Y0022575D01*
X0222838Y0022363D01*
X0222819Y0022151D01*
X0222796Y0021940D01*
X0222767Y0021729D01*
X0222733Y0021519D01*
X0222695Y0021310D01*
X0222651Y0021102D01*
X0222601Y0020896D01*
X0222547Y0020690D01*
X0222488Y0020486D01*
X0222424Y0020283D01*
X0222355Y0020082D01*
X0222281Y0019883D01*
X0222202Y0019686D01*
X0222118Y0019490D01*
X0222029Y0019297D01*
X0221936Y0019106D01*
X0221838Y0018917D01*
X0221736Y0018731D01*
X0221629Y0018547D01*
X0221517Y0018366D01*
X0221401Y0018188D01*
X0221281Y0018013D01*
X0221157Y0017841D01*
X0221028Y0017671D01*
X0220895Y0017506D01*
X0220758Y0017343D01*
X0220617Y0017184D01*
X0220473Y0017028D01*
X0220324Y0016876D01*
X0220172Y0016727D01*
X0220016Y0016583D01*
X0219857Y0016442D01*
X0219694Y0016305D01*
X0219529Y0016172D01*
X0219359Y0016043D01*
X0219187Y0015919D01*
X0219012Y0015799D01*
X0218834Y0015683D01*
X0218653Y0015571D01*
X0218469Y0015464D01*
X0218283Y0015362D01*
X0218094Y0015264D01*
X0217903Y0015171D01*
X0217710Y0015082D01*
X0217514Y0014998D01*
X0217317Y0014919D01*
X0217118Y0014845D01*
X0216917Y0014776D01*
X0216714Y0014712D01*
X0216510Y0014653D01*
X0216304Y0014599D01*
X0216098Y0014549D01*
X0215890Y0014505D01*
X0215681Y0014467D01*
X0215471Y0014433D01*
X0215260Y0014404D01*
X0215049Y0014381D01*
X0214837Y0014362D01*
X0214625Y0014349D01*
X0214413Y0014342D01*
X0214200Y0014339D01*
X0213987Y0014342D01*
X0213775Y0014349D01*
X0213563Y0014362D01*
X0213351Y0014381D01*
X0213140Y0014404D01*
X0212929Y0014433D01*
X0212719Y0014467D01*
X0212510Y0014505D01*
X0212302Y0014549D01*
X0212096Y0014599D01*
X0211890Y0014653D01*
X0211686Y0014712D01*
X0211483Y0014776D01*
X0211282Y0014845D01*
X0211083Y0014919D01*
X0210886Y0014998D01*
X0210690Y0015082D01*
X0210497Y0015171D01*
X0210306Y0015264D01*
X0210117Y0015362D01*
X0209931Y0015464D01*
X0209747Y0015571D01*
X0209566Y0015683D01*
X0209388Y0015799D01*
X0209213Y0015919D01*
X0209041Y0016043D01*
X0208871Y0016172D01*
X0208706Y0016305D01*
X0208543Y0016442D01*
X0208384Y0016583D01*
X0208228Y0016727D01*
X0208076Y0016876D01*
X0207927Y0017028D01*
X0207783Y0017184D01*
X0207642Y0017343D01*
X0207505Y0017506D01*
X0207372Y0017671D01*
X0207243Y0017841D01*
X0207119Y0018013D01*
X0206999Y0018188D01*
X0206883Y0018366D01*
X0206771Y0018547D01*
X0206664Y0018731D01*
X0206562Y0018917D01*
X0206464Y0019106D01*
X0206371Y0019297D01*
X0206282Y0019490D01*
X0206198Y0019686D01*
X0206119Y0019883D01*
X0206045Y0020082D01*
X0205976Y0020283D01*
X0205912Y0020486D01*
X0205853Y0020690D01*
X0205799Y0020896D01*
X0205749Y0021102D01*
X0205705Y0021310D01*
X0205667Y0021519D01*
X0205633Y0021729D01*
X0205604Y0021940D01*
X0205581Y0022151D01*
X0205562Y0022363D01*
X0205549Y0022575D01*
X0205542Y0022787D01*
X0205539Y0023000D01*
X0027539Y0269000D02*
X0027542Y0269213D01*
X0027549Y0269425D01*
X0027562Y0269637D01*
X0027581Y0269849D01*
X0027604Y0270060D01*
X0027633Y0270271D01*
X0027667Y0270481D01*
X0027705Y0270690D01*
X0027749Y0270898D01*
X0027799Y0271104D01*
X0027853Y0271310D01*
X0027912Y0271514D01*
X0027976Y0271717D01*
X0028045Y0271918D01*
X0028119Y0272117D01*
X0028198Y0272314D01*
X0028282Y0272510D01*
X0028371Y0272703D01*
X0028464Y0272894D01*
X0028562Y0273083D01*
X0028664Y0273269D01*
X0028771Y0273453D01*
X0028883Y0273634D01*
X0028999Y0273812D01*
X0029119Y0273987D01*
X0029243Y0274159D01*
X0029372Y0274329D01*
X0029505Y0274494D01*
X0029642Y0274657D01*
X0029783Y0274816D01*
X0029927Y0274972D01*
X0030076Y0275124D01*
X0030228Y0275273D01*
X0030384Y0275417D01*
X0030543Y0275558D01*
X0030706Y0275695D01*
X0030871Y0275828D01*
X0031041Y0275957D01*
X0031213Y0276081D01*
X0031388Y0276201D01*
X0031566Y0276317D01*
X0031747Y0276429D01*
X0031931Y0276536D01*
X0032117Y0276638D01*
X0032306Y0276736D01*
X0032497Y0276829D01*
X0032690Y0276918D01*
X0032886Y0277002D01*
X0033083Y0277081D01*
X0033282Y0277155D01*
X0033483Y0277224D01*
X0033686Y0277288D01*
X0033890Y0277347D01*
X0034096Y0277401D01*
X0034302Y0277451D01*
X0034510Y0277495D01*
X0034719Y0277533D01*
X0034929Y0277567D01*
X0035140Y0277596D01*
X0035351Y0277619D01*
X0035563Y0277638D01*
X0035775Y0277651D01*
X0035987Y0277658D01*
X0036200Y0277661D01*
X0036413Y0277658D01*
X0036625Y0277651D01*
X0036837Y0277638D01*
X0037049Y0277619D01*
X0037260Y0277596D01*
X0037471Y0277567D01*
X0037681Y0277533D01*
X0037890Y0277495D01*
X0038098Y0277451D01*
X0038304Y0277401D01*
X0038510Y0277347D01*
X0038714Y0277288D01*
X0038917Y0277224D01*
X0039118Y0277155D01*
X0039317Y0277081D01*
X0039514Y0277002D01*
X0039710Y0276918D01*
X0039903Y0276829D01*
X0040094Y0276736D01*
X0040283Y0276638D01*
X0040469Y0276536D01*
X0040653Y0276429D01*
X0040834Y0276317D01*
X0041012Y0276201D01*
X0041187Y0276081D01*
X0041359Y0275957D01*
X0041529Y0275828D01*
X0041694Y0275695D01*
X0041857Y0275558D01*
X0042016Y0275417D01*
X0042172Y0275273D01*
X0042324Y0275124D01*
X0042473Y0274972D01*
X0042617Y0274816D01*
X0042758Y0274657D01*
X0042895Y0274494D01*
X0043028Y0274329D01*
X0043157Y0274159D01*
X0043281Y0273987D01*
X0043401Y0273812D01*
X0043517Y0273634D01*
X0043629Y0273453D01*
X0043736Y0273269D01*
X0043838Y0273083D01*
X0043936Y0272894D01*
X0044029Y0272703D01*
X0044118Y0272510D01*
X0044202Y0272314D01*
X0044281Y0272117D01*
X0044355Y0271918D01*
X0044424Y0271717D01*
X0044488Y0271514D01*
X0044547Y0271310D01*
X0044601Y0271104D01*
X0044651Y0270898D01*
X0044695Y0270690D01*
X0044733Y0270481D01*
X0044767Y0270271D01*
X0044796Y0270060D01*
X0044819Y0269849D01*
X0044838Y0269637D01*
X0044851Y0269425D01*
X0044858Y0269213D01*
X0044861Y0269000D01*
X0044858Y0268787D01*
X0044851Y0268575D01*
X0044838Y0268363D01*
X0044819Y0268151D01*
X0044796Y0267940D01*
X0044767Y0267729D01*
X0044733Y0267519D01*
X0044695Y0267310D01*
X0044651Y0267102D01*
X0044601Y0266896D01*
X0044547Y0266690D01*
X0044488Y0266486D01*
X0044424Y0266283D01*
X0044355Y0266082D01*
X0044281Y0265883D01*
X0044202Y0265686D01*
X0044118Y0265490D01*
X0044029Y0265297D01*
X0043936Y0265106D01*
X0043838Y0264917D01*
X0043736Y0264731D01*
X0043629Y0264547D01*
X0043517Y0264366D01*
X0043401Y0264188D01*
X0043281Y0264013D01*
X0043157Y0263841D01*
X0043028Y0263671D01*
X0042895Y0263506D01*
X0042758Y0263343D01*
X0042617Y0263184D01*
X0042473Y0263028D01*
X0042324Y0262876D01*
X0042172Y0262727D01*
X0042016Y0262583D01*
X0041857Y0262442D01*
X0041694Y0262305D01*
X0041529Y0262172D01*
X0041359Y0262043D01*
X0041187Y0261919D01*
X0041012Y0261799D01*
X0040834Y0261683D01*
X0040653Y0261571D01*
X0040469Y0261464D01*
X0040283Y0261362D01*
X0040094Y0261264D01*
X0039903Y0261171D01*
X0039710Y0261082D01*
X0039514Y0260998D01*
X0039317Y0260919D01*
X0039118Y0260845D01*
X0038917Y0260776D01*
X0038714Y0260712D01*
X0038510Y0260653D01*
X0038304Y0260599D01*
X0038098Y0260549D01*
X0037890Y0260505D01*
X0037681Y0260467D01*
X0037471Y0260433D01*
X0037260Y0260404D01*
X0037049Y0260381D01*
X0036837Y0260362D01*
X0036625Y0260349D01*
X0036413Y0260342D01*
X0036200Y0260339D01*
X0035987Y0260342D01*
X0035775Y0260349D01*
X0035563Y0260362D01*
X0035351Y0260381D01*
X0035140Y0260404D01*
X0034929Y0260433D01*
X0034719Y0260467D01*
X0034510Y0260505D01*
X0034302Y0260549D01*
X0034096Y0260599D01*
X0033890Y0260653D01*
X0033686Y0260712D01*
X0033483Y0260776D01*
X0033282Y0260845D01*
X0033083Y0260919D01*
X0032886Y0260998D01*
X0032690Y0261082D01*
X0032497Y0261171D01*
X0032306Y0261264D01*
X0032117Y0261362D01*
X0031931Y0261464D01*
X0031747Y0261571D01*
X0031566Y0261683D01*
X0031388Y0261799D01*
X0031213Y0261919D01*
X0031041Y0262043D01*
X0030871Y0262172D01*
X0030706Y0262305D01*
X0030543Y0262442D01*
X0030384Y0262583D01*
X0030228Y0262727D01*
X0030076Y0262876D01*
X0029927Y0263028D01*
X0029783Y0263184D01*
X0029642Y0263343D01*
X0029505Y0263506D01*
X0029372Y0263671D01*
X0029243Y0263841D01*
X0029119Y0264013D01*
X0028999Y0264188D01*
X0028883Y0264366D01*
X0028771Y0264547D01*
X0028664Y0264731D01*
X0028562Y0264917D01*
X0028464Y0265106D01*
X0028371Y0265297D01*
X0028282Y0265490D01*
X0028198Y0265686D01*
X0028119Y0265883D01*
X0028045Y0266082D01*
X0027976Y0266283D01*
X0027912Y0266486D01*
X0027853Y0266690D01*
X0027799Y0266896D01*
X0027749Y0267102D01*
X0027705Y0267310D01*
X0027667Y0267519D01*
X0027633Y0267729D01*
X0027604Y0267940D01*
X0027581Y0268151D01*
X0027562Y0268363D01*
X0027549Y0268575D01*
X0027542Y0268787D01*
X0027539Y0269000D01*
X0197539Y0274000D02*
X0197542Y0274213D01*
X0197549Y0274425D01*
X0197562Y0274637D01*
X0197581Y0274849D01*
X0197604Y0275060D01*
X0197633Y0275271D01*
X0197667Y0275481D01*
X0197705Y0275690D01*
X0197749Y0275898D01*
X0197799Y0276104D01*
X0197853Y0276310D01*
X0197912Y0276514D01*
X0197976Y0276717D01*
X0198045Y0276918D01*
X0198119Y0277117D01*
X0198198Y0277314D01*
X0198282Y0277510D01*
X0198371Y0277703D01*
X0198464Y0277894D01*
X0198562Y0278083D01*
X0198664Y0278269D01*
X0198771Y0278453D01*
X0198883Y0278634D01*
X0198999Y0278812D01*
X0199119Y0278987D01*
X0199243Y0279159D01*
X0199372Y0279329D01*
X0199505Y0279494D01*
X0199642Y0279657D01*
X0199783Y0279816D01*
X0199927Y0279972D01*
X0200076Y0280124D01*
X0200228Y0280273D01*
X0200384Y0280417D01*
X0200543Y0280558D01*
X0200706Y0280695D01*
X0200871Y0280828D01*
X0201041Y0280957D01*
X0201213Y0281081D01*
X0201388Y0281201D01*
X0201566Y0281317D01*
X0201747Y0281429D01*
X0201931Y0281536D01*
X0202117Y0281638D01*
X0202306Y0281736D01*
X0202497Y0281829D01*
X0202690Y0281918D01*
X0202886Y0282002D01*
X0203083Y0282081D01*
X0203282Y0282155D01*
X0203483Y0282224D01*
X0203686Y0282288D01*
X0203890Y0282347D01*
X0204096Y0282401D01*
X0204302Y0282451D01*
X0204510Y0282495D01*
X0204719Y0282533D01*
X0204929Y0282567D01*
X0205140Y0282596D01*
X0205351Y0282619D01*
X0205563Y0282638D01*
X0205775Y0282651D01*
X0205987Y0282658D01*
X0206200Y0282661D01*
X0206413Y0282658D01*
X0206625Y0282651D01*
X0206837Y0282638D01*
X0207049Y0282619D01*
X0207260Y0282596D01*
X0207471Y0282567D01*
X0207681Y0282533D01*
X0207890Y0282495D01*
X0208098Y0282451D01*
X0208304Y0282401D01*
X0208510Y0282347D01*
X0208714Y0282288D01*
X0208917Y0282224D01*
X0209118Y0282155D01*
X0209317Y0282081D01*
X0209514Y0282002D01*
X0209710Y0281918D01*
X0209903Y0281829D01*
X0210094Y0281736D01*
X0210283Y0281638D01*
X0210469Y0281536D01*
X0210653Y0281429D01*
X0210834Y0281317D01*
X0211012Y0281201D01*
X0211187Y0281081D01*
X0211359Y0280957D01*
X0211529Y0280828D01*
X0211694Y0280695D01*
X0211857Y0280558D01*
X0212016Y0280417D01*
X0212172Y0280273D01*
X0212324Y0280124D01*
X0212473Y0279972D01*
X0212617Y0279816D01*
X0212758Y0279657D01*
X0212895Y0279494D01*
X0213028Y0279329D01*
X0213157Y0279159D01*
X0213281Y0278987D01*
X0213401Y0278812D01*
X0213517Y0278634D01*
X0213629Y0278453D01*
X0213736Y0278269D01*
X0213838Y0278083D01*
X0213936Y0277894D01*
X0214029Y0277703D01*
X0214118Y0277510D01*
X0214202Y0277314D01*
X0214281Y0277117D01*
X0214355Y0276918D01*
X0214424Y0276717D01*
X0214488Y0276514D01*
X0214547Y0276310D01*
X0214601Y0276104D01*
X0214651Y0275898D01*
X0214695Y0275690D01*
X0214733Y0275481D01*
X0214767Y0275271D01*
X0214796Y0275060D01*
X0214819Y0274849D01*
X0214838Y0274637D01*
X0214851Y0274425D01*
X0214858Y0274213D01*
X0214861Y0274000D01*
X0214858Y0273787D01*
X0214851Y0273575D01*
X0214838Y0273363D01*
X0214819Y0273151D01*
X0214796Y0272940D01*
X0214767Y0272729D01*
X0214733Y0272519D01*
X0214695Y0272310D01*
X0214651Y0272102D01*
X0214601Y0271896D01*
X0214547Y0271690D01*
X0214488Y0271486D01*
X0214424Y0271283D01*
X0214355Y0271082D01*
X0214281Y0270883D01*
X0214202Y0270686D01*
X0214118Y0270490D01*
X0214029Y0270297D01*
X0213936Y0270106D01*
X0213838Y0269917D01*
X0213736Y0269731D01*
X0213629Y0269547D01*
X0213517Y0269366D01*
X0213401Y0269188D01*
X0213281Y0269013D01*
X0213157Y0268841D01*
X0213028Y0268671D01*
X0212895Y0268506D01*
X0212758Y0268343D01*
X0212617Y0268184D01*
X0212473Y0268028D01*
X0212324Y0267876D01*
X0212172Y0267727D01*
X0212016Y0267583D01*
X0211857Y0267442D01*
X0211694Y0267305D01*
X0211529Y0267172D01*
X0211359Y0267043D01*
X0211187Y0266919D01*
X0211012Y0266799D01*
X0210834Y0266683D01*
X0210653Y0266571D01*
X0210469Y0266464D01*
X0210283Y0266362D01*
X0210094Y0266264D01*
X0209903Y0266171D01*
X0209710Y0266082D01*
X0209514Y0265998D01*
X0209317Y0265919D01*
X0209118Y0265845D01*
X0208917Y0265776D01*
X0208714Y0265712D01*
X0208510Y0265653D01*
X0208304Y0265599D01*
X0208098Y0265549D01*
X0207890Y0265505D01*
X0207681Y0265467D01*
X0207471Y0265433D01*
X0207260Y0265404D01*
X0207049Y0265381D01*
X0206837Y0265362D01*
X0206625Y0265349D01*
X0206413Y0265342D01*
X0206200Y0265339D01*
X0205987Y0265342D01*
X0205775Y0265349D01*
X0205563Y0265362D01*
X0205351Y0265381D01*
X0205140Y0265404D01*
X0204929Y0265433D01*
X0204719Y0265467D01*
X0204510Y0265505D01*
X0204302Y0265549D01*
X0204096Y0265599D01*
X0203890Y0265653D01*
X0203686Y0265712D01*
X0203483Y0265776D01*
X0203282Y0265845D01*
X0203083Y0265919D01*
X0202886Y0265998D01*
X0202690Y0266082D01*
X0202497Y0266171D01*
X0202306Y0266264D01*
X0202117Y0266362D01*
X0201931Y0266464D01*
X0201747Y0266571D01*
X0201566Y0266683D01*
X0201388Y0266799D01*
X0201213Y0266919D01*
X0201041Y0267043D01*
X0200871Y0267172D01*
X0200706Y0267305D01*
X0200543Y0267442D01*
X0200384Y0267583D01*
X0200228Y0267727D01*
X0200076Y0267876D01*
X0199927Y0268028D01*
X0199783Y0268184D01*
X0199642Y0268343D01*
X0199505Y0268506D01*
X0199372Y0268671D01*
X0199243Y0268841D01*
X0199119Y0269013D01*
X0198999Y0269188D01*
X0198883Y0269366D01*
X0198771Y0269547D01*
X0198664Y0269731D01*
X0198562Y0269917D01*
X0198464Y0270106D01*
X0198371Y0270297D01*
X0198282Y0270490D01*
X0198198Y0270686D01*
X0198119Y0270883D01*
X0198045Y0271082D01*
X0197976Y0271283D01*
X0197912Y0271486D01*
X0197853Y0271690D01*
X0197799Y0271896D01*
X0197749Y0272102D01*
X0197705Y0272310D01*
X0197667Y0272519D01*
X0197633Y0272729D01*
X0197604Y0272940D01*
X0197581Y0273151D01*
X0197562Y0273363D01*
X0197549Y0273575D01*
X0197542Y0273787D01*
X0197539Y0274000D01*
D11*
X0084400Y0212500D02*
X0084400Y0210000D01*
X0084400Y0207500D01*
X0081900Y0207500D02*
X0081900Y0210000D01*
X0081900Y0212500D01*
X0060700Y0201300D02*
X0058200Y0201300D01*
X0055700Y0201300D01*
X0055700Y0198800D02*
X0058200Y0198800D01*
X0060700Y0198800D01*
X0033400Y0131500D02*
X0033400Y0129000D01*
X0033400Y0126500D01*
X0030900Y0126500D02*
X0030900Y0129000D01*
X0030900Y0131500D01*
X0029500Y0059500D02*
X0029500Y0057000D01*
X0029500Y0054500D01*
X0027000Y0054500D02*
X0027000Y0057000D01*
X0027000Y0059500D01*
X0021700Y0020300D02*
X0019200Y0020300D01*
X0016700Y0020300D01*
X0016700Y0017800D02*
X0019200Y0017800D01*
X0021700Y0017800D01*
X0036700Y0017800D02*
X0039200Y0017800D01*
X0041700Y0017800D01*
X0041700Y0020300D02*
X0039200Y0020300D01*
X0036700Y0020300D01*
X0057700Y0020300D02*
X0060200Y0020300D01*
X0062700Y0020300D01*
X0062700Y0017800D02*
X0060200Y0017800D01*
X0057700Y0017800D01*
D12*
X0060200Y0017800D02*
X0060200Y0013000D01*
X0060200Y0020300D02*
X0060200Y0025000D01*
X0051200Y0033500D02*
X0051140Y0033498D01*
X0051079Y0033493D01*
X0051020Y0033484D01*
X0050961Y0033471D01*
X0050902Y0033455D01*
X0050845Y0033435D01*
X0050790Y0033412D01*
X0050735Y0033385D01*
X0050683Y0033356D01*
X0050632Y0033323D01*
X0050583Y0033287D01*
X0050537Y0033249D01*
X0050493Y0033207D01*
X0050451Y0033163D01*
X0050413Y0033117D01*
X0050377Y0033068D01*
X0050344Y0033017D01*
X0050315Y0032965D01*
X0050288Y0032910D01*
X0050265Y0032855D01*
X0050245Y0032798D01*
X0050229Y0032739D01*
X0050216Y0032680D01*
X0050207Y0032621D01*
X0050202Y0032560D01*
X0050200Y0032500D01*
X0050200Y0005500D01*
X0049200Y0005500D02*
X0049200Y0032500D01*
X0049198Y0032560D01*
X0049193Y0032621D01*
X0049184Y0032680D01*
X0049171Y0032739D01*
X0049155Y0032798D01*
X0049135Y0032855D01*
X0049112Y0032910D01*
X0049085Y0032965D01*
X0049056Y0033017D01*
X0049023Y0033068D01*
X0048987Y0033117D01*
X0048949Y0033163D01*
X0048907Y0033207D01*
X0048863Y0033249D01*
X0048817Y0033287D01*
X0048768Y0033323D01*
X0048717Y0033356D01*
X0048665Y0033385D01*
X0048610Y0033412D01*
X0048555Y0033435D01*
X0048498Y0033455D01*
X0048439Y0033471D01*
X0048380Y0033484D01*
X0048321Y0033493D01*
X0048260Y0033498D01*
X0048200Y0033500D01*
X0030200Y0033500D01*
X0030140Y0033498D01*
X0030079Y0033493D01*
X0030020Y0033484D01*
X0029961Y0033471D01*
X0029902Y0033455D01*
X0029845Y0033435D01*
X0029790Y0033412D01*
X0029735Y0033385D01*
X0029683Y0033356D01*
X0029632Y0033323D01*
X0029583Y0033287D01*
X0029537Y0033249D01*
X0029493Y0033207D01*
X0029451Y0033163D01*
X0029413Y0033117D01*
X0029377Y0033068D01*
X0029344Y0033017D01*
X0029315Y0032965D01*
X0029288Y0032910D01*
X0029265Y0032855D01*
X0029245Y0032798D01*
X0029229Y0032739D01*
X0029216Y0032680D01*
X0029207Y0032621D01*
X0029202Y0032560D01*
X0029200Y0032500D01*
X0029200Y0005500D01*
X0029200Y0032500D01*
X0029198Y0032560D01*
X0029193Y0032621D01*
X0029184Y0032680D01*
X0029171Y0032739D01*
X0029155Y0032798D01*
X0029135Y0032855D01*
X0029112Y0032910D01*
X0029085Y0032965D01*
X0029056Y0033017D01*
X0029023Y0033068D01*
X0028987Y0033117D01*
X0028949Y0033163D01*
X0028907Y0033207D01*
X0028863Y0033249D01*
X0028817Y0033287D01*
X0028768Y0033323D01*
X0028717Y0033356D01*
X0028665Y0033385D01*
X0028610Y0033412D01*
X0028555Y0033435D01*
X0028498Y0033455D01*
X0028439Y0033471D01*
X0028380Y0033484D01*
X0028321Y0033493D01*
X0028260Y0033498D01*
X0028200Y0033500D01*
X0010200Y0033500D01*
X0010140Y0033498D01*
X0010079Y0033493D01*
X0010020Y0033484D01*
X0009961Y0033471D01*
X0009902Y0033455D01*
X0009845Y0033435D01*
X0009790Y0033412D01*
X0009735Y0033385D01*
X0009683Y0033356D01*
X0009632Y0033323D01*
X0009583Y0033287D01*
X0009537Y0033249D01*
X0009493Y0033207D01*
X0009451Y0033163D01*
X0009413Y0033117D01*
X0009377Y0033068D01*
X0009344Y0033017D01*
X0009315Y0032965D01*
X0009288Y0032910D01*
X0009265Y0032855D01*
X0009245Y0032798D01*
X0009229Y0032739D01*
X0009216Y0032680D01*
X0009207Y0032621D01*
X0009202Y0032560D01*
X0009200Y0032500D01*
X0009200Y0005500D01*
X0009202Y0005440D01*
X0009207Y0005379D01*
X0009216Y0005320D01*
X0009229Y0005261D01*
X0009245Y0005202D01*
X0009265Y0005145D01*
X0009288Y0005090D01*
X0009315Y0005035D01*
X0009344Y0004983D01*
X0009377Y0004932D01*
X0009413Y0004883D01*
X0009451Y0004837D01*
X0009493Y0004793D01*
X0009537Y0004751D01*
X0009583Y0004713D01*
X0009632Y0004677D01*
X0009683Y0004644D01*
X0009735Y0004615D01*
X0009790Y0004588D01*
X0009845Y0004565D01*
X0009902Y0004545D01*
X0009961Y0004529D01*
X0010020Y0004516D01*
X0010079Y0004507D01*
X0010140Y0004502D01*
X0010200Y0004500D01*
X0028200Y0004500D01*
X0028260Y0004502D01*
X0028321Y0004507D01*
X0028380Y0004516D01*
X0028439Y0004529D01*
X0028498Y0004545D01*
X0028555Y0004565D01*
X0028610Y0004588D01*
X0028665Y0004615D01*
X0028717Y0004644D01*
X0028768Y0004677D01*
X0028817Y0004713D01*
X0028863Y0004751D01*
X0028907Y0004793D01*
X0028949Y0004837D01*
X0028987Y0004883D01*
X0029023Y0004932D01*
X0029056Y0004983D01*
X0029085Y0005035D01*
X0029112Y0005090D01*
X0029135Y0005145D01*
X0029155Y0005202D01*
X0029171Y0005261D01*
X0029184Y0005320D01*
X0029193Y0005379D01*
X0029198Y0005440D01*
X0029200Y0005500D01*
X0029202Y0005440D01*
X0029207Y0005379D01*
X0029216Y0005320D01*
X0029229Y0005261D01*
X0029245Y0005202D01*
X0029265Y0005145D01*
X0029288Y0005090D01*
X0029315Y0005035D01*
X0029344Y0004983D01*
X0029377Y0004932D01*
X0029413Y0004883D01*
X0029451Y0004837D01*
X0029493Y0004793D01*
X0029537Y0004751D01*
X0029583Y0004713D01*
X0029632Y0004677D01*
X0029683Y0004644D01*
X0029735Y0004615D01*
X0029790Y0004588D01*
X0029845Y0004565D01*
X0029902Y0004545D01*
X0029961Y0004529D01*
X0030020Y0004516D01*
X0030079Y0004507D01*
X0030140Y0004502D01*
X0030200Y0004500D01*
X0048200Y0004500D01*
X0048260Y0004502D01*
X0048321Y0004507D01*
X0048380Y0004516D01*
X0048439Y0004529D01*
X0048498Y0004545D01*
X0048555Y0004565D01*
X0048610Y0004588D01*
X0048665Y0004615D01*
X0048717Y0004644D01*
X0048768Y0004677D01*
X0048817Y0004713D01*
X0048863Y0004751D01*
X0048907Y0004793D01*
X0048949Y0004837D01*
X0048987Y0004883D01*
X0049023Y0004932D01*
X0049056Y0004983D01*
X0049085Y0005035D01*
X0049112Y0005090D01*
X0049135Y0005145D01*
X0049155Y0005202D01*
X0049171Y0005261D01*
X0049184Y0005320D01*
X0049193Y0005379D01*
X0049198Y0005440D01*
X0049200Y0005500D01*
X0050200Y0005500D02*
X0050202Y0005440D01*
X0050207Y0005379D01*
X0050216Y0005320D01*
X0050229Y0005261D01*
X0050245Y0005202D01*
X0050265Y0005145D01*
X0050288Y0005090D01*
X0050315Y0005035D01*
X0050344Y0004983D01*
X0050377Y0004932D01*
X0050413Y0004883D01*
X0050451Y0004837D01*
X0050493Y0004793D01*
X0050537Y0004751D01*
X0050583Y0004713D01*
X0050632Y0004677D01*
X0050683Y0004644D01*
X0050735Y0004615D01*
X0050790Y0004588D01*
X0050845Y0004565D01*
X0050902Y0004545D01*
X0050961Y0004529D01*
X0051020Y0004516D01*
X0051079Y0004507D01*
X0051140Y0004502D01*
X0051200Y0004500D01*
X0069200Y0004500D01*
X0069260Y0004502D01*
X0069321Y0004507D01*
X0069380Y0004516D01*
X0069439Y0004529D01*
X0069498Y0004545D01*
X0069555Y0004565D01*
X0069610Y0004588D01*
X0069665Y0004615D01*
X0069717Y0004644D01*
X0069768Y0004677D01*
X0069817Y0004713D01*
X0069863Y0004751D01*
X0069907Y0004793D01*
X0069949Y0004837D01*
X0069987Y0004883D01*
X0070023Y0004932D01*
X0070056Y0004983D01*
X0070085Y0005035D01*
X0070112Y0005090D01*
X0070135Y0005145D01*
X0070155Y0005202D01*
X0070171Y0005261D01*
X0070184Y0005320D01*
X0070193Y0005379D01*
X0070198Y0005440D01*
X0070200Y0005500D01*
X0070200Y0032500D01*
X0070198Y0032560D01*
X0070193Y0032621D01*
X0070184Y0032680D01*
X0070171Y0032739D01*
X0070155Y0032798D01*
X0070135Y0032855D01*
X0070112Y0032910D01*
X0070085Y0032965D01*
X0070056Y0033017D01*
X0070023Y0033068D01*
X0069987Y0033117D01*
X0069949Y0033163D01*
X0069907Y0033207D01*
X0069863Y0033249D01*
X0069817Y0033287D01*
X0069768Y0033323D01*
X0069717Y0033356D01*
X0069665Y0033385D01*
X0069610Y0033412D01*
X0069555Y0033435D01*
X0069498Y0033455D01*
X0069439Y0033471D01*
X0069380Y0033484D01*
X0069321Y0033493D01*
X0069260Y0033498D01*
X0069200Y0033500D01*
X0051200Y0033500D01*
X0039200Y0025000D02*
X0039200Y0020300D01*
X0039200Y0017800D02*
X0039200Y0013000D01*
X0019200Y0013000D02*
X0019200Y0017800D01*
X0019200Y0020300D02*
X0019200Y0025000D01*
X0014700Y0047000D02*
X0041700Y0047000D01*
X0041760Y0047002D01*
X0041821Y0047007D01*
X0041880Y0047016D01*
X0041939Y0047029D01*
X0041998Y0047045D01*
X0042055Y0047065D01*
X0042110Y0047088D01*
X0042165Y0047115D01*
X0042217Y0047144D01*
X0042268Y0047177D01*
X0042317Y0047213D01*
X0042363Y0047251D01*
X0042407Y0047293D01*
X0042449Y0047337D01*
X0042487Y0047383D01*
X0042523Y0047432D01*
X0042556Y0047483D01*
X0042585Y0047535D01*
X0042612Y0047590D01*
X0042635Y0047645D01*
X0042655Y0047702D01*
X0042671Y0047761D01*
X0042684Y0047820D01*
X0042693Y0047879D01*
X0042698Y0047940D01*
X0042700Y0048000D01*
X0042700Y0066000D01*
X0042698Y0066060D01*
X0042693Y0066121D01*
X0042684Y0066180D01*
X0042671Y0066239D01*
X0042655Y0066298D01*
X0042635Y0066355D01*
X0042612Y0066410D01*
X0042585Y0066465D01*
X0042556Y0066517D01*
X0042523Y0066568D01*
X0042487Y0066617D01*
X0042449Y0066663D01*
X0042407Y0066707D01*
X0042363Y0066749D01*
X0042317Y0066787D01*
X0042268Y0066823D01*
X0042217Y0066856D01*
X0042165Y0066885D01*
X0042110Y0066912D01*
X0042055Y0066935D01*
X0041998Y0066955D01*
X0041939Y0066971D01*
X0041880Y0066984D01*
X0041821Y0066993D01*
X0041760Y0066998D01*
X0041700Y0067000D01*
X0014700Y0067000D01*
X0014640Y0066998D01*
X0014579Y0066993D01*
X0014520Y0066984D01*
X0014461Y0066971D01*
X0014402Y0066955D01*
X0014345Y0066935D01*
X0014290Y0066912D01*
X0014235Y0066885D01*
X0014183Y0066856D01*
X0014132Y0066823D01*
X0014083Y0066787D01*
X0014037Y0066749D01*
X0013993Y0066707D01*
X0013951Y0066663D01*
X0013913Y0066617D01*
X0013877Y0066568D01*
X0013844Y0066517D01*
X0013815Y0066465D01*
X0013788Y0066410D01*
X0013765Y0066355D01*
X0013745Y0066298D01*
X0013729Y0066239D01*
X0013716Y0066180D01*
X0013707Y0066121D01*
X0013702Y0066060D01*
X0013700Y0066000D01*
X0013700Y0048000D01*
X0013702Y0047940D01*
X0013707Y0047879D01*
X0013716Y0047820D01*
X0013729Y0047761D01*
X0013745Y0047702D01*
X0013765Y0047645D01*
X0013788Y0047590D01*
X0013815Y0047535D01*
X0013844Y0047483D01*
X0013877Y0047432D01*
X0013913Y0047383D01*
X0013951Y0047337D01*
X0013993Y0047293D01*
X0014037Y0047251D01*
X0014083Y0047213D01*
X0014132Y0047177D01*
X0014183Y0047144D01*
X0014235Y0047115D01*
X0014290Y0047088D01*
X0014345Y0047065D01*
X0014402Y0047045D01*
X0014461Y0047029D01*
X0014520Y0047016D01*
X0014579Y0047007D01*
X0014640Y0047002D01*
X0014700Y0047000D01*
X0022200Y0057000D02*
X0027000Y0057000D01*
X0029500Y0057000D02*
X0034200Y0057000D01*
X0038200Y0079500D02*
X0038200Y0106500D01*
X0038197Y0106719D01*
X0038189Y0106938D01*
X0038176Y0107157D01*
X0038157Y0107375D01*
X0038133Y0107593D01*
X0038104Y0107810D01*
X0038070Y0108027D01*
X0038030Y0108242D01*
X0037985Y0108457D01*
X0037934Y0108670D01*
X0037879Y0108882D01*
X0037818Y0109093D01*
X0037753Y0109302D01*
X0037682Y0109509D01*
X0037606Y0109715D01*
X0037525Y0109919D01*
X0037440Y0110121D01*
X0037349Y0110320D01*
X0037254Y0110517D01*
X0037153Y0110712D01*
X0037048Y0110905D01*
X0036939Y0111095D01*
X0036825Y0111282D01*
X0036706Y0111466D01*
X0036583Y0111647D01*
X0036455Y0111825D01*
X0036323Y0112001D01*
X0036187Y0112172D01*
X0036047Y0112341D01*
X0035903Y0112506D01*
X0035755Y0112667D01*
X0035603Y0112825D01*
X0035447Y0112979D01*
X0035287Y0113129D01*
X0035124Y0113276D01*
X0034957Y0113418D01*
X0034787Y0113556D01*
X0034613Y0113690D01*
X0034437Y0113820D01*
X0034257Y0113945D01*
X0034074Y0114066D01*
X0033888Y0114182D01*
X0033700Y0114294D01*
X0033509Y0114401D01*
X0033315Y0114504D01*
X0033119Y0114602D01*
X0032921Y0114695D01*
X0032720Y0114783D01*
X0032517Y0114866D01*
X0032312Y0114945D01*
X0032106Y0115018D01*
X0031898Y0115086D01*
X0031688Y0115149D01*
X0031476Y0115207D01*
X0031264Y0115260D01*
X0031050Y0115308D01*
X0030835Y0115350D01*
X0030619Y0115387D01*
X0030402Y0115419D01*
X0030184Y0115446D01*
X0029966Y0115467D01*
X0029748Y0115483D01*
X0029529Y0115494D01*
X0029310Y0115499D01*
X0029090Y0115499D01*
X0028871Y0115494D01*
X0028652Y0115483D01*
X0028434Y0115467D01*
X0028216Y0115446D01*
X0027998Y0115419D01*
X0027781Y0115387D01*
X0027565Y0115350D01*
X0027350Y0115308D01*
X0027136Y0115260D01*
X0026924Y0115207D01*
X0026712Y0115149D01*
X0026502Y0115086D01*
X0026294Y0115018D01*
X0026088Y0114945D01*
X0025883Y0114866D01*
X0025680Y0114783D01*
X0025479Y0114695D01*
X0025281Y0114602D01*
X0025085Y0114504D01*
X0024891Y0114401D01*
X0024700Y0114294D01*
X0024512Y0114182D01*
X0024326Y0114066D01*
X0024143Y0113945D01*
X0023963Y0113820D01*
X0023787Y0113690D01*
X0023613Y0113556D01*
X0023443Y0113418D01*
X0023276Y0113276D01*
X0023113Y0113129D01*
X0022953Y0112979D01*
X0022797Y0112825D01*
X0022645Y0112667D01*
X0022497Y0112506D01*
X0022353Y0112341D01*
X0022213Y0112172D01*
X0022077Y0112001D01*
X0021945Y0111825D01*
X0021817Y0111647D01*
X0021694Y0111466D01*
X0021575Y0111282D01*
X0021461Y0111095D01*
X0021352Y0110905D01*
X0021247Y0110712D01*
X0021146Y0110517D01*
X0021051Y0110320D01*
X0020960Y0110121D01*
X0020875Y0109919D01*
X0020794Y0109715D01*
X0020718Y0109509D01*
X0020647Y0109302D01*
X0020582Y0109093D01*
X0020521Y0108882D01*
X0020466Y0108670D01*
X0020415Y0108457D01*
X0020370Y0108242D01*
X0020330Y0108027D01*
X0020296Y0107810D01*
X0020267Y0107593D01*
X0020243Y0107375D01*
X0020224Y0107157D01*
X0020211Y0106938D01*
X0020203Y0106719D01*
X0020200Y0106500D01*
X0020200Y0079500D01*
X0020203Y0079281D01*
X0020211Y0079062D01*
X0020224Y0078843D01*
X0020243Y0078625D01*
X0020267Y0078407D01*
X0020296Y0078190D01*
X0020330Y0077973D01*
X0020370Y0077758D01*
X0020415Y0077543D01*
X0020466Y0077330D01*
X0020521Y0077118D01*
X0020582Y0076907D01*
X0020647Y0076698D01*
X0020718Y0076491D01*
X0020794Y0076285D01*
X0020875Y0076081D01*
X0020960Y0075879D01*
X0021051Y0075680D01*
X0021146Y0075483D01*
X0021247Y0075288D01*
X0021352Y0075095D01*
X0021461Y0074905D01*
X0021575Y0074718D01*
X0021694Y0074534D01*
X0021817Y0074353D01*
X0021945Y0074175D01*
X0022077Y0073999D01*
X0022213Y0073828D01*
X0022353Y0073659D01*
X0022497Y0073494D01*
X0022645Y0073333D01*
X0022797Y0073175D01*
X0022953Y0073021D01*
X0023113Y0072871D01*
X0023276Y0072724D01*
X0023443Y0072582D01*
X0023613Y0072444D01*
X0023787Y0072310D01*
X0023963Y0072180D01*
X0024143Y0072055D01*
X0024326Y0071934D01*
X0024512Y0071818D01*
X0024700Y0071706D01*
X0024891Y0071599D01*
X0025085Y0071496D01*
X0025281Y0071398D01*
X0025479Y0071305D01*
X0025680Y0071217D01*
X0025883Y0071134D01*
X0026088Y0071055D01*
X0026294Y0070982D01*
X0026502Y0070914D01*
X0026712Y0070851D01*
X0026924Y0070793D01*
X0027136Y0070740D01*
X0027350Y0070692D01*
X0027565Y0070650D01*
X0027781Y0070613D01*
X0027998Y0070581D01*
X0028216Y0070554D01*
X0028434Y0070533D01*
X0028652Y0070517D01*
X0028871Y0070506D01*
X0029090Y0070501D01*
X0029310Y0070501D01*
X0029529Y0070506D01*
X0029748Y0070517D01*
X0029966Y0070533D01*
X0030184Y0070554D01*
X0030402Y0070581D01*
X0030619Y0070613D01*
X0030835Y0070650D01*
X0031050Y0070692D01*
X0031264Y0070740D01*
X0031476Y0070793D01*
X0031688Y0070851D01*
X0031898Y0070914D01*
X0032106Y0070982D01*
X0032312Y0071055D01*
X0032517Y0071134D01*
X0032720Y0071217D01*
X0032921Y0071305D01*
X0033119Y0071398D01*
X0033315Y0071496D01*
X0033509Y0071599D01*
X0033700Y0071706D01*
X0033888Y0071818D01*
X0034074Y0071934D01*
X0034257Y0072055D01*
X0034437Y0072180D01*
X0034613Y0072310D01*
X0034787Y0072444D01*
X0034957Y0072582D01*
X0035124Y0072724D01*
X0035287Y0072871D01*
X0035447Y0073021D01*
X0035603Y0073175D01*
X0035755Y0073333D01*
X0035903Y0073494D01*
X0036047Y0073659D01*
X0036187Y0073828D01*
X0036323Y0073999D01*
X0036455Y0074175D01*
X0036583Y0074353D01*
X0036706Y0074534D01*
X0036825Y0074718D01*
X0036939Y0074905D01*
X0037048Y0075095D01*
X0037153Y0075288D01*
X0037254Y0075483D01*
X0037349Y0075680D01*
X0037440Y0075879D01*
X0037525Y0076081D01*
X0037606Y0076285D01*
X0037682Y0076491D01*
X0037753Y0076698D01*
X0037818Y0076907D01*
X0037879Y0077118D01*
X0037934Y0077330D01*
X0037985Y0077543D01*
X0038030Y0077758D01*
X0038070Y0077973D01*
X0038104Y0078190D01*
X0038133Y0078407D01*
X0038157Y0078625D01*
X0038176Y0078843D01*
X0038189Y0079062D01*
X0038197Y0079281D01*
X0038200Y0079500D01*
X0045700Y0119000D02*
X0018700Y0119000D01*
X0018640Y0119002D01*
X0018579Y0119007D01*
X0018520Y0119016D01*
X0018461Y0119029D01*
X0018402Y0119045D01*
X0018345Y0119065D01*
X0018290Y0119088D01*
X0018235Y0119115D01*
X0018183Y0119144D01*
X0018132Y0119177D01*
X0018083Y0119213D01*
X0018037Y0119251D01*
X0017993Y0119293D01*
X0017951Y0119337D01*
X0017913Y0119383D01*
X0017877Y0119432D01*
X0017844Y0119483D01*
X0017815Y0119535D01*
X0017788Y0119590D01*
X0017765Y0119645D01*
X0017745Y0119702D01*
X0017729Y0119761D01*
X0017716Y0119820D01*
X0017707Y0119879D01*
X0017702Y0119940D01*
X0017700Y0120000D01*
X0017700Y0138000D01*
X0017702Y0138060D01*
X0017707Y0138121D01*
X0017716Y0138180D01*
X0017729Y0138239D01*
X0017745Y0138298D01*
X0017765Y0138355D01*
X0017788Y0138410D01*
X0017815Y0138465D01*
X0017844Y0138517D01*
X0017877Y0138568D01*
X0017913Y0138617D01*
X0017951Y0138663D01*
X0017993Y0138707D01*
X0018037Y0138749D01*
X0018083Y0138787D01*
X0018132Y0138823D01*
X0018183Y0138856D01*
X0018235Y0138885D01*
X0018290Y0138912D01*
X0018345Y0138935D01*
X0018402Y0138955D01*
X0018461Y0138971D01*
X0018520Y0138984D01*
X0018579Y0138993D01*
X0018640Y0138998D01*
X0018700Y0139000D01*
X0045700Y0139000D01*
X0045760Y0138998D01*
X0045821Y0138993D01*
X0045880Y0138984D01*
X0045939Y0138971D01*
X0045998Y0138955D01*
X0046055Y0138935D01*
X0046110Y0138912D01*
X0046165Y0138885D01*
X0046217Y0138856D01*
X0046268Y0138823D01*
X0046317Y0138787D01*
X0046363Y0138749D01*
X0046407Y0138707D01*
X0046449Y0138663D01*
X0046487Y0138617D01*
X0046523Y0138568D01*
X0046556Y0138517D01*
X0046585Y0138465D01*
X0046612Y0138410D01*
X0046635Y0138355D01*
X0046655Y0138298D01*
X0046671Y0138239D01*
X0046684Y0138180D01*
X0046693Y0138121D01*
X0046698Y0138060D01*
X0046700Y0138000D01*
X0046700Y0120000D01*
X0046698Y0119940D01*
X0046693Y0119879D01*
X0046684Y0119820D01*
X0046671Y0119761D01*
X0046655Y0119702D01*
X0046635Y0119645D01*
X0046612Y0119590D01*
X0046585Y0119535D01*
X0046556Y0119483D01*
X0046523Y0119432D01*
X0046487Y0119383D01*
X0046449Y0119337D01*
X0046407Y0119293D01*
X0046363Y0119251D01*
X0046317Y0119213D01*
X0046268Y0119177D01*
X0046217Y0119144D01*
X0046165Y0119115D01*
X0046110Y0119088D01*
X0046055Y0119065D01*
X0045998Y0119045D01*
X0045939Y0119029D01*
X0045880Y0119016D01*
X0045821Y0119007D01*
X0045760Y0119002D01*
X0045700Y0119000D01*
X0038200Y0129000D02*
X0033400Y0129000D01*
X0030900Y0129000D02*
X0026200Y0129000D01*
X0031700Y0150000D02*
X0036700Y0150000D01*
X0039200Y0152500D01*
X0039200Y0157500D01*
X0036700Y0160000D01*
X0031700Y0160000D01*
X0029200Y0157500D01*
X0029200Y0152500D01*
X0031700Y0150000D01*
X0039200Y0152500D02*
X0041700Y0150000D01*
X0046700Y0150000D01*
X0049200Y0152500D01*
X0049200Y0157500D01*
X0046700Y0160000D01*
X0041700Y0160000D01*
X0039200Y0162500D01*
X0039200Y0167500D01*
X0041700Y0170000D01*
X0046700Y0170000D01*
X0049200Y0167500D01*
X0049200Y0162500D01*
X0046700Y0160000D01*
X0041700Y0160000D01*
X0039200Y0157500D01*
X0039200Y0152500D01*
X0027200Y0167000D02*
X0027200Y0168000D01*
X0028200Y0168000D01*
X0027200Y0167000D02*
X0021200Y0167000D01*
X0021200Y0168000D01*
X0020200Y0168000D01*
X0012200Y0171500D02*
X0012200Y0175500D01*
X0012200Y0185000D01*
X0012200Y0188500D01*
X0020200Y0192000D02*
X0021200Y0192000D01*
X0021200Y0193000D01*
X0027200Y0193000D01*
X0027200Y0192000D01*
X0028200Y0192000D01*
X0036200Y0188500D02*
X0036200Y0185000D01*
X0036200Y0175000D01*
X0036200Y0171500D01*
X0023200Y0180000D02*
X0023202Y0180063D01*
X0023208Y0180125D01*
X0023218Y0180187D01*
X0023231Y0180249D01*
X0023249Y0180309D01*
X0023270Y0180368D01*
X0023295Y0180426D01*
X0023324Y0180482D01*
X0023356Y0180536D01*
X0023391Y0180588D01*
X0023429Y0180637D01*
X0023471Y0180685D01*
X0023515Y0180729D01*
X0023563Y0180771D01*
X0023612Y0180809D01*
X0023664Y0180844D01*
X0023718Y0180876D01*
X0023774Y0180905D01*
X0023832Y0180930D01*
X0023891Y0180951D01*
X0023951Y0180969D01*
X0024013Y0180982D01*
X0024075Y0180992D01*
X0024137Y0180998D01*
X0024200Y0181000D01*
X0024263Y0180998D01*
X0024325Y0180992D01*
X0024387Y0180982D01*
X0024449Y0180969D01*
X0024509Y0180951D01*
X0024568Y0180930D01*
X0024626Y0180905D01*
X0024682Y0180876D01*
X0024736Y0180844D01*
X0024788Y0180809D01*
X0024837Y0180771D01*
X0024885Y0180729D01*
X0024929Y0180685D01*
X0024971Y0180637D01*
X0025009Y0180588D01*
X0025044Y0180536D01*
X0025076Y0180482D01*
X0025105Y0180426D01*
X0025130Y0180368D01*
X0025151Y0180309D01*
X0025169Y0180249D01*
X0025182Y0180187D01*
X0025192Y0180125D01*
X0025198Y0180063D01*
X0025200Y0180000D01*
X0025198Y0179937D01*
X0025192Y0179875D01*
X0025182Y0179813D01*
X0025169Y0179751D01*
X0025151Y0179691D01*
X0025130Y0179632D01*
X0025105Y0179574D01*
X0025076Y0179518D01*
X0025044Y0179464D01*
X0025009Y0179412D01*
X0024971Y0179363D01*
X0024929Y0179315D01*
X0024885Y0179271D01*
X0024837Y0179229D01*
X0024788Y0179191D01*
X0024736Y0179156D01*
X0024682Y0179124D01*
X0024626Y0179095D01*
X0024568Y0179070D01*
X0024509Y0179049D01*
X0024449Y0179031D01*
X0024387Y0179018D01*
X0024325Y0179008D01*
X0024263Y0179002D01*
X0024200Y0179000D01*
X0024137Y0179002D01*
X0024075Y0179008D01*
X0024013Y0179018D01*
X0023951Y0179031D01*
X0023891Y0179049D01*
X0023832Y0179070D01*
X0023774Y0179095D01*
X0023718Y0179124D01*
X0023664Y0179156D01*
X0023612Y0179191D01*
X0023563Y0179229D01*
X0023515Y0179271D01*
X0023471Y0179315D01*
X0023429Y0179363D01*
X0023391Y0179412D01*
X0023356Y0179464D01*
X0023324Y0179518D01*
X0023295Y0179574D01*
X0023270Y0179632D01*
X0023249Y0179691D01*
X0023231Y0179751D01*
X0023218Y0179813D01*
X0023208Y0179875D01*
X0023202Y0179937D01*
X0023200Y0180000D01*
X0017200Y0180000D02*
X0017202Y0180172D01*
X0017208Y0180343D01*
X0017219Y0180515D01*
X0017234Y0180686D01*
X0017253Y0180857D01*
X0017276Y0181027D01*
X0017303Y0181197D01*
X0017335Y0181366D01*
X0017370Y0181534D01*
X0017410Y0181701D01*
X0017454Y0181867D01*
X0017501Y0182032D01*
X0017553Y0182196D01*
X0017609Y0182358D01*
X0017669Y0182519D01*
X0017733Y0182679D01*
X0017801Y0182837D01*
X0017872Y0182993D01*
X0017947Y0183147D01*
X0018027Y0183300D01*
X0018109Y0183450D01*
X0018196Y0183599D01*
X0018286Y0183745D01*
X0018380Y0183889D01*
X0018477Y0184031D01*
X0018578Y0184170D01*
X0018682Y0184307D01*
X0018789Y0184441D01*
X0018900Y0184572D01*
X0019013Y0184701D01*
X0019130Y0184827D01*
X0019250Y0184950D01*
X0019373Y0185070D01*
X0019499Y0185187D01*
X0019628Y0185300D01*
X0019759Y0185411D01*
X0019893Y0185518D01*
X0020030Y0185622D01*
X0020169Y0185723D01*
X0020311Y0185820D01*
X0020455Y0185914D01*
X0020601Y0186004D01*
X0020750Y0186091D01*
X0020900Y0186173D01*
X0021053Y0186253D01*
X0021207Y0186328D01*
X0021363Y0186399D01*
X0021521Y0186467D01*
X0021681Y0186531D01*
X0021842Y0186591D01*
X0022004Y0186647D01*
X0022168Y0186699D01*
X0022333Y0186746D01*
X0022499Y0186790D01*
X0022666Y0186830D01*
X0022834Y0186865D01*
X0023003Y0186897D01*
X0023173Y0186924D01*
X0023343Y0186947D01*
X0023514Y0186966D01*
X0023685Y0186981D01*
X0023857Y0186992D01*
X0024028Y0186998D01*
X0024200Y0187000D01*
X0024372Y0186998D01*
X0024543Y0186992D01*
X0024715Y0186981D01*
X0024886Y0186966D01*
X0025057Y0186947D01*
X0025227Y0186924D01*
X0025397Y0186897D01*
X0025566Y0186865D01*
X0025734Y0186830D01*
X0025901Y0186790D01*
X0026067Y0186746D01*
X0026232Y0186699D01*
X0026396Y0186647D01*
X0026558Y0186591D01*
X0026719Y0186531D01*
X0026879Y0186467D01*
X0027037Y0186399D01*
X0027193Y0186328D01*
X0027347Y0186253D01*
X0027500Y0186173D01*
X0027650Y0186091D01*
X0027799Y0186004D01*
X0027945Y0185914D01*
X0028089Y0185820D01*
X0028231Y0185723D01*
X0028370Y0185622D01*
X0028507Y0185518D01*
X0028641Y0185411D01*
X0028772Y0185300D01*
X0028901Y0185187D01*
X0029027Y0185070D01*
X0029150Y0184950D01*
X0029270Y0184827D01*
X0029387Y0184701D01*
X0029500Y0184572D01*
X0029611Y0184441D01*
X0029718Y0184307D01*
X0029822Y0184170D01*
X0029923Y0184031D01*
X0030020Y0183889D01*
X0030114Y0183745D01*
X0030204Y0183599D01*
X0030291Y0183450D01*
X0030373Y0183300D01*
X0030453Y0183147D01*
X0030528Y0182993D01*
X0030599Y0182837D01*
X0030667Y0182679D01*
X0030731Y0182519D01*
X0030791Y0182358D01*
X0030847Y0182196D01*
X0030899Y0182032D01*
X0030946Y0181867D01*
X0030990Y0181701D01*
X0031030Y0181534D01*
X0031065Y0181366D01*
X0031097Y0181197D01*
X0031124Y0181027D01*
X0031147Y0180857D01*
X0031166Y0180686D01*
X0031181Y0180515D01*
X0031192Y0180343D01*
X0031198Y0180172D01*
X0031200Y0180000D01*
X0031198Y0179828D01*
X0031192Y0179657D01*
X0031181Y0179485D01*
X0031166Y0179314D01*
X0031147Y0179143D01*
X0031124Y0178973D01*
X0031097Y0178803D01*
X0031065Y0178634D01*
X0031030Y0178466D01*
X0030990Y0178299D01*
X0030946Y0178133D01*
X0030899Y0177968D01*
X0030847Y0177804D01*
X0030791Y0177642D01*
X0030731Y0177481D01*
X0030667Y0177321D01*
X0030599Y0177163D01*
X0030528Y0177007D01*
X0030453Y0176853D01*
X0030373Y0176700D01*
X0030291Y0176550D01*
X0030204Y0176401D01*
X0030114Y0176255D01*
X0030020Y0176111D01*
X0029923Y0175969D01*
X0029822Y0175830D01*
X0029718Y0175693D01*
X0029611Y0175559D01*
X0029500Y0175428D01*
X0029387Y0175299D01*
X0029270Y0175173D01*
X0029150Y0175050D01*
X0029027Y0174930D01*
X0028901Y0174813D01*
X0028772Y0174700D01*
X0028641Y0174589D01*
X0028507Y0174482D01*
X0028370Y0174378D01*
X0028231Y0174277D01*
X0028089Y0174180D01*
X0027945Y0174086D01*
X0027799Y0173996D01*
X0027650Y0173909D01*
X0027500Y0173827D01*
X0027347Y0173747D01*
X0027193Y0173672D01*
X0027037Y0173601D01*
X0026879Y0173533D01*
X0026719Y0173469D01*
X0026558Y0173409D01*
X0026396Y0173353D01*
X0026232Y0173301D01*
X0026067Y0173254D01*
X0025901Y0173210D01*
X0025734Y0173170D01*
X0025566Y0173135D01*
X0025397Y0173103D01*
X0025227Y0173076D01*
X0025057Y0173053D01*
X0024886Y0173034D01*
X0024715Y0173019D01*
X0024543Y0173008D01*
X0024372Y0173002D01*
X0024200Y0173000D01*
X0024028Y0173002D01*
X0023857Y0173008D01*
X0023685Y0173019D01*
X0023514Y0173034D01*
X0023343Y0173053D01*
X0023173Y0173076D01*
X0023003Y0173103D01*
X0022834Y0173135D01*
X0022666Y0173170D01*
X0022499Y0173210D01*
X0022333Y0173254D01*
X0022168Y0173301D01*
X0022004Y0173353D01*
X0021842Y0173409D01*
X0021681Y0173469D01*
X0021521Y0173533D01*
X0021363Y0173601D01*
X0021207Y0173672D01*
X0021053Y0173747D01*
X0020900Y0173827D01*
X0020750Y0173909D01*
X0020601Y0173996D01*
X0020455Y0174086D01*
X0020311Y0174180D01*
X0020169Y0174277D01*
X0020030Y0174378D01*
X0019893Y0174482D01*
X0019759Y0174589D01*
X0019628Y0174700D01*
X0019499Y0174813D01*
X0019373Y0174930D01*
X0019250Y0175050D01*
X0019130Y0175173D01*
X0019013Y0175299D01*
X0018900Y0175428D01*
X0018789Y0175559D01*
X0018682Y0175693D01*
X0018578Y0175830D01*
X0018477Y0175969D01*
X0018380Y0176111D01*
X0018286Y0176255D01*
X0018196Y0176401D01*
X0018109Y0176550D01*
X0018027Y0176700D01*
X0017947Y0176853D01*
X0017872Y0177007D01*
X0017801Y0177163D01*
X0017733Y0177321D01*
X0017669Y0177481D01*
X0017609Y0177642D01*
X0017553Y0177804D01*
X0017501Y0177968D01*
X0017454Y0178133D01*
X0017410Y0178299D01*
X0017370Y0178466D01*
X0017335Y0178634D01*
X0017303Y0178803D01*
X0017276Y0178973D01*
X0017253Y0179143D01*
X0017234Y0179314D01*
X0017219Y0179485D01*
X0017208Y0179657D01*
X0017202Y0179828D01*
X0017200Y0180000D01*
X0032200Y0211000D02*
X0032202Y0211154D01*
X0032208Y0211309D01*
X0032218Y0211463D01*
X0032232Y0211617D01*
X0032250Y0211770D01*
X0032271Y0211923D01*
X0032297Y0212076D01*
X0032327Y0212227D01*
X0032360Y0212378D01*
X0032398Y0212528D01*
X0032439Y0212677D01*
X0032484Y0212825D01*
X0032533Y0212971D01*
X0032586Y0213117D01*
X0032642Y0213260D01*
X0032702Y0213403D01*
X0032766Y0213543D01*
X0032833Y0213683D01*
X0032904Y0213820D01*
X0032978Y0213955D01*
X0033056Y0214089D01*
X0033137Y0214220D01*
X0033222Y0214349D01*
X0033310Y0214477D01*
X0033401Y0214601D01*
X0033495Y0214724D01*
X0033593Y0214844D01*
X0033693Y0214961D01*
X0033797Y0215076D01*
X0033903Y0215188D01*
X0034012Y0215297D01*
X0034124Y0215403D01*
X0034239Y0215507D01*
X0034356Y0215607D01*
X0034476Y0215705D01*
X0034599Y0215799D01*
X0034723Y0215890D01*
X0034851Y0215978D01*
X0034980Y0216063D01*
X0035111Y0216144D01*
X0035245Y0216222D01*
X0035380Y0216296D01*
X0035517Y0216367D01*
X0035657Y0216434D01*
X0035797Y0216498D01*
X0035940Y0216558D01*
X0036083Y0216614D01*
X0036229Y0216667D01*
X0036375Y0216716D01*
X0036523Y0216761D01*
X0036672Y0216802D01*
X0036822Y0216840D01*
X0036973Y0216873D01*
X0037124Y0216903D01*
X0037277Y0216929D01*
X0037430Y0216950D01*
X0037583Y0216968D01*
X0037737Y0216982D01*
X0037891Y0216992D01*
X0038046Y0216998D01*
X0038200Y0217000D01*
X0038354Y0216998D01*
X0038509Y0216992D01*
X0038663Y0216982D01*
X0038817Y0216968D01*
X0038970Y0216950D01*
X0039123Y0216929D01*
X0039276Y0216903D01*
X0039427Y0216873D01*
X0039578Y0216840D01*
X0039728Y0216802D01*
X0039877Y0216761D01*
X0040025Y0216716D01*
X0040171Y0216667D01*
X0040317Y0216614D01*
X0040460Y0216558D01*
X0040603Y0216498D01*
X0040743Y0216434D01*
X0040883Y0216367D01*
X0041020Y0216296D01*
X0041155Y0216222D01*
X0041289Y0216144D01*
X0041420Y0216063D01*
X0041549Y0215978D01*
X0041677Y0215890D01*
X0041801Y0215799D01*
X0041924Y0215705D01*
X0042044Y0215607D01*
X0042161Y0215507D01*
X0042276Y0215403D01*
X0042388Y0215297D01*
X0042497Y0215188D01*
X0042603Y0215076D01*
X0042707Y0214961D01*
X0042807Y0214844D01*
X0042905Y0214724D01*
X0042999Y0214601D01*
X0043090Y0214477D01*
X0043178Y0214349D01*
X0043263Y0214220D01*
X0043344Y0214089D01*
X0043422Y0213955D01*
X0043496Y0213820D01*
X0043567Y0213683D01*
X0043634Y0213543D01*
X0043698Y0213403D01*
X0043758Y0213260D01*
X0043814Y0213117D01*
X0043867Y0212971D01*
X0043916Y0212825D01*
X0043961Y0212677D01*
X0044002Y0212528D01*
X0044040Y0212378D01*
X0044073Y0212227D01*
X0044103Y0212076D01*
X0044129Y0211923D01*
X0044150Y0211770D01*
X0044168Y0211617D01*
X0044182Y0211463D01*
X0044192Y0211309D01*
X0044198Y0211154D01*
X0044200Y0211000D01*
X0044198Y0210846D01*
X0044192Y0210691D01*
X0044182Y0210537D01*
X0044168Y0210383D01*
X0044150Y0210230D01*
X0044129Y0210077D01*
X0044103Y0209924D01*
X0044073Y0209773D01*
X0044040Y0209622D01*
X0044002Y0209472D01*
X0043961Y0209323D01*
X0043916Y0209175D01*
X0043867Y0209029D01*
X0043814Y0208883D01*
X0043758Y0208740D01*
X0043698Y0208597D01*
X0043634Y0208457D01*
X0043567Y0208317D01*
X0043496Y0208180D01*
X0043422Y0208045D01*
X0043344Y0207911D01*
X0043263Y0207780D01*
X0043178Y0207651D01*
X0043090Y0207523D01*
X0042999Y0207399D01*
X0042905Y0207276D01*
X0042807Y0207156D01*
X0042707Y0207039D01*
X0042603Y0206924D01*
X0042497Y0206812D01*
X0042388Y0206703D01*
X0042276Y0206597D01*
X0042161Y0206493D01*
X0042044Y0206393D01*
X0041924Y0206295D01*
X0041801Y0206201D01*
X0041677Y0206110D01*
X0041549Y0206022D01*
X0041420Y0205937D01*
X0041289Y0205856D01*
X0041155Y0205778D01*
X0041020Y0205704D01*
X0040883Y0205633D01*
X0040743Y0205566D01*
X0040603Y0205502D01*
X0040460Y0205442D01*
X0040317Y0205386D01*
X0040171Y0205333D01*
X0040025Y0205284D01*
X0039877Y0205239D01*
X0039728Y0205198D01*
X0039578Y0205160D01*
X0039427Y0205127D01*
X0039276Y0205097D01*
X0039123Y0205071D01*
X0038970Y0205050D01*
X0038817Y0205032D01*
X0038663Y0205018D01*
X0038509Y0205008D01*
X0038354Y0205002D01*
X0038200Y0205000D01*
X0038046Y0205002D01*
X0037891Y0205008D01*
X0037737Y0205018D01*
X0037583Y0205032D01*
X0037430Y0205050D01*
X0037277Y0205071D01*
X0037124Y0205097D01*
X0036973Y0205127D01*
X0036822Y0205160D01*
X0036672Y0205198D01*
X0036523Y0205239D01*
X0036375Y0205284D01*
X0036229Y0205333D01*
X0036083Y0205386D01*
X0035940Y0205442D01*
X0035797Y0205502D01*
X0035657Y0205566D01*
X0035517Y0205633D01*
X0035380Y0205704D01*
X0035245Y0205778D01*
X0035111Y0205856D01*
X0034980Y0205937D01*
X0034851Y0206022D01*
X0034723Y0206110D01*
X0034599Y0206201D01*
X0034476Y0206295D01*
X0034356Y0206393D01*
X0034239Y0206493D01*
X0034124Y0206597D01*
X0034012Y0206703D01*
X0033903Y0206812D01*
X0033797Y0206924D01*
X0033693Y0207039D01*
X0033593Y0207156D01*
X0033495Y0207276D01*
X0033401Y0207399D01*
X0033310Y0207523D01*
X0033222Y0207651D01*
X0033137Y0207780D01*
X0033056Y0207911D01*
X0032978Y0208045D01*
X0032904Y0208180D01*
X0032833Y0208317D01*
X0032766Y0208457D01*
X0032702Y0208597D01*
X0032642Y0208740D01*
X0032586Y0208883D01*
X0032533Y0209029D01*
X0032484Y0209175D01*
X0032439Y0209323D01*
X0032398Y0209472D01*
X0032360Y0209622D01*
X0032327Y0209773D01*
X0032297Y0209924D01*
X0032271Y0210077D01*
X0032250Y0210230D01*
X0032232Y0210383D01*
X0032218Y0210537D01*
X0032208Y0210691D01*
X0032202Y0210846D01*
X0032200Y0211000D01*
X0052200Y0213500D02*
X0052200Y0186500D01*
X0052202Y0186440D01*
X0052207Y0186379D01*
X0052216Y0186320D01*
X0052229Y0186261D01*
X0052245Y0186202D01*
X0052265Y0186145D01*
X0052288Y0186090D01*
X0052315Y0186035D01*
X0052344Y0185983D01*
X0052377Y0185932D01*
X0052413Y0185883D01*
X0052451Y0185837D01*
X0052493Y0185793D01*
X0052537Y0185751D01*
X0052583Y0185713D01*
X0052632Y0185677D01*
X0052683Y0185644D01*
X0052735Y0185615D01*
X0052790Y0185588D01*
X0052845Y0185565D01*
X0052902Y0185545D01*
X0052961Y0185529D01*
X0053020Y0185516D01*
X0053079Y0185507D01*
X0053140Y0185502D01*
X0053200Y0185500D01*
X0063200Y0185500D01*
X0063260Y0185502D01*
X0063321Y0185507D01*
X0063380Y0185516D01*
X0063439Y0185529D01*
X0063498Y0185545D01*
X0063555Y0185565D01*
X0063610Y0185588D01*
X0063665Y0185615D01*
X0063717Y0185644D01*
X0063768Y0185677D01*
X0063817Y0185713D01*
X0063863Y0185751D01*
X0063907Y0185793D01*
X0063949Y0185837D01*
X0063987Y0185883D01*
X0064023Y0185932D01*
X0064056Y0185983D01*
X0064085Y0186035D01*
X0064112Y0186090D01*
X0064135Y0186145D01*
X0064155Y0186202D01*
X0064171Y0186261D01*
X0064184Y0186320D01*
X0064193Y0186379D01*
X0064198Y0186440D01*
X0064200Y0186500D01*
X0064200Y0213500D01*
X0064198Y0213560D01*
X0064193Y0213621D01*
X0064184Y0213680D01*
X0064171Y0213739D01*
X0064155Y0213798D01*
X0064135Y0213855D01*
X0064112Y0213910D01*
X0064085Y0213965D01*
X0064056Y0214017D01*
X0064023Y0214068D01*
X0063987Y0214117D01*
X0063949Y0214163D01*
X0063907Y0214207D01*
X0063863Y0214249D01*
X0063817Y0214287D01*
X0063768Y0214323D01*
X0063717Y0214356D01*
X0063665Y0214385D01*
X0063610Y0214412D01*
X0063555Y0214435D01*
X0063498Y0214455D01*
X0063439Y0214471D01*
X0063380Y0214484D01*
X0063321Y0214493D01*
X0063260Y0214498D01*
X0063200Y0214500D01*
X0053200Y0214500D01*
X0053140Y0214498D01*
X0053079Y0214493D01*
X0053020Y0214484D01*
X0052961Y0214471D01*
X0052902Y0214455D01*
X0052845Y0214435D01*
X0052790Y0214412D01*
X0052735Y0214385D01*
X0052683Y0214356D01*
X0052632Y0214323D01*
X0052583Y0214287D01*
X0052537Y0214249D01*
X0052493Y0214207D01*
X0052451Y0214163D01*
X0052413Y0214117D01*
X0052377Y0214068D01*
X0052344Y0214017D01*
X0052315Y0213965D01*
X0052288Y0213910D01*
X0052265Y0213855D01*
X0052245Y0213798D01*
X0052229Y0213739D01*
X0052216Y0213680D01*
X0052207Y0213621D01*
X0052202Y0213560D01*
X0052200Y0213500D01*
X0058200Y0206000D02*
X0058200Y0201300D01*
X0058200Y0198800D02*
X0058200Y0194000D01*
X0064200Y0183000D02*
X0064200Y0037000D01*
X0086200Y0037000D01*
X0086200Y0183000D01*
X0077700Y0183000D01*
X0077698Y0182902D01*
X0077692Y0182804D01*
X0077683Y0182706D01*
X0077669Y0182609D01*
X0077652Y0182512D01*
X0077631Y0182416D01*
X0077606Y0182321D01*
X0077578Y0182227D01*
X0077545Y0182135D01*
X0077510Y0182043D01*
X0077470Y0181953D01*
X0077428Y0181865D01*
X0077381Y0181778D01*
X0077332Y0181694D01*
X0077279Y0181611D01*
X0077223Y0181531D01*
X0077163Y0181452D01*
X0077101Y0181376D01*
X0077036Y0181303D01*
X0076968Y0181232D01*
X0076897Y0181164D01*
X0076824Y0181099D01*
X0076748Y0181037D01*
X0076669Y0180977D01*
X0076589Y0180921D01*
X0076506Y0180868D01*
X0076422Y0180819D01*
X0076335Y0180772D01*
X0076247Y0180730D01*
X0076157Y0180690D01*
X0076065Y0180655D01*
X0075973Y0180622D01*
X0075879Y0180594D01*
X0075784Y0180569D01*
X0075688Y0180548D01*
X0075591Y0180531D01*
X0075494Y0180517D01*
X0075396Y0180508D01*
X0075298Y0180502D01*
X0075200Y0180500D01*
X0075102Y0180502D01*
X0075004Y0180508D01*
X0074906Y0180517D01*
X0074809Y0180531D01*
X0074712Y0180548D01*
X0074616Y0180569D01*
X0074521Y0180594D01*
X0074427Y0180622D01*
X0074335Y0180655D01*
X0074243Y0180690D01*
X0074153Y0180730D01*
X0074065Y0180772D01*
X0073978Y0180819D01*
X0073894Y0180868D01*
X0073811Y0180921D01*
X0073731Y0180977D01*
X0073652Y0181037D01*
X0073576Y0181099D01*
X0073503Y0181164D01*
X0073432Y0181232D01*
X0073364Y0181303D01*
X0073299Y0181376D01*
X0073237Y0181452D01*
X0073177Y0181531D01*
X0073121Y0181611D01*
X0073068Y0181694D01*
X0073019Y0181778D01*
X0072972Y0181865D01*
X0072930Y0181953D01*
X0072890Y0182043D01*
X0072855Y0182135D01*
X0072822Y0182227D01*
X0072794Y0182321D01*
X0072769Y0182416D01*
X0072748Y0182512D01*
X0072731Y0182609D01*
X0072717Y0182706D01*
X0072708Y0182804D01*
X0072702Y0182902D01*
X0072700Y0183000D01*
X0064200Y0183000D01*
X0069700Y0204000D02*
X0096700Y0204000D01*
X0096760Y0204002D01*
X0096821Y0204007D01*
X0096880Y0204016D01*
X0096939Y0204029D01*
X0096998Y0204045D01*
X0097055Y0204065D01*
X0097110Y0204088D01*
X0097165Y0204115D01*
X0097217Y0204144D01*
X0097268Y0204177D01*
X0097317Y0204213D01*
X0097363Y0204251D01*
X0097407Y0204293D01*
X0097449Y0204337D01*
X0097487Y0204383D01*
X0097523Y0204432D01*
X0097556Y0204483D01*
X0097585Y0204535D01*
X0097612Y0204590D01*
X0097635Y0204645D01*
X0097655Y0204702D01*
X0097671Y0204761D01*
X0097684Y0204820D01*
X0097693Y0204879D01*
X0097698Y0204940D01*
X0097700Y0205000D01*
X0097700Y0215000D01*
X0097698Y0215060D01*
X0097693Y0215121D01*
X0097684Y0215180D01*
X0097671Y0215239D01*
X0097655Y0215298D01*
X0097635Y0215355D01*
X0097612Y0215410D01*
X0097585Y0215465D01*
X0097556Y0215517D01*
X0097523Y0215568D01*
X0097487Y0215617D01*
X0097449Y0215663D01*
X0097407Y0215707D01*
X0097363Y0215749D01*
X0097317Y0215787D01*
X0097268Y0215823D01*
X0097217Y0215856D01*
X0097165Y0215885D01*
X0097110Y0215912D01*
X0097055Y0215935D01*
X0096998Y0215955D01*
X0096939Y0215971D01*
X0096880Y0215984D01*
X0096821Y0215993D01*
X0096760Y0215998D01*
X0096700Y0216000D01*
X0069700Y0216000D01*
X0069640Y0215998D01*
X0069579Y0215993D01*
X0069520Y0215984D01*
X0069461Y0215971D01*
X0069402Y0215955D01*
X0069345Y0215935D01*
X0069290Y0215912D01*
X0069235Y0215885D01*
X0069183Y0215856D01*
X0069132Y0215823D01*
X0069083Y0215787D01*
X0069037Y0215749D01*
X0068993Y0215707D01*
X0068951Y0215663D01*
X0068913Y0215617D01*
X0068877Y0215568D01*
X0068844Y0215517D01*
X0068815Y0215465D01*
X0068788Y0215410D01*
X0068765Y0215355D01*
X0068745Y0215298D01*
X0068729Y0215239D01*
X0068716Y0215180D01*
X0068707Y0215121D01*
X0068702Y0215060D01*
X0068700Y0215000D01*
X0068700Y0205000D01*
X0068702Y0204940D01*
X0068707Y0204879D01*
X0068716Y0204820D01*
X0068729Y0204761D01*
X0068745Y0204702D01*
X0068765Y0204645D01*
X0068788Y0204590D01*
X0068815Y0204535D01*
X0068844Y0204483D01*
X0068877Y0204432D01*
X0068913Y0204383D01*
X0068951Y0204337D01*
X0068993Y0204293D01*
X0069037Y0204251D01*
X0069083Y0204213D01*
X0069132Y0204177D01*
X0069183Y0204144D01*
X0069235Y0204115D01*
X0069290Y0204088D01*
X0069345Y0204065D01*
X0069402Y0204045D01*
X0069461Y0204029D01*
X0069520Y0204016D01*
X0069579Y0204007D01*
X0069640Y0204002D01*
X0069700Y0204000D01*
X0077200Y0210000D02*
X0081900Y0210000D01*
X0084400Y0210000D02*
X0089200Y0210000D01*
X0104200Y0225000D02*
X0110200Y0225000D01*
X0110260Y0225002D01*
X0110321Y0225007D01*
X0110380Y0225016D01*
X0110439Y0225029D01*
X0110498Y0225045D01*
X0110555Y0225065D01*
X0110610Y0225088D01*
X0110665Y0225115D01*
X0110717Y0225144D01*
X0110768Y0225177D01*
X0110817Y0225213D01*
X0110863Y0225251D01*
X0110907Y0225293D01*
X0110949Y0225337D01*
X0110987Y0225383D01*
X0111023Y0225432D01*
X0111056Y0225483D01*
X0111085Y0225535D01*
X0111112Y0225590D01*
X0111135Y0225645D01*
X0111155Y0225702D01*
X0111171Y0225761D01*
X0111184Y0225820D01*
X0111193Y0225879D01*
X0111198Y0225940D01*
X0111200Y0226000D01*
X0111200Y0227500D01*
X0110700Y0228000D01*
X0110700Y0242000D01*
X0111200Y0242500D01*
X0111200Y0244000D01*
X0111198Y0244060D01*
X0111193Y0244121D01*
X0111184Y0244180D01*
X0111171Y0244239D01*
X0111155Y0244298D01*
X0111135Y0244355D01*
X0111112Y0244410D01*
X0111085Y0244465D01*
X0111056Y0244517D01*
X0111023Y0244568D01*
X0110987Y0244617D01*
X0110949Y0244663D01*
X0110907Y0244707D01*
X0110863Y0244749D01*
X0110817Y0244787D01*
X0110768Y0244823D01*
X0110717Y0244856D01*
X0110665Y0244885D01*
X0110610Y0244912D01*
X0110555Y0244935D01*
X0110498Y0244955D01*
X0110439Y0244971D01*
X0110380Y0244984D01*
X0110321Y0244993D01*
X0110260Y0244998D01*
X0110200Y0245000D01*
X0104200Y0245000D01*
X0104140Y0244998D01*
X0104079Y0244993D01*
X0104020Y0244984D01*
X0103961Y0244971D01*
X0103902Y0244955D01*
X0103845Y0244935D01*
X0103790Y0244912D01*
X0103735Y0244885D01*
X0103683Y0244856D01*
X0103632Y0244823D01*
X0103583Y0244787D01*
X0103537Y0244749D01*
X0103493Y0244707D01*
X0103451Y0244663D01*
X0103413Y0244617D01*
X0103377Y0244568D01*
X0103344Y0244517D01*
X0103315Y0244465D01*
X0103288Y0244410D01*
X0103265Y0244355D01*
X0103245Y0244298D01*
X0103229Y0244239D01*
X0103216Y0244180D01*
X0103207Y0244121D01*
X0103202Y0244060D01*
X0103200Y0244000D01*
X0103200Y0242500D01*
X0103700Y0242000D01*
X0103700Y0228000D01*
X0103200Y0227500D01*
X0103200Y0226000D01*
X0103202Y0225940D01*
X0103207Y0225879D01*
X0103216Y0225820D01*
X0103229Y0225761D01*
X0103245Y0225702D01*
X0103265Y0225645D01*
X0103288Y0225590D01*
X0103315Y0225535D01*
X0103344Y0225483D01*
X0103377Y0225432D01*
X0103413Y0225383D01*
X0103451Y0225337D01*
X0103493Y0225293D01*
X0103537Y0225251D01*
X0103583Y0225213D01*
X0103632Y0225177D01*
X0103683Y0225144D01*
X0103735Y0225115D01*
X0103790Y0225088D01*
X0103845Y0225065D01*
X0103902Y0225045D01*
X0103961Y0225029D01*
X0104020Y0225016D01*
X0104079Y0225007D01*
X0104140Y0225002D01*
X0104200Y0225000D01*
X0119700Y0227000D02*
X0119700Y0228500D01*
X0120200Y0229000D01*
X0120200Y0243000D01*
X0119700Y0243500D01*
X0119700Y0245000D01*
X0119702Y0245060D01*
X0119707Y0245121D01*
X0119716Y0245180D01*
X0119729Y0245239D01*
X0119745Y0245298D01*
X0119765Y0245355D01*
X0119788Y0245410D01*
X0119815Y0245465D01*
X0119844Y0245517D01*
X0119877Y0245568D01*
X0119913Y0245617D01*
X0119951Y0245663D01*
X0119993Y0245707D01*
X0120037Y0245749D01*
X0120083Y0245787D01*
X0120132Y0245823D01*
X0120183Y0245856D01*
X0120235Y0245885D01*
X0120290Y0245912D01*
X0120345Y0245935D01*
X0120402Y0245955D01*
X0120461Y0245971D01*
X0120520Y0245984D01*
X0120579Y0245993D01*
X0120640Y0245998D01*
X0120700Y0246000D01*
X0126700Y0246000D01*
X0126760Y0245998D01*
X0126821Y0245993D01*
X0126880Y0245984D01*
X0126939Y0245971D01*
X0126998Y0245955D01*
X0127055Y0245935D01*
X0127110Y0245912D01*
X0127165Y0245885D01*
X0127217Y0245856D01*
X0127268Y0245823D01*
X0127317Y0245787D01*
X0127363Y0245749D01*
X0127407Y0245707D01*
X0127449Y0245663D01*
X0127487Y0245617D01*
X0127523Y0245568D01*
X0127556Y0245517D01*
X0127585Y0245465D01*
X0127612Y0245410D01*
X0127635Y0245355D01*
X0127655Y0245298D01*
X0127671Y0245239D01*
X0127684Y0245180D01*
X0127693Y0245121D01*
X0127698Y0245060D01*
X0127700Y0245000D01*
X0127700Y0243500D01*
X0127200Y0243000D01*
X0127200Y0229000D01*
X0127700Y0228500D01*
X0127700Y0227000D01*
X0127698Y0226940D01*
X0127693Y0226879D01*
X0127684Y0226820D01*
X0127671Y0226761D01*
X0127655Y0226702D01*
X0127635Y0226645D01*
X0127612Y0226590D01*
X0127585Y0226535D01*
X0127556Y0226483D01*
X0127523Y0226432D01*
X0127487Y0226383D01*
X0127449Y0226337D01*
X0127407Y0226293D01*
X0127363Y0226251D01*
X0127317Y0226213D01*
X0127268Y0226177D01*
X0127217Y0226144D01*
X0127165Y0226115D01*
X0127110Y0226088D01*
X0127055Y0226065D01*
X0126998Y0226045D01*
X0126939Y0226029D01*
X0126880Y0226016D01*
X0126821Y0226007D01*
X0126760Y0226002D01*
X0126700Y0226000D01*
X0120700Y0226000D01*
X0120640Y0226002D01*
X0120579Y0226007D01*
X0120520Y0226016D01*
X0120461Y0226029D01*
X0120402Y0226045D01*
X0120345Y0226065D01*
X0120290Y0226088D01*
X0120235Y0226115D01*
X0120183Y0226144D01*
X0120132Y0226177D01*
X0120083Y0226213D01*
X0120037Y0226251D01*
X0119993Y0226293D01*
X0119951Y0226337D01*
X0119913Y0226383D01*
X0119877Y0226432D01*
X0119844Y0226483D01*
X0119815Y0226535D01*
X0119788Y0226590D01*
X0119765Y0226645D01*
X0119745Y0226702D01*
X0119729Y0226761D01*
X0119716Y0226820D01*
X0119707Y0226879D01*
X0119702Y0226940D01*
X0119700Y0227000D01*
X0129700Y0227000D02*
X0129700Y0228500D01*
X0130200Y0229000D01*
X0130200Y0243000D01*
X0129700Y0243500D01*
X0129700Y0245000D01*
X0129702Y0245060D01*
X0129707Y0245121D01*
X0129716Y0245180D01*
X0129729Y0245239D01*
X0129745Y0245298D01*
X0129765Y0245355D01*
X0129788Y0245410D01*
X0129815Y0245465D01*
X0129844Y0245517D01*
X0129877Y0245568D01*
X0129913Y0245617D01*
X0129951Y0245663D01*
X0129993Y0245707D01*
X0130037Y0245749D01*
X0130083Y0245787D01*
X0130132Y0245823D01*
X0130183Y0245856D01*
X0130235Y0245885D01*
X0130290Y0245912D01*
X0130345Y0245935D01*
X0130402Y0245955D01*
X0130461Y0245971D01*
X0130520Y0245984D01*
X0130579Y0245993D01*
X0130640Y0245998D01*
X0130700Y0246000D01*
X0136700Y0246000D01*
X0136760Y0245998D01*
X0136821Y0245993D01*
X0136880Y0245984D01*
X0136939Y0245971D01*
X0136998Y0245955D01*
X0137055Y0245935D01*
X0137110Y0245912D01*
X0137165Y0245885D01*
X0137217Y0245856D01*
X0137268Y0245823D01*
X0137317Y0245787D01*
X0137363Y0245749D01*
X0137407Y0245707D01*
X0137449Y0245663D01*
X0137487Y0245617D01*
X0137523Y0245568D01*
X0137556Y0245517D01*
X0137585Y0245465D01*
X0137612Y0245410D01*
X0137635Y0245355D01*
X0137655Y0245298D01*
X0137671Y0245239D01*
X0137684Y0245180D01*
X0137693Y0245121D01*
X0137698Y0245060D01*
X0137700Y0245000D01*
X0137700Y0243500D01*
X0137200Y0243000D01*
X0137200Y0229000D01*
X0137700Y0228500D01*
X0137700Y0227000D01*
X0137698Y0226940D01*
X0137693Y0226879D01*
X0137684Y0226820D01*
X0137671Y0226761D01*
X0137655Y0226702D01*
X0137635Y0226645D01*
X0137612Y0226590D01*
X0137585Y0226535D01*
X0137556Y0226483D01*
X0137523Y0226432D01*
X0137487Y0226383D01*
X0137449Y0226337D01*
X0137407Y0226293D01*
X0137363Y0226251D01*
X0137317Y0226213D01*
X0137268Y0226177D01*
X0137217Y0226144D01*
X0137165Y0226115D01*
X0137110Y0226088D01*
X0137055Y0226065D01*
X0136998Y0226045D01*
X0136939Y0226029D01*
X0136880Y0226016D01*
X0136821Y0226007D01*
X0136760Y0226002D01*
X0136700Y0226000D01*
X0130700Y0226000D01*
X0130640Y0226002D01*
X0130579Y0226007D01*
X0130520Y0226016D01*
X0130461Y0226029D01*
X0130402Y0226045D01*
X0130345Y0226065D01*
X0130290Y0226088D01*
X0130235Y0226115D01*
X0130183Y0226144D01*
X0130132Y0226177D01*
X0130083Y0226213D01*
X0130037Y0226251D01*
X0129993Y0226293D01*
X0129951Y0226337D01*
X0129913Y0226383D01*
X0129877Y0226432D01*
X0129844Y0226483D01*
X0129815Y0226535D01*
X0129788Y0226590D01*
X0129765Y0226645D01*
X0129745Y0226702D01*
X0129729Y0226761D01*
X0129716Y0226820D01*
X0129707Y0226879D01*
X0129702Y0226940D01*
X0129700Y0227000D01*
X0139700Y0227000D02*
X0139700Y0228500D01*
X0140200Y0229000D01*
X0140200Y0243000D01*
X0139700Y0243500D01*
X0139700Y0245000D01*
X0139702Y0245060D01*
X0139707Y0245121D01*
X0139716Y0245180D01*
X0139729Y0245239D01*
X0139745Y0245298D01*
X0139765Y0245355D01*
X0139788Y0245410D01*
X0139815Y0245465D01*
X0139844Y0245517D01*
X0139877Y0245568D01*
X0139913Y0245617D01*
X0139951Y0245663D01*
X0139993Y0245707D01*
X0140037Y0245749D01*
X0140083Y0245787D01*
X0140132Y0245823D01*
X0140183Y0245856D01*
X0140235Y0245885D01*
X0140290Y0245912D01*
X0140345Y0245935D01*
X0140402Y0245955D01*
X0140461Y0245971D01*
X0140520Y0245984D01*
X0140579Y0245993D01*
X0140640Y0245998D01*
X0140700Y0246000D01*
X0146700Y0246000D01*
X0146760Y0245998D01*
X0146821Y0245993D01*
X0146880Y0245984D01*
X0146939Y0245971D01*
X0146998Y0245955D01*
X0147055Y0245935D01*
X0147110Y0245912D01*
X0147165Y0245885D01*
X0147217Y0245856D01*
X0147268Y0245823D01*
X0147317Y0245787D01*
X0147363Y0245749D01*
X0147407Y0245707D01*
X0147449Y0245663D01*
X0147487Y0245617D01*
X0147523Y0245568D01*
X0147556Y0245517D01*
X0147585Y0245465D01*
X0147612Y0245410D01*
X0147635Y0245355D01*
X0147655Y0245298D01*
X0147671Y0245239D01*
X0147684Y0245180D01*
X0147693Y0245121D01*
X0147698Y0245060D01*
X0147700Y0245000D01*
X0147700Y0243500D01*
X0147200Y0243000D01*
X0147200Y0229000D01*
X0147700Y0228500D01*
X0147700Y0227000D01*
X0147698Y0226940D01*
X0147693Y0226879D01*
X0147684Y0226820D01*
X0147671Y0226761D01*
X0147655Y0226702D01*
X0147635Y0226645D01*
X0147612Y0226590D01*
X0147585Y0226535D01*
X0147556Y0226483D01*
X0147523Y0226432D01*
X0147487Y0226383D01*
X0147449Y0226337D01*
X0147407Y0226293D01*
X0147363Y0226251D01*
X0147317Y0226213D01*
X0147268Y0226177D01*
X0147217Y0226144D01*
X0147165Y0226115D01*
X0147110Y0226088D01*
X0147055Y0226065D01*
X0146998Y0226045D01*
X0146939Y0226029D01*
X0146880Y0226016D01*
X0146821Y0226007D01*
X0146760Y0226002D01*
X0146700Y0226000D01*
X0140700Y0226000D01*
X0140640Y0226002D01*
X0140579Y0226007D01*
X0140520Y0226016D01*
X0140461Y0226029D01*
X0140402Y0226045D01*
X0140345Y0226065D01*
X0140290Y0226088D01*
X0140235Y0226115D01*
X0140183Y0226144D01*
X0140132Y0226177D01*
X0140083Y0226213D01*
X0140037Y0226251D01*
X0139993Y0226293D01*
X0139951Y0226337D01*
X0139913Y0226383D01*
X0139877Y0226432D01*
X0139844Y0226483D01*
X0139815Y0226535D01*
X0139788Y0226590D01*
X0139765Y0226645D01*
X0139745Y0226702D01*
X0139729Y0226761D01*
X0139716Y0226820D01*
X0139707Y0226879D01*
X0139702Y0226940D01*
X0139700Y0227000D01*
X0181200Y0204500D02*
X0181200Y0197500D01*
X0182700Y0196000D01*
X0181200Y0194500D01*
X0181200Y0187500D01*
X0182700Y0186000D01*
X0181200Y0184500D01*
X0181200Y0177500D01*
X0182700Y0176000D01*
X0181200Y0174500D01*
X0181200Y0167500D01*
X0182700Y0166000D01*
X0181200Y0164500D01*
X0181200Y0157500D01*
X0182700Y0156000D01*
X0181200Y0154500D01*
X0181200Y0147500D01*
X0182700Y0146000D01*
X0199700Y0146000D01*
X0201200Y0147500D01*
X0201200Y0154500D01*
X0199700Y0156000D01*
X0201200Y0157500D01*
X0201200Y0164500D01*
X0199700Y0166000D01*
X0201200Y0167500D01*
X0201200Y0174500D01*
X0199700Y0176000D01*
X0201200Y0177500D01*
X0201200Y0184500D01*
X0199700Y0186000D01*
X0201200Y0187500D01*
X0201200Y0194500D01*
X0199700Y0196000D01*
X0201200Y0197500D01*
X0201200Y0204500D01*
X0199700Y0206000D01*
X0182700Y0206000D01*
X0181200Y0204500D01*
X0088200Y0234500D02*
X0088200Y0246000D01*
X0087200Y0247000D01*
X0049200Y0247000D01*
X0048200Y0246000D01*
X0048200Y0234500D01*
X0031200Y0235500D02*
X0028700Y0233000D01*
X0023700Y0233000D01*
X0021200Y0235500D01*
X0021200Y0240500D01*
X0023700Y0243000D01*
X0028700Y0243000D01*
X0031200Y0240500D01*
X0031200Y0235500D01*
X0107700Y0090000D02*
X0105200Y0087500D01*
X0105200Y0082500D01*
X0107700Y0080000D01*
X0112700Y0080000D01*
X0115200Y0082500D01*
X0115200Y0087500D01*
X0112700Y0090000D01*
X0107700Y0090000D01*
X0107700Y0080000D02*
X0105200Y0077500D01*
X0105200Y0072500D01*
X0107700Y0070000D01*
X0105200Y0067500D01*
X0105200Y0062500D01*
X0107700Y0060000D01*
X0105200Y0057500D01*
X0105200Y0052500D01*
X0107700Y0050000D01*
X0112700Y0050000D01*
X0115200Y0052500D01*
X0115200Y0057500D01*
X0112700Y0060000D01*
X0107700Y0060000D01*
X0112700Y0060000D01*
X0115200Y0062500D01*
X0115200Y0067500D01*
X0112700Y0070000D01*
X0107700Y0070000D01*
X0112700Y0070000D01*
X0115200Y0072500D01*
X0115200Y0077500D01*
X0112700Y0080000D01*
X0107700Y0080000D01*
X0126200Y0058000D02*
X0126200Y0057000D01*
X0125200Y0057000D01*
X0125200Y0051000D01*
X0126200Y0051000D01*
X0126200Y0050000D01*
X0129700Y0042000D02*
X0133200Y0042000D01*
X0142700Y0042000D01*
X0146700Y0042000D01*
X0150200Y0050000D02*
X0150200Y0051000D01*
X0151200Y0051000D01*
X0151200Y0057000D01*
X0150200Y0057000D01*
X0150200Y0058000D01*
X0146700Y0066000D02*
X0143200Y0066000D01*
X0133200Y0066000D01*
X0129700Y0066000D01*
X0137200Y0054000D02*
X0137202Y0054063D01*
X0137208Y0054125D01*
X0137218Y0054187D01*
X0137231Y0054249D01*
X0137249Y0054309D01*
X0137270Y0054368D01*
X0137295Y0054426D01*
X0137324Y0054482D01*
X0137356Y0054536D01*
X0137391Y0054588D01*
X0137429Y0054637D01*
X0137471Y0054685D01*
X0137515Y0054729D01*
X0137563Y0054771D01*
X0137612Y0054809D01*
X0137664Y0054844D01*
X0137718Y0054876D01*
X0137774Y0054905D01*
X0137832Y0054930D01*
X0137891Y0054951D01*
X0137951Y0054969D01*
X0138013Y0054982D01*
X0138075Y0054992D01*
X0138137Y0054998D01*
X0138200Y0055000D01*
X0138263Y0054998D01*
X0138325Y0054992D01*
X0138387Y0054982D01*
X0138449Y0054969D01*
X0138509Y0054951D01*
X0138568Y0054930D01*
X0138626Y0054905D01*
X0138682Y0054876D01*
X0138736Y0054844D01*
X0138788Y0054809D01*
X0138837Y0054771D01*
X0138885Y0054729D01*
X0138929Y0054685D01*
X0138971Y0054637D01*
X0139009Y0054588D01*
X0139044Y0054536D01*
X0139076Y0054482D01*
X0139105Y0054426D01*
X0139130Y0054368D01*
X0139151Y0054309D01*
X0139169Y0054249D01*
X0139182Y0054187D01*
X0139192Y0054125D01*
X0139198Y0054063D01*
X0139200Y0054000D01*
X0139198Y0053937D01*
X0139192Y0053875D01*
X0139182Y0053813D01*
X0139169Y0053751D01*
X0139151Y0053691D01*
X0139130Y0053632D01*
X0139105Y0053574D01*
X0139076Y0053518D01*
X0139044Y0053464D01*
X0139009Y0053412D01*
X0138971Y0053363D01*
X0138929Y0053315D01*
X0138885Y0053271D01*
X0138837Y0053229D01*
X0138788Y0053191D01*
X0138736Y0053156D01*
X0138682Y0053124D01*
X0138626Y0053095D01*
X0138568Y0053070D01*
X0138509Y0053049D01*
X0138449Y0053031D01*
X0138387Y0053018D01*
X0138325Y0053008D01*
X0138263Y0053002D01*
X0138200Y0053000D01*
X0138137Y0053002D01*
X0138075Y0053008D01*
X0138013Y0053018D01*
X0137951Y0053031D01*
X0137891Y0053049D01*
X0137832Y0053070D01*
X0137774Y0053095D01*
X0137718Y0053124D01*
X0137664Y0053156D01*
X0137612Y0053191D01*
X0137563Y0053229D01*
X0137515Y0053271D01*
X0137471Y0053315D01*
X0137429Y0053363D01*
X0137391Y0053412D01*
X0137356Y0053464D01*
X0137324Y0053518D01*
X0137295Y0053574D01*
X0137270Y0053632D01*
X0137249Y0053691D01*
X0137231Y0053751D01*
X0137218Y0053813D01*
X0137208Y0053875D01*
X0137202Y0053937D01*
X0137200Y0054000D01*
X0131200Y0054000D02*
X0131202Y0054172D01*
X0131208Y0054343D01*
X0131219Y0054515D01*
X0131234Y0054686D01*
X0131253Y0054857D01*
X0131276Y0055027D01*
X0131303Y0055197D01*
X0131335Y0055366D01*
X0131370Y0055534D01*
X0131410Y0055701D01*
X0131454Y0055867D01*
X0131501Y0056032D01*
X0131553Y0056196D01*
X0131609Y0056358D01*
X0131669Y0056519D01*
X0131733Y0056679D01*
X0131801Y0056837D01*
X0131872Y0056993D01*
X0131947Y0057147D01*
X0132027Y0057300D01*
X0132109Y0057450D01*
X0132196Y0057599D01*
X0132286Y0057745D01*
X0132380Y0057889D01*
X0132477Y0058031D01*
X0132578Y0058170D01*
X0132682Y0058307D01*
X0132789Y0058441D01*
X0132900Y0058572D01*
X0133013Y0058701D01*
X0133130Y0058827D01*
X0133250Y0058950D01*
X0133373Y0059070D01*
X0133499Y0059187D01*
X0133628Y0059300D01*
X0133759Y0059411D01*
X0133893Y0059518D01*
X0134030Y0059622D01*
X0134169Y0059723D01*
X0134311Y0059820D01*
X0134455Y0059914D01*
X0134601Y0060004D01*
X0134750Y0060091D01*
X0134900Y0060173D01*
X0135053Y0060253D01*
X0135207Y0060328D01*
X0135363Y0060399D01*
X0135521Y0060467D01*
X0135681Y0060531D01*
X0135842Y0060591D01*
X0136004Y0060647D01*
X0136168Y0060699D01*
X0136333Y0060746D01*
X0136499Y0060790D01*
X0136666Y0060830D01*
X0136834Y0060865D01*
X0137003Y0060897D01*
X0137173Y0060924D01*
X0137343Y0060947D01*
X0137514Y0060966D01*
X0137685Y0060981D01*
X0137857Y0060992D01*
X0138028Y0060998D01*
X0138200Y0061000D01*
X0138372Y0060998D01*
X0138543Y0060992D01*
X0138715Y0060981D01*
X0138886Y0060966D01*
X0139057Y0060947D01*
X0139227Y0060924D01*
X0139397Y0060897D01*
X0139566Y0060865D01*
X0139734Y0060830D01*
X0139901Y0060790D01*
X0140067Y0060746D01*
X0140232Y0060699D01*
X0140396Y0060647D01*
X0140558Y0060591D01*
X0140719Y0060531D01*
X0140879Y0060467D01*
X0141037Y0060399D01*
X0141193Y0060328D01*
X0141347Y0060253D01*
X0141500Y0060173D01*
X0141650Y0060091D01*
X0141799Y0060004D01*
X0141945Y0059914D01*
X0142089Y0059820D01*
X0142231Y0059723D01*
X0142370Y0059622D01*
X0142507Y0059518D01*
X0142641Y0059411D01*
X0142772Y0059300D01*
X0142901Y0059187D01*
X0143027Y0059070D01*
X0143150Y0058950D01*
X0143270Y0058827D01*
X0143387Y0058701D01*
X0143500Y0058572D01*
X0143611Y0058441D01*
X0143718Y0058307D01*
X0143822Y0058170D01*
X0143923Y0058031D01*
X0144020Y0057889D01*
X0144114Y0057745D01*
X0144204Y0057599D01*
X0144291Y0057450D01*
X0144373Y0057300D01*
X0144453Y0057147D01*
X0144528Y0056993D01*
X0144599Y0056837D01*
X0144667Y0056679D01*
X0144731Y0056519D01*
X0144791Y0056358D01*
X0144847Y0056196D01*
X0144899Y0056032D01*
X0144946Y0055867D01*
X0144990Y0055701D01*
X0145030Y0055534D01*
X0145065Y0055366D01*
X0145097Y0055197D01*
X0145124Y0055027D01*
X0145147Y0054857D01*
X0145166Y0054686D01*
X0145181Y0054515D01*
X0145192Y0054343D01*
X0145198Y0054172D01*
X0145200Y0054000D01*
X0145198Y0053828D01*
X0145192Y0053657D01*
X0145181Y0053485D01*
X0145166Y0053314D01*
X0145147Y0053143D01*
X0145124Y0052973D01*
X0145097Y0052803D01*
X0145065Y0052634D01*
X0145030Y0052466D01*
X0144990Y0052299D01*
X0144946Y0052133D01*
X0144899Y0051968D01*
X0144847Y0051804D01*
X0144791Y0051642D01*
X0144731Y0051481D01*
X0144667Y0051321D01*
X0144599Y0051163D01*
X0144528Y0051007D01*
X0144453Y0050853D01*
X0144373Y0050700D01*
X0144291Y0050550D01*
X0144204Y0050401D01*
X0144114Y0050255D01*
X0144020Y0050111D01*
X0143923Y0049969D01*
X0143822Y0049830D01*
X0143718Y0049693D01*
X0143611Y0049559D01*
X0143500Y0049428D01*
X0143387Y0049299D01*
X0143270Y0049173D01*
X0143150Y0049050D01*
X0143027Y0048930D01*
X0142901Y0048813D01*
X0142772Y0048700D01*
X0142641Y0048589D01*
X0142507Y0048482D01*
X0142370Y0048378D01*
X0142231Y0048277D01*
X0142089Y0048180D01*
X0141945Y0048086D01*
X0141799Y0047996D01*
X0141650Y0047909D01*
X0141500Y0047827D01*
X0141347Y0047747D01*
X0141193Y0047672D01*
X0141037Y0047601D01*
X0140879Y0047533D01*
X0140719Y0047469D01*
X0140558Y0047409D01*
X0140396Y0047353D01*
X0140232Y0047301D01*
X0140067Y0047254D01*
X0139901Y0047210D01*
X0139734Y0047170D01*
X0139566Y0047135D01*
X0139397Y0047103D01*
X0139227Y0047076D01*
X0139057Y0047053D01*
X0138886Y0047034D01*
X0138715Y0047019D01*
X0138543Y0047008D01*
X0138372Y0047002D01*
X0138200Y0047000D01*
X0138028Y0047002D01*
X0137857Y0047008D01*
X0137685Y0047019D01*
X0137514Y0047034D01*
X0137343Y0047053D01*
X0137173Y0047076D01*
X0137003Y0047103D01*
X0136834Y0047135D01*
X0136666Y0047170D01*
X0136499Y0047210D01*
X0136333Y0047254D01*
X0136168Y0047301D01*
X0136004Y0047353D01*
X0135842Y0047409D01*
X0135681Y0047469D01*
X0135521Y0047533D01*
X0135363Y0047601D01*
X0135207Y0047672D01*
X0135053Y0047747D01*
X0134900Y0047827D01*
X0134750Y0047909D01*
X0134601Y0047996D01*
X0134455Y0048086D01*
X0134311Y0048180D01*
X0134169Y0048277D01*
X0134030Y0048378D01*
X0133893Y0048482D01*
X0133759Y0048589D01*
X0133628Y0048700D01*
X0133499Y0048813D01*
X0133373Y0048930D01*
X0133250Y0049050D01*
X0133130Y0049173D01*
X0133013Y0049299D01*
X0132900Y0049428D01*
X0132789Y0049559D01*
X0132682Y0049693D01*
X0132578Y0049830D01*
X0132477Y0049969D01*
X0132380Y0050111D01*
X0132286Y0050255D01*
X0132196Y0050401D01*
X0132109Y0050550D01*
X0132027Y0050700D01*
X0131947Y0050853D01*
X0131872Y0051007D01*
X0131801Y0051163D01*
X0131733Y0051321D01*
X0131669Y0051481D01*
X0131609Y0051642D01*
X0131553Y0051804D01*
X0131501Y0051968D01*
X0131454Y0052133D01*
X0131410Y0052299D01*
X0131370Y0052466D01*
X0131335Y0052634D01*
X0131303Y0052803D01*
X0131276Y0052973D01*
X0131253Y0053143D01*
X0131234Y0053314D01*
X0131219Y0053485D01*
X0131208Y0053657D01*
X0131202Y0053828D01*
X0131200Y0054000D01*
D13*
X0127700Y0068750D02*
X0126450Y0068750D01*
X0126450Y0073250D01*
X0127700Y0073250D01*
X0127762Y0073248D01*
X0127823Y0073242D01*
X0127884Y0073233D01*
X0127944Y0073220D01*
X0128003Y0073203D01*
X0128061Y0073182D01*
X0128118Y0073158D01*
X0128173Y0073131D01*
X0128226Y0073100D01*
X0128278Y0073066D01*
X0128327Y0073029D01*
X0128374Y0072989D01*
X0128418Y0072946D01*
X0128459Y0072901D01*
X0128498Y0072853D01*
X0128534Y0072802D01*
X0128566Y0072750D01*
X0128595Y0072696D01*
X0128621Y0072640D01*
X0128643Y0072582D01*
X0128662Y0072524D01*
X0128677Y0072464D01*
X0128688Y0072403D01*
X0128696Y0072342D01*
X0128700Y0072281D01*
X0128700Y0072219D01*
X0128696Y0072158D01*
X0128688Y0072097D01*
X0128677Y0072036D01*
X0128662Y0071976D01*
X0128643Y0071918D01*
X0128621Y0071860D01*
X0128595Y0071804D01*
X0128566Y0071750D01*
X0128534Y0071698D01*
X0128498Y0071647D01*
X0128459Y0071599D01*
X0128418Y0071554D01*
X0128374Y0071511D01*
X0128327Y0071471D01*
X0128278Y0071434D01*
X0128226Y0071400D01*
X0128173Y0071369D01*
X0128118Y0071342D01*
X0128061Y0071318D01*
X0128003Y0071297D01*
X0127944Y0071280D01*
X0127884Y0071267D01*
X0127823Y0071258D01*
X0127762Y0071252D01*
X0127700Y0071250D01*
X0126450Y0071250D01*
X0127700Y0071250D02*
X0127769Y0071248D01*
X0127838Y0071242D01*
X0127906Y0071233D01*
X0127973Y0071220D01*
X0128040Y0071203D01*
X0128106Y0071182D01*
X0128170Y0071158D01*
X0128233Y0071130D01*
X0128295Y0071099D01*
X0128355Y0071065D01*
X0128412Y0071027D01*
X0128468Y0070986D01*
X0128521Y0070943D01*
X0128572Y0070896D01*
X0128620Y0070847D01*
X0128665Y0070795D01*
X0128707Y0070740D01*
X0128746Y0070684D01*
X0128783Y0070625D01*
X0128815Y0070564D01*
X0128845Y0070502D01*
X0128871Y0070438D01*
X0128893Y0070373D01*
X0128912Y0070307D01*
X0128927Y0070240D01*
X0128938Y0070172D01*
X0128946Y0070103D01*
X0128950Y0070034D01*
X0128950Y0069966D01*
X0128946Y0069897D01*
X0128938Y0069828D01*
X0128927Y0069760D01*
X0128912Y0069693D01*
X0128893Y0069627D01*
X0128871Y0069562D01*
X0128845Y0069498D01*
X0128815Y0069436D01*
X0128783Y0069375D01*
X0128746Y0069316D01*
X0128707Y0069260D01*
X0128665Y0069205D01*
X0128620Y0069153D01*
X0128572Y0069104D01*
X0128521Y0069057D01*
X0128468Y0069014D01*
X0128412Y0068973D01*
X0128355Y0068935D01*
X0128295Y0068901D01*
X0128233Y0068870D01*
X0128170Y0068842D01*
X0128106Y0068818D01*
X0128040Y0068797D01*
X0127973Y0068780D01*
X0127906Y0068767D01*
X0127838Y0068758D01*
X0127769Y0068752D01*
X0127700Y0068750D01*
X0130725Y0070000D02*
X0130725Y0072000D01*
X0130727Y0072069D01*
X0130733Y0072138D01*
X0130742Y0072206D01*
X0130755Y0072273D01*
X0130772Y0072340D01*
X0130793Y0072406D01*
X0130817Y0072470D01*
X0130845Y0072533D01*
X0130876Y0072595D01*
X0130910Y0072655D01*
X0130948Y0072712D01*
X0130989Y0072768D01*
X0131032Y0072821D01*
X0131079Y0072872D01*
X0131128Y0072920D01*
X0131180Y0072965D01*
X0131235Y0073007D01*
X0131291Y0073046D01*
X0131350Y0073083D01*
X0131411Y0073115D01*
X0131473Y0073145D01*
X0131537Y0073171D01*
X0131602Y0073193D01*
X0131668Y0073212D01*
X0131735Y0073227D01*
X0131803Y0073238D01*
X0131872Y0073246D01*
X0131941Y0073250D01*
X0132009Y0073250D01*
X0132078Y0073246D01*
X0132147Y0073238D01*
X0132215Y0073227D01*
X0132282Y0073212D01*
X0132348Y0073193D01*
X0132413Y0073171D01*
X0132477Y0073145D01*
X0132539Y0073115D01*
X0132600Y0073083D01*
X0132659Y0073046D01*
X0132715Y0073007D01*
X0132770Y0072965D01*
X0132822Y0072920D01*
X0132871Y0072872D01*
X0132918Y0072821D01*
X0132961Y0072768D01*
X0133002Y0072712D01*
X0133040Y0072655D01*
X0133074Y0072595D01*
X0133105Y0072533D01*
X0133133Y0072470D01*
X0133157Y0072406D01*
X0133178Y0072340D01*
X0133195Y0072273D01*
X0133208Y0072206D01*
X0133217Y0072138D01*
X0133223Y0072069D01*
X0133225Y0072000D01*
X0133225Y0070000D01*
X0133223Y0069931D01*
X0133217Y0069862D01*
X0133208Y0069794D01*
X0133195Y0069727D01*
X0133178Y0069660D01*
X0133157Y0069594D01*
X0133133Y0069530D01*
X0133105Y0069467D01*
X0133074Y0069405D01*
X0133040Y0069345D01*
X0133002Y0069288D01*
X0132961Y0069232D01*
X0132918Y0069179D01*
X0132871Y0069128D01*
X0132822Y0069080D01*
X0132770Y0069035D01*
X0132715Y0068993D01*
X0132659Y0068954D01*
X0132600Y0068917D01*
X0132539Y0068885D01*
X0132477Y0068855D01*
X0132413Y0068829D01*
X0132348Y0068807D01*
X0132282Y0068788D01*
X0132215Y0068773D01*
X0132147Y0068762D01*
X0132078Y0068754D01*
X0132009Y0068750D01*
X0131941Y0068750D01*
X0131872Y0068754D01*
X0131803Y0068762D01*
X0131735Y0068773D01*
X0131668Y0068788D01*
X0131602Y0068807D01*
X0131537Y0068829D01*
X0131473Y0068855D01*
X0131411Y0068885D01*
X0131350Y0068917D01*
X0131291Y0068954D01*
X0131235Y0068993D01*
X0131180Y0069035D01*
X0131128Y0069080D01*
X0131079Y0069128D01*
X0131032Y0069179D01*
X0130989Y0069232D01*
X0130948Y0069288D01*
X0130910Y0069345D01*
X0130876Y0069405D01*
X0130845Y0069467D01*
X0130817Y0069530D01*
X0130793Y0069594D01*
X0130772Y0069660D01*
X0130755Y0069727D01*
X0130742Y0069794D01*
X0130733Y0069862D01*
X0130727Y0069931D01*
X0130725Y0070000D01*
X0135225Y0070000D02*
X0135225Y0072000D01*
X0135227Y0072069D01*
X0135233Y0072138D01*
X0135242Y0072206D01*
X0135255Y0072273D01*
X0135272Y0072340D01*
X0135293Y0072406D01*
X0135317Y0072470D01*
X0135345Y0072533D01*
X0135376Y0072595D01*
X0135410Y0072655D01*
X0135448Y0072712D01*
X0135489Y0072768D01*
X0135532Y0072821D01*
X0135579Y0072872D01*
X0135628Y0072920D01*
X0135680Y0072965D01*
X0135735Y0073007D01*
X0135791Y0073046D01*
X0135850Y0073083D01*
X0135911Y0073115D01*
X0135973Y0073145D01*
X0136037Y0073171D01*
X0136102Y0073193D01*
X0136168Y0073212D01*
X0136235Y0073227D01*
X0136303Y0073238D01*
X0136372Y0073246D01*
X0136441Y0073250D01*
X0136509Y0073250D01*
X0136578Y0073246D01*
X0136647Y0073238D01*
X0136715Y0073227D01*
X0136782Y0073212D01*
X0136848Y0073193D01*
X0136913Y0073171D01*
X0136977Y0073145D01*
X0137039Y0073115D01*
X0137100Y0073083D01*
X0137159Y0073046D01*
X0137215Y0073007D01*
X0137270Y0072965D01*
X0137322Y0072920D01*
X0137371Y0072872D01*
X0137418Y0072821D01*
X0137461Y0072768D01*
X0137502Y0072712D01*
X0137540Y0072655D01*
X0137574Y0072595D01*
X0137605Y0072533D01*
X0137633Y0072470D01*
X0137657Y0072406D01*
X0137678Y0072340D01*
X0137695Y0072273D01*
X0137708Y0072206D01*
X0137717Y0072138D01*
X0137723Y0072069D01*
X0137725Y0072000D01*
X0137725Y0070000D01*
X0137723Y0069931D01*
X0137717Y0069862D01*
X0137708Y0069794D01*
X0137695Y0069727D01*
X0137678Y0069660D01*
X0137657Y0069594D01*
X0137633Y0069530D01*
X0137605Y0069467D01*
X0137574Y0069405D01*
X0137540Y0069345D01*
X0137502Y0069288D01*
X0137461Y0069232D01*
X0137418Y0069179D01*
X0137371Y0069128D01*
X0137322Y0069080D01*
X0137270Y0069035D01*
X0137215Y0068993D01*
X0137159Y0068954D01*
X0137100Y0068917D01*
X0137039Y0068885D01*
X0136977Y0068855D01*
X0136913Y0068829D01*
X0136848Y0068807D01*
X0136782Y0068788D01*
X0136715Y0068773D01*
X0136647Y0068762D01*
X0136578Y0068754D01*
X0136509Y0068750D01*
X0136441Y0068750D01*
X0136372Y0068754D01*
X0136303Y0068762D01*
X0136235Y0068773D01*
X0136168Y0068788D01*
X0136102Y0068807D01*
X0136037Y0068829D01*
X0135973Y0068855D01*
X0135911Y0068885D01*
X0135850Y0068917D01*
X0135791Y0068954D01*
X0135735Y0068993D01*
X0135680Y0069035D01*
X0135628Y0069080D01*
X0135579Y0069128D01*
X0135532Y0069179D01*
X0135489Y0069232D01*
X0135448Y0069288D01*
X0135410Y0069345D01*
X0135376Y0069405D01*
X0135345Y0069467D01*
X0135317Y0069530D01*
X0135293Y0069594D01*
X0135272Y0069660D01*
X0135255Y0069727D01*
X0135242Y0069794D01*
X0135233Y0069862D01*
X0135227Y0069931D01*
X0135225Y0070000D01*
X0139425Y0073250D02*
X0141925Y0073250D01*
X0140675Y0073250D02*
X0140675Y0068750D01*
X0143785Y0068750D02*
X0143785Y0073250D01*
X0143785Y0068750D02*
X0145785Y0068750D01*
X0147525Y0070000D02*
X0147525Y0072000D01*
X0147527Y0072069D01*
X0147533Y0072138D01*
X0147542Y0072206D01*
X0147555Y0072273D01*
X0147572Y0072340D01*
X0147593Y0072406D01*
X0147617Y0072470D01*
X0147645Y0072533D01*
X0147676Y0072595D01*
X0147710Y0072655D01*
X0147748Y0072712D01*
X0147789Y0072768D01*
X0147832Y0072821D01*
X0147879Y0072872D01*
X0147928Y0072920D01*
X0147980Y0072965D01*
X0148035Y0073007D01*
X0148091Y0073046D01*
X0148150Y0073083D01*
X0148211Y0073115D01*
X0148273Y0073145D01*
X0148337Y0073171D01*
X0148402Y0073193D01*
X0148468Y0073212D01*
X0148535Y0073227D01*
X0148603Y0073238D01*
X0148672Y0073246D01*
X0148741Y0073250D01*
X0148809Y0073250D01*
X0148878Y0073246D01*
X0148947Y0073238D01*
X0149015Y0073227D01*
X0149082Y0073212D01*
X0149148Y0073193D01*
X0149213Y0073171D01*
X0149277Y0073145D01*
X0149339Y0073115D01*
X0149400Y0073083D01*
X0149459Y0073046D01*
X0149515Y0073007D01*
X0149570Y0072965D01*
X0149622Y0072920D01*
X0149671Y0072872D01*
X0149718Y0072821D01*
X0149761Y0072768D01*
X0149802Y0072712D01*
X0149840Y0072655D01*
X0149874Y0072595D01*
X0149905Y0072533D01*
X0149933Y0072470D01*
X0149957Y0072406D01*
X0149978Y0072340D01*
X0149995Y0072273D01*
X0150008Y0072206D01*
X0150017Y0072138D01*
X0150023Y0072069D01*
X0150025Y0072000D01*
X0150025Y0070000D01*
X0150023Y0069931D01*
X0150017Y0069862D01*
X0150008Y0069794D01*
X0149995Y0069727D01*
X0149978Y0069660D01*
X0149957Y0069594D01*
X0149933Y0069530D01*
X0149905Y0069467D01*
X0149874Y0069405D01*
X0149840Y0069345D01*
X0149802Y0069288D01*
X0149761Y0069232D01*
X0149718Y0069179D01*
X0149671Y0069128D01*
X0149622Y0069080D01*
X0149570Y0069035D01*
X0149515Y0068993D01*
X0149459Y0068954D01*
X0149400Y0068917D01*
X0149339Y0068885D01*
X0149277Y0068855D01*
X0149213Y0068829D01*
X0149148Y0068807D01*
X0149082Y0068788D01*
X0149015Y0068773D01*
X0148947Y0068762D01*
X0148878Y0068754D01*
X0148809Y0068750D01*
X0148741Y0068750D01*
X0148672Y0068754D01*
X0148603Y0068762D01*
X0148535Y0068773D01*
X0148468Y0068788D01*
X0148402Y0068807D01*
X0148337Y0068829D01*
X0148273Y0068855D01*
X0148211Y0068885D01*
X0148150Y0068917D01*
X0148091Y0068954D01*
X0148035Y0068993D01*
X0147980Y0069035D01*
X0147928Y0069080D01*
X0147879Y0069128D01*
X0147832Y0069179D01*
X0147789Y0069232D01*
X0147748Y0069288D01*
X0147710Y0069345D01*
X0147676Y0069405D01*
X0147645Y0069467D01*
X0147617Y0069530D01*
X0147593Y0069594D01*
X0147572Y0069660D01*
X0147555Y0069727D01*
X0147542Y0069794D01*
X0147533Y0069862D01*
X0147527Y0069931D01*
X0147525Y0070000D01*
X0151775Y0068750D02*
X0153275Y0073250D01*
X0154775Y0068750D01*
X0154400Y0069875D02*
X0152150Y0069875D01*
X0156675Y0068750D02*
X0157925Y0068750D01*
X0157993Y0068752D01*
X0158060Y0068757D01*
X0158127Y0068766D01*
X0158194Y0068779D01*
X0158259Y0068796D01*
X0158324Y0068815D01*
X0158388Y0068839D01*
X0158450Y0068866D01*
X0158511Y0068896D01*
X0158569Y0068929D01*
X0158626Y0068965D01*
X0158681Y0069005D01*
X0158734Y0069047D01*
X0158785Y0069093D01*
X0158832Y0069140D01*
X0158878Y0069191D01*
X0158920Y0069244D01*
X0158960Y0069299D01*
X0158996Y0069356D01*
X0159029Y0069414D01*
X0159059Y0069475D01*
X0159086Y0069537D01*
X0159110Y0069601D01*
X0159129Y0069666D01*
X0159146Y0069731D01*
X0159159Y0069798D01*
X0159168Y0069865D01*
X0159173Y0069932D01*
X0159175Y0070000D01*
X0159175Y0072000D01*
X0159173Y0072068D01*
X0159168Y0072135D01*
X0159159Y0072202D01*
X0159146Y0072269D01*
X0159129Y0072334D01*
X0159110Y0072399D01*
X0159086Y0072463D01*
X0159059Y0072525D01*
X0159029Y0072586D01*
X0158996Y0072644D01*
X0158960Y0072701D01*
X0158920Y0072756D01*
X0158878Y0072809D01*
X0158832Y0072860D01*
X0158785Y0072907D01*
X0158734Y0072953D01*
X0158681Y0072995D01*
X0158626Y0073035D01*
X0158569Y0073071D01*
X0158511Y0073104D01*
X0158450Y0073134D01*
X0158388Y0073161D01*
X0158324Y0073185D01*
X0158259Y0073204D01*
X0158194Y0073221D01*
X0158127Y0073234D01*
X0158060Y0073243D01*
X0157993Y0073248D01*
X0157925Y0073250D01*
X0156675Y0073250D01*
X0156675Y0068750D01*
X0161485Y0068750D02*
X0161485Y0073250D01*
X0163485Y0073250D01*
X0165408Y0073250D02*
X0165408Y0068750D01*
X0163485Y0068750D02*
X0161485Y0068750D01*
X0161485Y0071250D02*
X0162985Y0071250D01*
X0165408Y0070750D02*
X0166658Y0070750D01*
X0166908Y0070750D02*
X0167908Y0068750D01*
X0166658Y0070750D02*
X0166727Y0070752D01*
X0166796Y0070758D01*
X0166864Y0070767D01*
X0166931Y0070780D01*
X0166998Y0070797D01*
X0167064Y0070818D01*
X0167128Y0070842D01*
X0167191Y0070870D01*
X0167253Y0070901D01*
X0167313Y0070935D01*
X0167370Y0070973D01*
X0167426Y0071014D01*
X0167479Y0071057D01*
X0167530Y0071104D01*
X0167578Y0071153D01*
X0167623Y0071205D01*
X0167665Y0071260D01*
X0167704Y0071316D01*
X0167741Y0071375D01*
X0167773Y0071436D01*
X0167803Y0071498D01*
X0167829Y0071562D01*
X0167851Y0071627D01*
X0167870Y0071693D01*
X0167885Y0071760D01*
X0167896Y0071828D01*
X0167904Y0071897D01*
X0167908Y0071966D01*
X0167908Y0072034D01*
X0167904Y0072103D01*
X0167896Y0072172D01*
X0167885Y0072240D01*
X0167870Y0072307D01*
X0167851Y0072373D01*
X0167829Y0072438D01*
X0167803Y0072502D01*
X0167773Y0072564D01*
X0167741Y0072625D01*
X0167704Y0072684D01*
X0167665Y0072740D01*
X0167623Y0072795D01*
X0167578Y0072847D01*
X0167530Y0072896D01*
X0167479Y0072943D01*
X0167426Y0072986D01*
X0167370Y0073027D01*
X0167313Y0073065D01*
X0167253Y0073099D01*
X0167191Y0073130D01*
X0167128Y0073158D01*
X0167064Y0073182D01*
X0166998Y0073203D01*
X0166931Y0073220D01*
X0166864Y0073233D01*
X0166796Y0073242D01*
X0166727Y0073248D01*
X0166658Y0073250D01*
X0165408Y0073250D01*
X0167184Y0100591D02*
X0115216Y0100591D01*
X0115216Y0149409D01*
X0167184Y0149409D01*
X0167184Y0100591D01*
X0129389Y0125000D02*
X0129393Y0125290D01*
X0129403Y0125580D01*
X0129421Y0125869D01*
X0129446Y0126158D01*
X0129478Y0126446D01*
X0129517Y0126733D01*
X0129563Y0127019D01*
X0129616Y0127304D01*
X0129676Y0127588D01*
X0129743Y0127870D01*
X0129817Y0128150D01*
X0129898Y0128429D01*
X0129985Y0128705D01*
X0130079Y0128979D01*
X0130180Y0129251D01*
X0130288Y0129520D01*
X0130402Y0129786D01*
X0130523Y0130050D01*
X0130650Y0130310D01*
X0130784Y0130568D01*
X0130923Y0130822D01*
X0131069Y0131072D01*
X0131221Y0131319D01*
X0131380Y0131562D01*
X0131544Y0131801D01*
X0131713Y0132036D01*
X0131889Y0132267D01*
X0132070Y0132493D01*
X0132257Y0132715D01*
X0132449Y0132932D01*
X0132646Y0133144D01*
X0132848Y0133352D01*
X0133056Y0133554D01*
X0133268Y0133751D01*
X0133485Y0133943D01*
X0133707Y0134130D01*
X0133933Y0134311D01*
X0134164Y0134487D01*
X0134399Y0134656D01*
X0134638Y0134820D01*
X0134881Y0134979D01*
X0135128Y0135131D01*
X0135378Y0135277D01*
X0135632Y0135416D01*
X0135890Y0135550D01*
X0136150Y0135677D01*
X0136414Y0135798D01*
X0136680Y0135912D01*
X0136949Y0136020D01*
X0137221Y0136121D01*
X0137495Y0136215D01*
X0137771Y0136302D01*
X0138050Y0136383D01*
X0138330Y0136457D01*
X0138612Y0136524D01*
X0138896Y0136584D01*
X0139181Y0136637D01*
X0139467Y0136683D01*
X0139754Y0136722D01*
X0140042Y0136754D01*
X0140331Y0136779D01*
X0140620Y0136797D01*
X0140910Y0136807D01*
X0141200Y0136811D01*
X0141490Y0136807D01*
X0141780Y0136797D01*
X0142069Y0136779D01*
X0142358Y0136754D01*
X0142646Y0136722D01*
X0142933Y0136683D01*
X0143219Y0136637D01*
X0143504Y0136584D01*
X0143788Y0136524D01*
X0144070Y0136457D01*
X0144350Y0136383D01*
X0144629Y0136302D01*
X0144905Y0136215D01*
X0145179Y0136121D01*
X0145451Y0136020D01*
X0145720Y0135912D01*
X0145986Y0135798D01*
X0146250Y0135677D01*
X0146510Y0135550D01*
X0146768Y0135416D01*
X0147022Y0135277D01*
X0147272Y0135131D01*
X0147519Y0134979D01*
X0147762Y0134820D01*
X0148001Y0134656D01*
X0148236Y0134487D01*
X0148467Y0134311D01*
X0148693Y0134130D01*
X0148915Y0133943D01*
X0149132Y0133751D01*
X0149344Y0133554D01*
X0149552Y0133352D01*
X0149754Y0133144D01*
X0149951Y0132932D01*
X0150143Y0132715D01*
X0150330Y0132493D01*
X0150511Y0132267D01*
X0150687Y0132036D01*
X0150856Y0131801D01*
X0151020Y0131562D01*
X0151179Y0131319D01*
X0151331Y0131072D01*
X0151477Y0130822D01*
X0151616Y0130568D01*
X0151750Y0130310D01*
X0151877Y0130050D01*
X0151998Y0129786D01*
X0152112Y0129520D01*
X0152220Y0129251D01*
X0152321Y0128979D01*
X0152415Y0128705D01*
X0152502Y0128429D01*
X0152583Y0128150D01*
X0152657Y0127870D01*
X0152724Y0127588D01*
X0152784Y0127304D01*
X0152837Y0127019D01*
X0152883Y0126733D01*
X0152922Y0126446D01*
X0152954Y0126158D01*
X0152979Y0125869D01*
X0152997Y0125580D01*
X0153007Y0125290D01*
X0153011Y0125000D01*
X0153007Y0124710D01*
X0152997Y0124420D01*
X0152979Y0124131D01*
X0152954Y0123842D01*
X0152922Y0123554D01*
X0152883Y0123267D01*
X0152837Y0122981D01*
X0152784Y0122696D01*
X0152724Y0122412D01*
X0152657Y0122130D01*
X0152583Y0121850D01*
X0152502Y0121571D01*
X0152415Y0121295D01*
X0152321Y0121021D01*
X0152220Y0120749D01*
X0152112Y0120480D01*
X0151998Y0120214D01*
X0151877Y0119950D01*
X0151750Y0119690D01*
X0151616Y0119432D01*
X0151477Y0119178D01*
X0151331Y0118928D01*
X0151179Y0118681D01*
X0151020Y0118438D01*
X0150856Y0118199D01*
X0150687Y0117964D01*
X0150511Y0117733D01*
X0150330Y0117507D01*
X0150143Y0117285D01*
X0149951Y0117068D01*
X0149754Y0116856D01*
X0149552Y0116648D01*
X0149344Y0116446D01*
X0149132Y0116249D01*
X0148915Y0116057D01*
X0148693Y0115870D01*
X0148467Y0115689D01*
X0148236Y0115513D01*
X0148001Y0115344D01*
X0147762Y0115180D01*
X0147519Y0115021D01*
X0147272Y0114869D01*
X0147022Y0114723D01*
X0146768Y0114584D01*
X0146510Y0114450D01*
X0146250Y0114323D01*
X0145986Y0114202D01*
X0145720Y0114088D01*
X0145451Y0113980D01*
X0145179Y0113879D01*
X0144905Y0113785D01*
X0144629Y0113698D01*
X0144350Y0113617D01*
X0144070Y0113543D01*
X0143788Y0113476D01*
X0143504Y0113416D01*
X0143219Y0113363D01*
X0142933Y0113317D01*
X0142646Y0113278D01*
X0142358Y0113246D01*
X0142069Y0113221D01*
X0141780Y0113203D01*
X0141490Y0113193D01*
X0141200Y0113189D01*
X0140910Y0113193D01*
X0140620Y0113203D01*
X0140331Y0113221D01*
X0140042Y0113246D01*
X0139754Y0113278D01*
X0139467Y0113317D01*
X0139181Y0113363D01*
X0138896Y0113416D01*
X0138612Y0113476D01*
X0138330Y0113543D01*
X0138050Y0113617D01*
X0137771Y0113698D01*
X0137495Y0113785D01*
X0137221Y0113879D01*
X0136949Y0113980D01*
X0136680Y0114088D01*
X0136414Y0114202D01*
X0136150Y0114323D01*
X0135890Y0114450D01*
X0135632Y0114584D01*
X0135378Y0114723D01*
X0135128Y0114869D01*
X0134881Y0115021D01*
X0134638Y0115180D01*
X0134399Y0115344D01*
X0134164Y0115513D01*
X0133933Y0115689D01*
X0133707Y0115870D01*
X0133485Y0116057D01*
X0133268Y0116249D01*
X0133056Y0116446D01*
X0132848Y0116648D01*
X0132646Y0116856D01*
X0132449Y0117068D01*
X0132257Y0117285D01*
X0132070Y0117507D01*
X0131889Y0117733D01*
X0131713Y0117964D01*
X0131544Y0118199D01*
X0131380Y0118438D01*
X0131221Y0118681D01*
X0131069Y0118928D01*
X0130923Y0119178D01*
X0130784Y0119432D01*
X0130650Y0119690D01*
X0130523Y0119950D01*
X0130402Y0120214D01*
X0130288Y0120480D01*
X0130180Y0120749D01*
X0130079Y0121021D01*
X0129985Y0121295D01*
X0129898Y0121571D01*
X0129817Y0121850D01*
X0129743Y0122130D01*
X0129676Y0122412D01*
X0129616Y0122696D01*
X0129563Y0122981D01*
X0129517Y0123267D01*
X0129478Y0123554D01*
X0129446Y0123842D01*
X0129421Y0124131D01*
X0129403Y0124420D01*
X0129393Y0124710D01*
X0129389Y0125000D01*
X0135294Y0114764D02*
X0135294Y0135236D01*
X0115975Y0096950D02*
X0113475Y0094200D01*
X0114475Y0095200D02*
X0115975Y0092450D01*
X0113475Y0092450D02*
X0113475Y0096950D01*
X0111485Y0096950D02*
X0110485Y0096950D01*
X0110425Y0096948D01*
X0110364Y0096943D01*
X0110305Y0096934D01*
X0110246Y0096921D01*
X0110187Y0096905D01*
X0110130Y0096885D01*
X0110075Y0096862D01*
X0110020Y0096835D01*
X0109968Y0096806D01*
X0109917Y0096773D01*
X0109868Y0096737D01*
X0109822Y0096699D01*
X0109778Y0096657D01*
X0109736Y0096613D01*
X0109698Y0096567D01*
X0109662Y0096518D01*
X0109629Y0096467D01*
X0109600Y0096415D01*
X0109573Y0096360D01*
X0109550Y0096305D01*
X0109530Y0096248D01*
X0109514Y0096189D01*
X0109501Y0096130D01*
X0109492Y0096071D01*
X0109487Y0096010D01*
X0109485Y0095950D01*
X0109485Y0093450D01*
X0109487Y0093390D01*
X0109492Y0093329D01*
X0109501Y0093270D01*
X0109514Y0093211D01*
X0109530Y0093152D01*
X0109550Y0093095D01*
X0109573Y0093040D01*
X0109600Y0092985D01*
X0109629Y0092933D01*
X0109662Y0092882D01*
X0109698Y0092833D01*
X0109736Y0092787D01*
X0109778Y0092743D01*
X0109822Y0092701D01*
X0109868Y0092663D01*
X0109917Y0092627D01*
X0109968Y0092594D01*
X0110020Y0092565D01*
X0110075Y0092538D01*
X0110130Y0092515D01*
X0110187Y0092495D01*
X0110246Y0092479D01*
X0110305Y0092466D01*
X0110364Y0092457D01*
X0110425Y0092452D01*
X0110485Y0092450D01*
X0111485Y0092450D01*
X0107150Y0094325D02*
X0105775Y0095075D01*
X0106275Y0096950D02*
X0106355Y0096948D01*
X0106436Y0096943D01*
X0106516Y0096934D01*
X0106595Y0096922D01*
X0106674Y0096907D01*
X0106752Y0096888D01*
X0106830Y0096866D01*
X0106906Y0096841D01*
X0106981Y0096812D01*
X0107055Y0096780D01*
X0107127Y0096745D01*
X0107198Y0096707D01*
X0107267Y0096666D01*
X0107335Y0096622D01*
X0107400Y0096575D01*
X0105775Y0095075D02*
X0105723Y0095108D01*
X0105672Y0095144D01*
X0105624Y0095183D01*
X0105579Y0095225D01*
X0105536Y0095270D01*
X0105496Y0095318D01*
X0105459Y0095367D01*
X0105425Y0095419D01*
X0105394Y0095473D01*
X0105366Y0095529D01*
X0105342Y0095586D01*
X0105322Y0095645D01*
X0105305Y0095704D01*
X0105292Y0095765D01*
X0105283Y0095826D01*
X0105277Y0095888D01*
X0105275Y0095950D01*
X0105277Y0096010D01*
X0105282Y0096071D01*
X0105291Y0096130D01*
X0105304Y0096189D01*
X0105320Y0096248D01*
X0105340Y0096305D01*
X0105363Y0096360D01*
X0105390Y0096415D01*
X0105419Y0096467D01*
X0105452Y0096518D01*
X0105488Y0096567D01*
X0105526Y0096613D01*
X0105568Y0096657D01*
X0105612Y0096699D01*
X0105658Y0096737D01*
X0105707Y0096773D01*
X0105758Y0096806D01*
X0105810Y0096835D01*
X0105865Y0096862D01*
X0105920Y0096885D01*
X0105977Y0096905D01*
X0106036Y0096921D01*
X0106095Y0096934D01*
X0106154Y0096943D01*
X0106215Y0096948D01*
X0106275Y0096950D01*
X0105150Y0093074D02*
X0105213Y0093013D01*
X0105278Y0092955D01*
X0105346Y0092899D01*
X0105417Y0092846D01*
X0105489Y0092797D01*
X0105563Y0092750D01*
X0105639Y0092706D01*
X0105717Y0092666D01*
X0105797Y0092629D01*
X0105878Y0092595D01*
X0105960Y0092565D01*
X0106044Y0092538D01*
X0106129Y0092514D01*
X0106214Y0092494D01*
X0106300Y0092478D01*
X0106387Y0092465D01*
X0106475Y0092456D01*
X0106562Y0092451D01*
X0106650Y0092449D01*
X0106650Y0092450D02*
X0106710Y0092452D01*
X0106771Y0092457D01*
X0106830Y0092466D01*
X0106889Y0092479D01*
X0106948Y0092495D01*
X0107005Y0092515D01*
X0107060Y0092538D01*
X0107115Y0092565D01*
X0107167Y0092594D01*
X0107218Y0092627D01*
X0107267Y0092663D01*
X0107313Y0092701D01*
X0107357Y0092743D01*
X0107399Y0092787D01*
X0107437Y0092833D01*
X0107473Y0092882D01*
X0107506Y0092933D01*
X0107535Y0092985D01*
X0107562Y0093040D01*
X0107585Y0093095D01*
X0107605Y0093152D01*
X0107621Y0093211D01*
X0107634Y0093270D01*
X0107643Y0093329D01*
X0107648Y0093390D01*
X0107650Y0093450D01*
X0107648Y0093512D01*
X0107642Y0093574D01*
X0107633Y0093635D01*
X0107620Y0093696D01*
X0107603Y0093755D01*
X0107583Y0093814D01*
X0107559Y0093871D01*
X0107531Y0093927D01*
X0107500Y0093981D01*
X0107466Y0094033D01*
X0107429Y0094082D01*
X0107389Y0094130D01*
X0107346Y0094175D01*
X0107301Y0094217D01*
X0107253Y0094256D01*
X0107202Y0094292D01*
X0107150Y0094325D01*
X0108150Y0086950D02*
X0108150Y0082450D01*
X0110200Y0082450D02*
X0111200Y0082450D01*
X0110700Y0082450D02*
X0110700Y0086950D01*
X0110200Y0086950D02*
X0111200Y0086950D01*
X0113525Y0085075D02*
X0114900Y0084325D01*
X0114400Y0082450D02*
X0114312Y0082452D01*
X0114225Y0082457D01*
X0114137Y0082466D01*
X0114050Y0082479D01*
X0113964Y0082495D01*
X0113879Y0082515D01*
X0113794Y0082539D01*
X0113710Y0082566D01*
X0113628Y0082596D01*
X0113547Y0082630D01*
X0113467Y0082667D01*
X0113389Y0082707D01*
X0113313Y0082751D01*
X0113239Y0082798D01*
X0113167Y0082847D01*
X0113096Y0082900D01*
X0113028Y0082956D01*
X0112963Y0083014D01*
X0112900Y0083075D01*
X0114900Y0084325D02*
X0114952Y0084292D01*
X0115003Y0084256D01*
X0115051Y0084217D01*
X0115096Y0084175D01*
X0115139Y0084130D01*
X0115179Y0084082D01*
X0115216Y0084033D01*
X0115250Y0083981D01*
X0115281Y0083927D01*
X0115309Y0083871D01*
X0115333Y0083814D01*
X0115353Y0083755D01*
X0115370Y0083696D01*
X0115383Y0083635D01*
X0115392Y0083574D01*
X0115398Y0083512D01*
X0115400Y0083450D01*
X0115398Y0083390D01*
X0115393Y0083329D01*
X0115384Y0083270D01*
X0115371Y0083211D01*
X0115355Y0083152D01*
X0115335Y0083095D01*
X0115312Y0083040D01*
X0115285Y0082985D01*
X0115256Y0082933D01*
X0115223Y0082882D01*
X0115187Y0082833D01*
X0115149Y0082787D01*
X0115107Y0082743D01*
X0115063Y0082701D01*
X0115017Y0082663D01*
X0114968Y0082627D01*
X0114917Y0082594D01*
X0114865Y0082565D01*
X0114810Y0082538D01*
X0114755Y0082515D01*
X0114698Y0082495D01*
X0114639Y0082479D01*
X0114580Y0082466D01*
X0114521Y0082457D01*
X0114460Y0082452D01*
X0114400Y0082450D01*
X0115150Y0086575D02*
X0115085Y0086622D01*
X0115017Y0086666D01*
X0114948Y0086707D01*
X0114877Y0086745D01*
X0114805Y0086780D01*
X0114731Y0086812D01*
X0114656Y0086841D01*
X0114580Y0086866D01*
X0114502Y0086888D01*
X0114424Y0086907D01*
X0114345Y0086922D01*
X0114266Y0086934D01*
X0114186Y0086943D01*
X0114105Y0086948D01*
X0114025Y0086950D01*
X0113965Y0086948D01*
X0113904Y0086943D01*
X0113845Y0086934D01*
X0113786Y0086921D01*
X0113727Y0086905D01*
X0113670Y0086885D01*
X0113615Y0086862D01*
X0113560Y0086835D01*
X0113508Y0086806D01*
X0113457Y0086773D01*
X0113408Y0086737D01*
X0113362Y0086699D01*
X0113318Y0086657D01*
X0113276Y0086613D01*
X0113238Y0086567D01*
X0113202Y0086518D01*
X0113169Y0086467D01*
X0113140Y0086415D01*
X0113113Y0086360D01*
X0113090Y0086305D01*
X0113070Y0086248D01*
X0113054Y0086189D01*
X0113041Y0086130D01*
X0113032Y0086071D01*
X0113027Y0086010D01*
X0113025Y0085950D01*
X0113027Y0085888D01*
X0113033Y0085826D01*
X0113042Y0085765D01*
X0113055Y0085704D01*
X0113072Y0085645D01*
X0113092Y0085586D01*
X0113116Y0085529D01*
X0113144Y0085473D01*
X0113175Y0085419D01*
X0113209Y0085367D01*
X0113246Y0085318D01*
X0113286Y0085270D01*
X0113329Y0085225D01*
X0113374Y0085183D01*
X0113422Y0085144D01*
X0113473Y0085108D01*
X0113525Y0085075D01*
X0117250Y0085700D02*
X0117250Y0083700D01*
X0117252Y0083631D01*
X0117258Y0083562D01*
X0117267Y0083494D01*
X0117280Y0083427D01*
X0117297Y0083360D01*
X0117318Y0083294D01*
X0117342Y0083230D01*
X0117370Y0083167D01*
X0117401Y0083105D01*
X0117435Y0083045D01*
X0117473Y0082988D01*
X0117514Y0082932D01*
X0117557Y0082879D01*
X0117604Y0082828D01*
X0117653Y0082780D01*
X0117705Y0082735D01*
X0117760Y0082693D01*
X0117816Y0082654D01*
X0117875Y0082617D01*
X0117936Y0082585D01*
X0117998Y0082555D01*
X0118062Y0082529D01*
X0118127Y0082507D01*
X0118193Y0082488D01*
X0118260Y0082473D01*
X0118328Y0082462D01*
X0118397Y0082454D01*
X0118466Y0082450D01*
X0118534Y0082450D01*
X0118603Y0082454D01*
X0118672Y0082462D01*
X0118740Y0082473D01*
X0118807Y0082488D01*
X0118873Y0082507D01*
X0118938Y0082529D01*
X0119002Y0082555D01*
X0119064Y0082585D01*
X0119125Y0082617D01*
X0119184Y0082654D01*
X0119240Y0082693D01*
X0119295Y0082735D01*
X0119347Y0082780D01*
X0119396Y0082828D01*
X0119443Y0082879D01*
X0119486Y0082932D01*
X0119527Y0082988D01*
X0119565Y0083045D01*
X0119599Y0083105D01*
X0119630Y0083167D01*
X0119658Y0083230D01*
X0119682Y0083294D01*
X0119703Y0083360D01*
X0119720Y0083427D01*
X0119733Y0083494D01*
X0119742Y0083562D01*
X0119748Y0083631D01*
X0119750Y0083700D01*
X0119750Y0085700D01*
X0119748Y0085769D01*
X0119742Y0085838D01*
X0119733Y0085906D01*
X0119720Y0085973D01*
X0119703Y0086040D01*
X0119682Y0086106D01*
X0119658Y0086170D01*
X0119630Y0086233D01*
X0119599Y0086295D01*
X0119565Y0086355D01*
X0119527Y0086412D01*
X0119486Y0086468D01*
X0119443Y0086521D01*
X0119396Y0086572D01*
X0119347Y0086620D01*
X0119295Y0086665D01*
X0119240Y0086707D01*
X0119184Y0086746D01*
X0119125Y0086783D01*
X0119064Y0086815D01*
X0119002Y0086845D01*
X0118938Y0086871D01*
X0118873Y0086893D01*
X0118807Y0086912D01*
X0118740Y0086927D01*
X0118672Y0086938D01*
X0118603Y0086946D01*
X0118534Y0086950D01*
X0118466Y0086950D01*
X0118397Y0086946D01*
X0118328Y0086938D01*
X0118260Y0086927D01*
X0118193Y0086912D01*
X0118127Y0086893D01*
X0118062Y0086871D01*
X0117998Y0086845D01*
X0117936Y0086815D01*
X0117875Y0086783D01*
X0117816Y0086746D01*
X0117760Y0086707D01*
X0117705Y0086665D01*
X0117653Y0086620D01*
X0117604Y0086572D01*
X0117557Y0086521D01*
X0117514Y0086468D01*
X0117473Y0086412D01*
X0117435Y0086355D01*
X0117401Y0086295D01*
X0117370Y0086233D01*
X0117342Y0086170D01*
X0117318Y0086106D01*
X0117297Y0086040D01*
X0117280Y0085973D01*
X0117267Y0085906D01*
X0117258Y0085838D01*
X0117252Y0085769D01*
X0117250Y0085700D01*
X0118900Y0076950D02*
X0119900Y0076950D01*
X0119400Y0076950D02*
X0119400Y0072450D01*
X0118900Y0072450D02*
X0119900Y0072450D01*
X0116700Y0074325D02*
X0115325Y0075075D01*
X0115825Y0076950D02*
X0115905Y0076948D01*
X0115986Y0076943D01*
X0116066Y0076934D01*
X0116145Y0076922D01*
X0116224Y0076907D01*
X0116302Y0076888D01*
X0116380Y0076866D01*
X0116456Y0076841D01*
X0116531Y0076812D01*
X0116605Y0076780D01*
X0116677Y0076745D01*
X0116748Y0076707D01*
X0116817Y0076666D01*
X0116885Y0076622D01*
X0116950Y0076575D01*
X0115325Y0075075D02*
X0115273Y0075108D01*
X0115222Y0075144D01*
X0115174Y0075183D01*
X0115129Y0075225D01*
X0115086Y0075270D01*
X0115046Y0075318D01*
X0115009Y0075367D01*
X0114975Y0075419D01*
X0114944Y0075473D01*
X0114916Y0075529D01*
X0114892Y0075586D01*
X0114872Y0075645D01*
X0114855Y0075704D01*
X0114842Y0075765D01*
X0114833Y0075826D01*
X0114827Y0075888D01*
X0114825Y0075950D01*
X0114827Y0076010D01*
X0114832Y0076071D01*
X0114841Y0076130D01*
X0114854Y0076189D01*
X0114870Y0076248D01*
X0114890Y0076305D01*
X0114913Y0076360D01*
X0114940Y0076415D01*
X0114969Y0076467D01*
X0115002Y0076518D01*
X0115038Y0076567D01*
X0115076Y0076613D01*
X0115118Y0076657D01*
X0115162Y0076699D01*
X0115208Y0076737D01*
X0115257Y0076773D01*
X0115308Y0076806D01*
X0115360Y0076835D01*
X0115415Y0076862D01*
X0115470Y0076885D01*
X0115527Y0076905D01*
X0115586Y0076921D01*
X0115645Y0076934D01*
X0115704Y0076943D01*
X0115765Y0076948D01*
X0115825Y0076950D01*
X0114700Y0073075D02*
X0114763Y0073014D01*
X0114828Y0072956D01*
X0114896Y0072900D01*
X0114967Y0072847D01*
X0115039Y0072798D01*
X0115113Y0072751D01*
X0115189Y0072707D01*
X0115267Y0072667D01*
X0115347Y0072630D01*
X0115428Y0072596D01*
X0115510Y0072566D01*
X0115594Y0072539D01*
X0115679Y0072515D01*
X0115764Y0072495D01*
X0115850Y0072479D01*
X0115937Y0072466D01*
X0116025Y0072457D01*
X0116112Y0072452D01*
X0116200Y0072450D01*
X0116260Y0072452D01*
X0116321Y0072457D01*
X0116380Y0072466D01*
X0116439Y0072479D01*
X0116498Y0072495D01*
X0116555Y0072515D01*
X0116610Y0072538D01*
X0116665Y0072565D01*
X0116717Y0072594D01*
X0116768Y0072627D01*
X0116817Y0072663D01*
X0116863Y0072701D01*
X0116907Y0072743D01*
X0116949Y0072787D01*
X0116987Y0072833D01*
X0117023Y0072882D01*
X0117056Y0072933D01*
X0117085Y0072985D01*
X0117112Y0073040D01*
X0117135Y0073095D01*
X0117155Y0073152D01*
X0117171Y0073211D01*
X0117184Y0073270D01*
X0117193Y0073329D01*
X0117198Y0073390D01*
X0117200Y0073450D01*
X0117198Y0073512D01*
X0117192Y0073574D01*
X0117183Y0073635D01*
X0117170Y0073696D01*
X0117153Y0073755D01*
X0117133Y0073814D01*
X0117109Y0073871D01*
X0117081Y0073927D01*
X0117050Y0073981D01*
X0117016Y0074033D01*
X0116979Y0074082D01*
X0116939Y0074130D01*
X0116896Y0074175D01*
X0116851Y0074217D01*
X0116803Y0074256D01*
X0116752Y0074292D01*
X0116700Y0074325D01*
X0112850Y0073700D02*
X0112850Y0075700D01*
X0112848Y0075769D01*
X0112842Y0075838D01*
X0112833Y0075906D01*
X0112820Y0075973D01*
X0112803Y0076040D01*
X0112782Y0076106D01*
X0112758Y0076170D01*
X0112730Y0076233D01*
X0112699Y0076295D01*
X0112665Y0076355D01*
X0112627Y0076412D01*
X0112586Y0076468D01*
X0112543Y0076521D01*
X0112496Y0076572D01*
X0112447Y0076620D01*
X0112395Y0076665D01*
X0112340Y0076707D01*
X0112284Y0076746D01*
X0112225Y0076783D01*
X0112164Y0076815D01*
X0112102Y0076845D01*
X0112038Y0076871D01*
X0111973Y0076893D01*
X0111907Y0076912D01*
X0111840Y0076927D01*
X0111772Y0076938D01*
X0111703Y0076946D01*
X0111634Y0076950D01*
X0111566Y0076950D01*
X0111497Y0076946D01*
X0111428Y0076938D01*
X0111360Y0076927D01*
X0111293Y0076912D01*
X0111227Y0076893D01*
X0111162Y0076871D01*
X0111098Y0076845D01*
X0111036Y0076815D01*
X0110975Y0076783D01*
X0110916Y0076746D01*
X0110860Y0076707D01*
X0110805Y0076665D01*
X0110753Y0076620D01*
X0110704Y0076572D01*
X0110657Y0076521D01*
X0110614Y0076468D01*
X0110573Y0076412D01*
X0110535Y0076355D01*
X0110501Y0076295D01*
X0110470Y0076233D01*
X0110442Y0076170D01*
X0110418Y0076106D01*
X0110397Y0076040D01*
X0110380Y0075973D01*
X0110367Y0075906D01*
X0110358Y0075838D01*
X0110352Y0075769D01*
X0110350Y0075700D01*
X0110350Y0073700D01*
X0110352Y0073631D01*
X0110358Y0073562D01*
X0110367Y0073494D01*
X0110380Y0073427D01*
X0110397Y0073360D01*
X0110418Y0073294D01*
X0110442Y0073230D01*
X0110470Y0073167D01*
X0110501Y0073105D01*
X0110535Y0073045D01*
X0110573Y0072988D01*
X0110614Y0072932D01*
X0110657Y0072879D01*
X0110704Y0072828D01*
X0110753Y0072780D01*
X0110805Y0072735D01*
X0110860Y0072693D01*
X0110916Y0072654D01*
X0110975Y0072617D01*
X0111036Y0072585D01*
X0111098Y0072555D01*
X0111162Y0072529D01*
X0111227Y0072507D01*
X0111293Y0072488D01*
X0111360Y0072473D01*
X0111428Y0072462D01*
X0111497Y0072454D01*
X0111566Y0072450D01*
X0111634Y0072450D01*
X0111703Y0072454D01*
X0111772Y0072462D01*
X0111840Y0072473D01*
X0111907Y0072488D01*
X0111973Y0072507D01*
X0112038Y0072529D01*
X0112102Y0072555D01*
X0112164Y0072585D01*
X0112225Y0072617D01*
X0112284Y0072654D01*
X0112340Y0072693D01*
X0112395Y0072735D01*
X0112447Y0072780D01*
X0112496Y0072828D01*
X0112543Y0072879D01*
X0112586Y0072932D01*
X0112627Y0072988D01*
X0112665Y0073045D01*
X0112699Y0073105D01*
X0112730Y0073167D01*
X0112758Y0073230D01*
X0112782Y0073294D01*
X0112803Y0073360D01*
X0112820Y0073427D01*
X0112833Y0073494D01*
X0112842Y0073562D01*
X0112848Y0073631D01*
X0112850Y0073700D01*
X0108150Y0072450D02*
X0108150Y0076950D01*
X0106650Y0074450D01*
X0105150Y0076950D01*
X0105150Y0072450D01*
X0106275Y0066950D02*
X0106215Y0066948D01*
X0106154Y0066943D01*
X0106095Y0066934D01*
X0106036Y0066921D01*
X0105977Y0066905D01*
X0105920Y0066885D01*
X0105865Y0066862D01*
X0105810Y0066835D01*
X0105758Y0066806D01*
X0105707Y0066773D01*
X0105658Y0066737D01*
X0105612Y0066699D01*
X0105568Y0066657D01*
X0105526Y0066613D01*
X0105488Y0066567D01*
X0105452Y0066518D01*
X0105419Y0066467D01*
X0105390Y0066415D01*
X0105363Y0066360D01*
X0105340Y0066305D01*
X0105320Y0066248D01*
X0105304Y0066189D01*
X0105291Y0066130D01*
X0105282Y0066071D01*
X0105277Y0066010D01*
X0105275Y0065950D01*
X0105775Y0065075D02*
X0107150Y0064325D01*
X0106650Y0062449D02*
X0106562Y0062451D01*
X0106475Y0062456D01*
X0106387Y0062465D01*
X0106300Y0062478D01*
X0106214Y0062494D01*
X0106129Y0062514D01*
X0106044Y0062538D01*
X0105960Y0062565D01*
X0105878Y0062595D01*
X0105797Y0062629D01*
X0105717Y0062666D01*
X0105639Y0062706D01*
X0105563Y0062750D01*
X0105489Y0062797D01*
X0105417Y0062846D01*
X0105346Y0062899D01*
X0105278Y0062955D01*
X0105213Y0063013D01*
X0105150Y0063074D01*
X0107150Y0064325D02*
X0107202Y0064292D01*
X0107253Y0064256D01*
X0107301Y0064217D01*
X0107346Y0064175D01*
X0107389Y0064130D01*
X0107429Y0064082D01*
X0107466Y0064033D01*
X0107500Y0063981D01*
X0107531Y0063927D01*
X0107559Y0063871D01*
X0107583Y0063814D01*
X0107603Y0063755D01*
X0107620Y0063696D01*
X0107633Y0063635D01*
X0107642Y0063574D01*
X0107648Y0063512D01*
X0107650Y0063450D01*
X0107648Y0063390D01*
X0107643Y0063329D01*
X0107634Y0063270D01*
X0107621Y0063211D01*
X0107605Y0063152D01*
X0107585Y0063095D01*
X0107562Y0063040D01*
X0107535Y0062985D01*
X0107506Y0062933D01*
X0107473Y0062882D01*
X0107437Y0062833D01*
X0107399Y0062787D01*
X0107357Y0062743D01*
X0107313Y0062701D01*
X0107267Y0062663D01*
X0107218Y0062627D01*
X0107167Y0062594D01*
X0107115Y0062565D01*
X0107060Y0062538D01*
X0107005Y0062515D01*
X0106948Y0062495D01*
X0106889Y0062479D01*
X0106830Y0062466D01*
X0106771Y0062457D01*
X0106710Y0062452D01*
X0106650Y0062450D01*
X0107400Y0066575D02*
X0107335Y0066622D01*
X0107267Y0066666D01*
X0107198Y0066707D01*
X0107127Y0066745D01*
X0107055Y0066780D01*
X0106981Y0066812D01*
X0106906Y0066841D01*
X0106830Y0066866D01*
X0106752Y0066888D01*
X0106674Y0066907D01*
X0106595Y0066922D01*
X0106516Y0066934D01*
X0106436Y0066943D01*
X0106355Y0066948D01*
X0106275Y0066950D01*
X0105275Y0065950D02*
X0105277Y0065888D01*
X0105283Y0065826D01*
X0105292Y0065765D01*
X0105305Y0065704D01*
X0105322Y0065645D01*
X0105342Y0065586D01*
X0105366Y0065529D01*
X0105394Y0065473D01*
X0105425Y0065419D01*
X0105459Y0065367D01*
X0105496Y0065318D01*
X0105536Y0065270D01*
X0105579Y0065225D01*
X0105624Y0065183D01*
X0105672Y0065144D01*
X0105723Y0065108D01*
X0105775Y0065075D01*
X0109975Y0065075D02*
X0111350Y0064325D01*
X0110850Y0062449D02*
X0110762Y0062451D01*
X0110675Y0062456D01*
X0110587Y0062465D01*
X0110500Y0062478D01*
X0110414Y0062494D01*
X0110329Y0062514D01*
X0110244Y0062538D01*
X0110160Y0062565D01*
X0110078Y0062595D01*
X0109997Y0062629D01*
X0109917Y0062666D01*
X0109839Y0062706D01*
X0109763Y0062750D01*
X0109689Y0062797D01*
X0109617Y0062846D01*
X0109546Y0062899D01*
X0109478Y0062955D01*
X0109413Y0063013D01*
X0109350Y0063074D01*
X0111350Y0064325D02*
X0111402Y0064292D01*
X0111453Y0064256D01*
X0111501Y0064217D01*
X0111546Y0064175D01*
X0111589Y0064130D01*
X0111629Y0064082D01*
X0111666Y0064033D01*
X0111700Y0063981D01*
X0111731Y0063927D01*
X0111759Y0063871D01*
X0111783Y0063814D01*
X0111803Y0063755D01*
X0111820Y0063696D01*
X0111833Y0063635D01*
X0111842Y0063574D01*
X0111848Y0063512D01*
X0111850Y0063450D01*
X0111848Y0063390D01*
X0111843Y0063329D01*
X0111834Y0063270D01*
X0111821Y0063211D01*
X0111805Y0063152D01*
X0111785Y0063095D01*
X0111762Y0063040D01*
X0111735Y0062985D01*
X0111706Y0062933D01*
X0111673Y0062882D01*
X0111637Y0062833D01*
X0111599Y0062787D01*
X0111557Y0062743D01*
X0111513Y0062701D01*
X0111467Y0062663D01*
X0111418Y0062627D01*
X0111367Y0062594D01*
X0111315Y0062565D01*
X0111260Y0062538D01*
X0111205Y0062515D01*
X0111148Y0062495D01*
X0111089Y0062479D01*
X0111030Y0062466D01*
X0110971Y0062457D01*
X0110910Y0062452D01*
X0110850Y0062450D01*
X0111600Y0066575D02*
X0111535Y0066622D01*
X0111467Y0066666D01*
X0111398Y0066707D01*
X0111327Y0066745D01*
X0111255Y0066780D01*
X0111181Y0066812D01*
X0111106Y0066841D01*
X0111030Y0066866D01*
X0110952Y0066888D01*
X0110874Y0066907D01*
X0110795Y0066922D01*
X0110716Y0066934D01*
X0110636Y0066943D01*
X0110555Y0066948D01*
X0110475Y0066950D01*
X0110415Y0066948D01*
X0110354Y0066943D01*
X0110295Y0066934D01*
X0110236Y0066921D01*
X0110177Y0066905D01*
X0110120Y0066885D01*
X0110065Y0066862D01*
X0110010Y0066835D01*
X0109958Y0066806D01*
X0109907Y0066773D01*
X0109858Y0066737D01*
X0109812Y0066699D01*
X0109768Y0066657D01*
X0109726Y0066613D01*
X0109688Y0066567D01*
X0109652Y0066518D01*
X0109619Y0066467D01*
X0109590Y0066415D01*
X0109563Y0066360D01*
X0109540Y0066305D01*
X0109520Y0066248D01*
X0109504Y0066189D01*
X0109491Y0066130D01*
X0109482Y0066071D01*
X0109477Y0066010D01*
X0109475Y0065950D01*
X0109477Y0065888D01*
X0109483Y0065826D01*
X0109492Y0065765D01*
X0109505Y0065704D01*
X0109522Y0065645D01*
X0109542Y0065586D01*
X0109566Y0065529D01*
X0109594Y0065473D01*
X0109625Y0065419D01*
X0109659Y0065367D01*
X0109696Y0065318D01*
X0109736Y0065270D01*
X0109779Y0065225D01*
X0109824Y0065183D01*
X0109872Y0065144D01*
X0109923Y0065108D01*
X0109975Y0065075D01*
X0105150Y0082450D02*
X0105150Y0086950D01*
X0106650Y0084450D01*
X0108150Y0086950D01*
X0048950Y0014265D02*
X0044450Y0015515D01*
X0044450Y0013015D01*
X0044950Y0013015D01*
X0044450Y0011250D02*
X0044450Y0010250D01*
X0044452Y0010190D01*
X0044457Y0010129D01*
X0044466Y0010070D01*
X0044479Y0010011D01*
X0044495Y0009952D01*
X0044515Y0009895D01*
X0044538Y0009840D01*
X0044565Y0009785D01*
X0044594Y0009733D01*
X0044627Y0009682D01*
X0044663Y0009633D01*
X0044701Y0009587D01*
X0044743Y0009543D01*
X0044787Y0009501D01*
X0044833Y0009463D01*
X0044882Y0009427D01*
X0044933Y0009394D01*
X0044985Y0009365D01*
X0045040Y0009338D01*
X0045095Y0009315D01*
X0045152Y0009295D01*
X0045211Y0009279D01*
X0045270Y0009266D01*
X0045329Y0009257D01*
X0045390Y0009252D01*
X0045450Y0009250D01*
X0047950Y0009250D01*
X0048010Y0009252D01*
X0048071Y0009257D01*
X0048130Y0009266D01*
X0048189Y0009279D01*
X0048248Y0009295D01*
X0048305Y0009315D01*
X0048360Y0009338D01*
X0048415Y0009365D01*
X0048467Y0009394D01*
X0048518Y0009427D01*
X0048567Y0009463D01*
X0048613Y0009501D01*
X0048657Y0009543D01*
X0048699Y0009587D01*
X0048737Y0009633D01*
X0048773Y0009682D01*
X0048806Y0009733D01*
X0048835Y0009785D01*
X0048862Y0009840D01*
X0048885Y0009895D01*
X0048905Y0009952D01*
X0048921Y0010011D01*
X0048934Y0010070D01*
X0048943Y0010129D01*
X0048948Y0010190D01*
X0048950Y0010250D01*
X0048950Y0011250D01*
X0027950Y0011250D02*
X0027950Y0010250D01*
X0027948Y0010190D01*
X0027943Y0010129D01*
X0027934Y0010070D01*
X0027921Y0010011D01*
X0027905Y0009952D01*
X0027885Y0009895D01*
X0027862Y0009840D01*
X0027835Y0009785D01*
X0027806Y0009733D01*
X0027773Y0009682D01*
X0027737Y0009633D01*
X0027699Y0009587D01*
X0027657Y0009543D01*
X0027613Y0009501D01*
X0027567Y0009463D01*
X0027518Y0009427D01*
X0027467Y0009394D01*
X0027415Y0009365D01*
X0027360Y0009338D01*
X0027305Y0009315D01*
X0027248Y0009295D01*
X0027189Y0009279D01*
X0027130Y0009266D01*
X0027071Y0009257D01*
X0027010Y0009252D01*
X0026950Y0009250D01*
X0024450Y0009250D01*
X0024390Y0009252D01*
X0024329Y0009257D01*
X0024270Y0009266D01*
X0024211Y0009279D01*
X0024152Y0009295D01*
X0024095Y0009315D01*
X0024040Y0009338D01*
X0023985Y0009365D01*
X0023933Y0009394D01*
X0023882Y0009427D01*
X0023833Y0009463D01*
X0023787Y0009501D01*
X0023743Y0009543D01*
X0023701Y0009587D01*
X0023663Y0009633D01*
X0023627Y0009682D01*
X0023594Y0009733D01*
X0023565Y0009785D01*
X0023538Y0009840D01*
X0023515Y0009895D01*
X0023495Y0009952D01*
X0023479Y0010011D01*
X0023466Y0010070D01*
X0023457Y0010129D01*
X0023452Y0010190D01*
X0023450Y0010250D01*
X0023450Y0011250D01*
X0023450Y0013015D02*
X0023450Y0015515D01*
X0025450Y0014515D02*
X0025450Y0013015D01*
X0023450Y0013015D01*
X0025450Y0014515D02*
X0025452Y0014575D01*
X0025457Y0014636D01*
X0025466Y0014695D01*
X0025479Y0014754D01*
X0025495Y0014813D01*
X0025515Y0014870D01*
X0025538Y0014925D01*
X0025565Y0014980D01*
X0025594Y0015032D01*
X0025627Y0015083D01*
X0025663Y0015132D01*
X0025701Y0015178D01*
X0025743Y0015222D01*
X0025787Y0015264D01*
X0025833Y0015302D01*
X0025882Y0015338D01*
X0025933Y0015371D01*
X0025985Y0015400D01*
X0026040Y0015427D01*
X0026095Y0015450D01*
X0026152Y0015470D01*
X0026211Y0015486D01*
X0026270Y0015499D01*
X0026329Y0015508D01*
X0026390Y0015513D01*
X0026450Y0015515D01*
X0026950Y0015515D01*
X0027010Y0015513D01*
X0027071Y0015508D01*
X0027130Y0015499D01*
X0027189Y0015486D01*
X0027248Y0015470D01*
X0027305Y0015450D01*
X0027360Y0015427D01*
X0027415Y0015400D01*
X0027467Y0015371D01*
X0027518Y0015338D01*
X0027567Y0015302D01*
X0027613Y0015264D01*
X0027657Y0015222D01*
X0027699Y0015178D01*
X0027737Y0015132D01*
X0027773Y0015083D01*
X0027806Y0015032D01*
X0027835Y0014980D01*
X0027862Y0014925D01*
X0027885Y0014870D01*
X0027905Y0014813D01*
X0027921Y0014754D01*
X0027934Y0014695D01*
X0027943Y0014636D01*
X0027948Y0014575D01*
X0027950Y0014515D01*
X0027950Y0013015D01*
X0007950Y0011250D02*
X0007950Y0010250D01*
X0007948Y0010190D01*
X0007943Y0010129D01*
X0007934Y0010070D01*
X0007921Y0010011D01*
X0007905Y0009952D01*
X0007885Y0009895D01*
X0007862Y0009840D01*
X0007835Y0009785D01*
X0007806Y0009733D01*
X0007773Y0009682D01*
X0007737Y0009633D01*
X0007699Y0009587D01*
X0007657Y0009543D01*
X0007613Y0009501D01*
X0007567Y0009463D01*
X0007518Y0009427D01*
X0007467Y0009394D01*
X0007415Y0009365D01*
X0007360Y0009338D01*
X0007305Y0009315D01*
X0007248Y0009295D01*
X0007189Y0009279D01*
X0007130Y0009266D01*
X0007071Y0009257D01*
X0007010Y0009252D01*
X0006950Y0009250D01*
X0004450Y0009250D01*
X0004390Y0009252D01*
X0004329Y0009257D01*
X0004270Y0009266D01*
X0004211Y0009279D01*
X0004152Y0009295D01*
X0004095Y0009315D01*
X0004040Y0009338D01*
X0003985Y0009365D01*
X0003933Y0009394D01*
X0003882Y0009427D01*
X0003833Y0009463D01*
X0003787Y0009501D01*
X0003743Y0009543D01*
X0003701Y0009587D01*
X0003663Y0009633D01*
X0003627Y0009682D01*
X0003594Y0009733D01*
X0003565Y0009785D01*
X0003538Y0009840D01*
X0003515Y0009895D01*
X0003495Y0009952D01*
X0003479Y0010011D01*
X0003466Y0010070D01*
X0003457Y0010129D01*
X0003452Y0010190D01*
X0003450Y0010250D01*
X0003450Y0011250D01*
X0005450Y0013015D02*
X0006700Y0013015D01*
X0006769Y0013017D01*
X0006838Y0013023D01*
X0006906Y0013032D01*
X0006973Y0013045D01*
X0007040Y0013062D01*
X0007106Y0013083D01*
X0007170Y0013107D01*
X0007233Y0013135D01*
X0007295Y0013166D01*
X0007355Y0013200D01*
X0007412Y0013238D01*
X0007468Y0013279D01*
X0007521Y0013322D01*
X0007572Y0013369D01*
X0007620Y0013418D01*
X0007665Y0013470D01*
X0007707Y0013525D01*
X0007746Y0013581D01*
X0007783Y0013640D01*
X0007815Y0013701D01*
X0007845Y0013763D01*
X0007871Y0013827D01*
X0007893Y0013892D01*
X0007912Y0013958D01*
X0007927Y0014025D01*
X0007938Y0014093D01*
X0007946Y0014162D01*
X0007950Y0014231D01*
X0007950Y0014299D01*
X0007946Y0014368D01*
X0007938Y0014437D01*
X0007927Y0014505D01*
X0007912Y0014572D01*
X0007893Y0014638D01*
X0007871Y0014703D01*
X0007845Y0014767D01*
X0007815Y0014829D01*
X0007783Y0014890D01*
X0007746Y0014949D01*
X0007707Y0015005D01*
X0007665Y0015060D01*
X0007620Y0015112D01*
X0007572Y0015161D01*
X0007521Y0015208D01*
X0007468Y0015251D01*
X0007412Y0015292D01*
X0007355Y0015330D01*
X0007295Y0015364D01*
X0007233Y0015395D01*
X0007170Y0015423D01*
X0007106Y0015447D01*
X0007040Y0015468D01*
X0006973Y0015485D01*
X0006906Y0015498D01*
X0006838Y0015507D01*
X0006769Y0015513D01*
X0006700Y0015515D01*
X0006450Y0015515D01*
X0006390Y0015513D01*
X0006329Y0015508D01*
X0006270Y0015499D01*
X0006211Y0015486D01*
X0006152Y0015470D01*
X0006095Y0015450D01*
X0006040Y0015427D01*
X0005985Y0015400D01*
X0005933Y0015371D01*
X0005882Y0015338D01*
X0005833Y0015302D01*
X0005787Y0015264D01*
X0005743Y0015222D01*
X0005701Y0015178D01*
X0005663Y0015132D01*
X0005627Y0015083D01*
X0005594Y0015032D01*
X0005565Y0014980D01*
X0005538Y0014925D01*
X0005515Y0014870D01*
X0005495Y0014813D01*
X0005479Y0014754D01*
X0005466Y0014695D01*
X0005457Y0014636D01*
X0005452Y0014575D01*
X0005450Y0014515D01*
X0005450Y0013015D01*
X0005363Y0013017D01*
X0005276Y0013023D01*
X0005189Y0013032D01*
X0005103Y0013045D01*
X0005017Y0013062D01*
X0004932Y0013083D01*
X0004849Y0013108D01*
X0004766Y0013136D01*
X0004685Y0013167D01*
X0004605Y0013202D01*
X0004527Y0013241D01*
X0004450Y0013283D01*
X0004375Y0013328D01*
X0004303Y0013377D01*
X0004232Y0013428D01*
X0004164Y0013483D01*
X0004099Y0013540D01*
X0004036Y0013601D01*
X0003975Y0013664D01*
X0003918Y0013729D01*
X0003863Y0013797D01*
X0003812Y0013868D01*
X0003763Y0013940D01*
X0003718Y0014015D01*
X0003676Y0014092D01*
X0003637Y0014170D01*
X0003602Y0014250D01*
X0003571Y0014331D01*
X0003543Y0014414D01*
X0003518Y0014497D01*
X0003497Y0014582D01*
X0003480Y0014668D01*
X0003467Y0014754D01*
X0003458Y0014841D01*
X0003452Y0014928D01*
X0003450Y0015015D01*
X0019450Y0068250D02*
X0020450Y0068250D01*
X0019450Y0068250D02*
X0019390Y0068252D01*
X0019329Y0068257D01*
X0019270Y0068266D01*
X0019211Y0068279D01*
X0019152Y0068295D01*
X0019095Y0068315D01*
X0019040Y0068338D01*
X0018985Y0068365D01*
X0018933Y0068394D01*
X0018882Y0068427D01*
X0018833Y0068463D01*
X0018787Y0068501D01*
X0018743Y0068543D01*
X0018701Y0068587D01*
X0018663Y0068633D01*
X0018627Y0068682D01*
X0018594Y0068733D01*
X0018565Y0068785D01*
X0018538Y0068840D01*
X0018515Y0068895D01*
X0018495Y0068952D01*
X0018479Y0069011D01*
X0018466Y0069070D01*
X0018457Y0069129D01*
X0018452Y0069190D01*
X0018450Y0069250D01*
X0018450Y0071750D01*
X0018452Y0071810D01*
X0018457Y0071871D01*
X0018466Y0071930D01*
X0018479Y0071989D01*
X0018495Y0072048D01*
X0018515Y0072105D01*
X0018538Y0072160D01*
X0018565Y0072215D01*
X0018594Y0072267D01*
X0018627Y0072318D01*
X0018663Y0072367D01*
X0018701Y0072413D01*
X0018743Y0072457D01*
X0018787Y0072499D01*
X0018833Y0072537D01*
X0018882Y0072573D01*
X0018933Y0072606D01*
X0018985Y0072635D01*
X0019040Y0072662D01*
X0019095Y0072685D01*
X0019152Y0072705D01*
X0019211Y0072721D01*
X0019270Y0072734D01*
X0019329Y0072743D01*
X0019390Y0072748D01*
X0019450Y0072750D01*
X0020450Y0072750D01*
X0024340Y0070750D02*
X0022215Y0068250D01*
X0024715Y0068250D01*
X0022215Y0071750D02*
X0022239Y0071819D01*
X0022267Y0071886D01*
X0022298Y0071952D01*
X0022332Y0072016D01*
X0022369Y0072078D01*
X0022410Y0072139D01*
X0022453Y0072197D01*
X0022499Y0072253D01*
X0022549Y0072307D01*
X0022600Y0072358D01*
X0022654Y0072406D01*
X0022711Y0072452D01*
X0022770Y0072495D01*
X0022831Y0072534D01*
X0022893Y0072571D01*
X0022958Y0072604D01*
X0023024Y0072635D01*
X0023092Y0072661D01*
X0023160Y0072685D01*
X0023230Y0072705D01*
X0023301Y0072721D01*
X0023373Y0072734D01*
X0023445Y0072743D01*
X0023517Y0072748D01*
X0023590Y0072750D01*
X0023655Y0072748D01*
X0023721Y0072742D01*
X0023785Y0072733D01*
X0023849Y0072720D01*
X0023913Y0072703D01*
X0023975Y0072682D01*
X0024036Y0072658D01*
X0024095Y0072630D01*
X0024153Y0072599D01*
X0024208Y0072565D01*
X0024262Y0072527D01*
X0024313Y0072487D01*
X0024362Y0072443D01*
X0024408Y0072397D01*
X0024452Y0072348D01*
X0024492Y0072297D01*
X0024530Y0072243D01*
X0024564Y0072188D01*
X0024595Y0072130D01*
X0024623Y0072071D01*
X0024647Y0072010D01*
X0024668Y0071948D01*
X0024685Y0071884D01*
X0024698Y0071820D01*
X0024707Y0071756D01*
X0024713Y0071690D01*
X0024715Y0071625D01*
X0024714Y0071625D02*
X0024712Y0071560D01*
X0024707Y0071495D01*
X0024698Y0071430D01*
X0024686Y0071366D01*
X0024670Y0071303D01*
X0024651Y0071241D01*
X0024629Y0071179D01*
X0024603Y0071119D01*
X0024574Y0071061D01*
X0024542Y0071004D01*
X0024507Y0070949D01*
X0024469Y0070896D01*
X0024429Y0070845D01*
X0024385Y0070796D01*
X0024339Y0070750D01*
X0041200Y0105895D02*
X0043200Y0105895D01*
X0043269Y0105897D01*
X0043338Y0105903D01*
X0043406Y0105912D01*
X0043473Y0105925D01*
X0043540Y0105942D01*
X0043606Y0105963D01*
X0043670Y0105987D01*
X0043733Y0106015D01*
X0043795Y0106046D01*
X0043855Y0106080D01*
X0043912Y0106118D01*
X0043968Y0106159D01*
X0044021Y0106202D01*
X0044072Y0106249D01*
X0044120Y0106298D01*
X0044165Y0106350D01*
X0044207Y0106405D01*
X0044246Y0106461D01*
X0044283Y0106520D01*
X0044315Y0106581D01*
X0044345Y0106643D01*
X0044371Y0106707D01*
X0044393Y0106772D01*
X0044412Y0106838D01*
X0044427Y0106905D01*
X0044438Y0106973D01*
X0044446Y0107042D01*
X0044450Y0107111D01*
X0044450Y0107179D01*
X0044446Y0107248D01*
X0044438Y0107317D01*
X0044427Y0107385D01*
X0044412Y0107452D01*
X0044393Y0107518D01*
X0044371Y0107583D01*
X0044345Y0107647D01*
X0044315Y0107709D01*
X0044283Y0107770D01*
X0044246Y0107829D01*
X0044207Y0107885D01*
X0044165Y0107940D01*
X0044120Y0107992D01*
X0044072Y0108041D01*
X0044021Y0108088D01*
X0043968Y0108131D01*
X0043912Y0108172D01*
X0043855Y0108210D01*
X0043795Y0108244D01*
X0043733Y0108275D01*
X0043670Y0108303D01*
X0043606Y0108327D01*
X0043540Y0108348D01*
X0043473Y0108365D01*
X0043406Y0108378D01*
X0043338Y0108387D01*
X0043269Y0108393D01*
X0043200Y0108395D01*
X0041200Y0108395D01*
X0041131Y0108393D01*
X0041062Y0108387D01*
X0040994Y0108378D01*
X0040927Y0108365D01*
X0040860Y0108348D01*
X0040794Y0108327D01*
X0040730Y0108303D01*
X0040667Y0108275D01*
X0040605Y0108244D01*
X0040545Y0108210D01*
X0040488Y0108172D01*
X0040432Y0108131D01*
X0040379Y0108088D01*
X0040328Y0108041D01*
X0040280Y0107992D01*
X0040235Y0107940D01*
X0040193Y0107885D01*
X0040154Y0107829D01*
X0040117Y0107770D01*
X0040085Y0107709D01*
X0040055Y0107647D01*
X0040029Y0107583D01*
X0040007Y0107518D01*
X0039988Y0107452D01*
X0039973Y0107385D01*
X0039962Y0107317D01*
X0039954Y0107248D01*
X0039950Y0107179D01*
X0039950Y0107111D01*
X0039954Y0107042D01*
X0039962Y0106973D01*
X0039973Y0106905D01*
X0039988Y0106838D01*
X0040007Y0106772D01*
X0040029Y0106707D01*
X0040055Y0106643D01*
X0040085Y0106581D01*
X0040117Y0106520D01*
X0040154Y0106461D01*
X0040193Y0106405D01*
X0040235Y0106350D01*
X0040280Y0106298D01*
X0040328Y0106249D01*
X0040379Y0106202D01*
X0040432Y0106159D01*
X0040488Y0106118D01*
X0040545Y0106080D01*
X0040605Y0106046D01*
X0040667Y0106015D01*
X0040730Y0105987D01*
X0040794Y0105963D01*
X0040860Y0105942D01*
X0040927Y0105925D01*
X0040994Y0105912D01*
X0041062Y0105903D01*
X0041131Y0105897D01*
X0041200Y0105895D01*
X0043450Y0107895D02*
X0044450Y0108895D01*
X0044450Y0110250D02*
X0044450Y0112750D01*
X0044450Y0111500D02*
X0039950Y0111500D01*
X0040950Y0110250D01*
X0040700Y0113250D02*
X0040700Y0117750D01*
X0039450Y0116750D01*
X0037685Y0117750D02*
X0036685Y0117750D01*
X0036625Y0117748D01*
X0036564Y0117743D01*
X0036505Y0117734D01*
X0036446Y0117721D01*
X0036387Y0117705D01*
X0036330Y0117685D01*
X0036275Y0117662D01*
X0036220Y0117635D01*
X0036168Y0117606D01*
X0036117Y0117573D01*
X0036068Y0117537D01*
X0036022Y0117499D01*
X0035978Y0117457D01*
X0035936Y0117413D01*
X0035898Y0117367D01*
X0035862Y0117318D01*
X0035829Y0117267D01*
X0035800Y0117215D01*
X0035773Y0117160D01*
X0035750Y0117105D01*
X0035730Y0117048D01*
X0035714Y0116989D01*
X0035701Y0116930D01*
X0035692Y0116871D01*
X0035687Y0116810D01*
X0035685Y0116750D01*
X0035685Y0114250D01*
X0035687Y0114190D01*
X0035692Y0114129D01*
X0035701Y0114070D01*
X0035714Y0114011D01*
X0035730Y0113952D01*
X0035750Y0113895D01*
X0035773Y0113840D01*
X0035800Y0113785D01*
X0035829Y0113733D01*
X0035862Y0113682D01*
X0035898Y0113633D01*
X0035936Y0113587D01*
X0035978Y0113543D01*
X0036022Y0113501D01*
X0036068Y0113463D01*
X0036117Y0113427D01*
X0036168Y0113394D01*
X0036220Y0113365D01*
X0036275Y0113338D01*
X0036330Y0113315D01*
X0036387Y0113295D01*
X0036446Y0113279D01*
X0036505Y0113266D01*
X0036564Y0113257D01*
X0036625Y0113252D01*
X0036685Y0113250D01*
X0037685Y0113250D01*
X0039450Y0113250D02*
X0041950Y0113250D01*
X0047650Y0161950D02*
X0049650Y0161950D01*
X0051675Y0162450D02*
X0051675Y0166950D01*
X0052925Y0166950D01*
X0052994Y0166948D01*
X0053063Y0166942D01*
X0053131Y0166933D01*
X0053198Y0166920D01*
X0053265Y0166903D01*
X0053331Y0166882D01*
X0053395Y0166858D01*
X0053458Y0166830D01*
X0053520Y0166799D01*
X0053580Y0166765D01*
X0053637Y0166727D01*
X0053693Y0166686D01*
X0053746Y0166643D01*
X0053797Y0166596D01*
X0053845Y0166547D01*
X0053890Y0166495D01*
X0053932Y0166440D01*
X0053971Y0166384D01*
X0054008Y0166325D01*
X0054040Y0166264D01*
X0054070Y0166202D01*
X0054096Y0166138D01*
X0054118Y0166073D01*
X0054137Y0166007D01*
X0054152Y0165940D01*
X0054163Y0165872D01*
X0054171Y0165803D01*
X0054175Y0165734D01*
X0054175Y0165666D01*
X0054171Y0165597D01*
X0054163Y0165528D01*
X0054152Y0165460D01*
X0054137Y0165393D01*
X0054118Y0165327D01*
X0054096Y0165262D01*
X0054070Y0165198D01*
X0054040Y0165136D01*
X0054008Y0165075D01*
X0053971Y0165016D01*
X0053932Y0164960D01*
X0053890Y0164905D01*
X0053845Y0164853D01*
X0053797Y0164804D01*
X0053746Y0164757D01*
X0053693Y0164714D01*
X0053637Y0164673D01*
X0053580Y0164635D01*
X0053520Y0164601D01*
X0053458Y0164570D01*
X0053395Y0164542D01*
X0053331Y0164518D01*
X0053265Y0164497D01*
X0053198Y0164480D01*
X0053131Y0164467D01*
X0053063Y0164458D01*
X0052994Y0164452D01*
X0052925Y0164450D01*
X0051675Y0164450D01*
X0055800Y0162450D02*
X0056800Y0162450D01*
X0056300Y0162450D02*
X0056300Y0166950D01*
X0055800Y0166950D02*
X0056800Y0166950D01*
X0058800Y0166950D02*
X0058800Y0162450D01*
X0061300Y0162450D02*
X0058800Y0166950D01*
X0061300Y0166950D02*
X0061300Y0162450D01*
X0061567Y0172450D02*
X0061567Y0176950D01*
X0059067Y0176950D02*
X0061567Y0172450D01*
X0059067Y0172450D02*
X0059067Y0176950D01*
X0057067Y0176950D02*
X0056067Y0176950D01*
X0056567Y0176950D02*
X0056567Y0172450D01*
X0056067Y0172450D02*
X0057067Y0172450D01*
X0053192Y0174450D02*
X0051942Y0174450D01*
X0053192Y0174450D02*
X0053261Y0174452D01*
X0053330Y0174458D01*
X0053398Y0174467D01*
X0053465Y0174480D01*
X0053532Y0174497D01*
X0053598Y0174518D01*
X0053662Y0174542D01*
X0053725Y0174570D01*
X0053787Y0174601D01*
X0053847Y0174635D01*
X0053904Y0174673D01*
X0053960Y0174714D01*
X0054013Y0174757D01*
X0054064Y0174804D01*
X0054112Y0174853D01*
X0054157Y0174905D01*
X0054199Y0174960D01*
X0054238Y0175016D01*
X0054275Y0175075D01*
X0054307Y0175136D01*
X0054337Y0175198D01*
X0054363Y0175262D01*
X0054385Y0175327D01*
X0054404Y0175393D01*
X0054419Y0175460D01*
X0054430Y0175528D01*
X0054438Y0175597D01*
X0054442Y0175666D01*
X0054442Y0175734D01*
X0054438Y0175803D01*
X0054430Y0175872D01*
X0054419Y0175940D01*
X0054404Y0176007D01*
X0054385Y0176073D01*
X0054363Y0176138D01*
X0054337Y0176202D01*
X0054307Y0176264D01*
X0054275Y0176325D01*
X0054238Y0176384D01*
X0054199Y0176440D01*
X0054157Y0176495D01*
X0054112Y0176547D01*
X0054064Y0176596D01*
X0054013Y0176643D01*
X0053960Y0176686D01*
X0053904Y0176727D01*
X0053847Y0176765D01*
X0053787Y0176799D01*
X0053725Y0176830D01*
X0053662Y0176858D01*
X0053598Y0176882D01*
X0053532Y0176903D01*
X0053465Y0176920D01*
X0053398Y0176933D01*
X0053330Y0176942D01*
X0053261Y0176948D01*
X0053192Y0176950D01*
X0051942Y0176950D01*
X0051942Y0172450D01*
X0049917Y0171950D02*
X0047917Y0171950D01*
X0046367Y0172450D02*
X0043367Y0176950D01*
X0043450Y0177710D02*
X0038950Y0177710D01*
X0038950Y0179710D01*
X0040950Y0179210D02*
X0040950Y0177710D01*
X0040400Y0176950D02*
X0039150Y0176950D01*
X0039150Y0172450D01*
X0038950Y0173083D02*
X0038950Y0174333D01*
X0039150Y0174450D02*
X0040400Y0174450D01*
X0041450Y0174333D02*
X0041448Y0174402D01*
X0041442Y0174471D01*
X0041433Y0174539D01*
X0041420Y0174606D01*
X0041403Y0174673D01*
X0041382Y0174739D01*
X0041358Y0174803D01*
X0041330Y0174866D01*
X0041299Y0174928D01*
X0041265Y0174988D01*
X0041227Y0175045D01*
X0041186Y0175101D01*
X0041143Y0175154D01*
X0041096Y0175205D01*
X0041047Y0175253D01*
X0040995Y0175298D01*
X0040940Y0175340D01*
X0040884Y0175379D01*
X0040825Y0175416D01*
X0040764Y0175448D01*
X0040702Y0175478D01*
X0040638Y0175504D01*
X0040573Y0175526D01*
X0040507Y0175545D01*
X0040440Y0175560D01*
X0040372Y0175571D01*
X0040303Y0175579D01*
X0040234Y0175583D01*
X0040166Y0175583D01*
X0040097Y0175579D01*
X0040028Y0175571D01*
X0039960Y0175560D01*
X0039893Y0175545D01*
X0039827Y0175526D01*
X0039762Y0175504D01*
X0039698Y0175478D01*
X0039636Y0175448D01*
X0039575Y0175416D01*
X0039516Y0175379D01*
X0039460Y0175340D01*
X0039405Y0175298D01*
X0039353Y0175253D01*
X0039304Y0175205D01*
X0039257Y0175154D01*
X0039214Y0175101D01*
X0039173Y0175045D01*
X0039135Y0174988D01*
X0039101Y0174928D01*
X0039070Y0174866D01*
X0039042Y0174803D01*
X0039018Y0174739D01*
X0038997Y0174673D01*
X0038980Y0174606D01*
X0038967Y0174539D01*
X0038958Y0174471D01*
X0038952Y0174402D01*
X0038950Y0174333D01*
X0038950Y0173083D02*
X0043450Y0173083D01*
X0043367Y0172450D02*
X0046367Y0176950D01*
X0043450Y0177710D02*
X0043450Y0179710D01*
X0041575Y0183300D02*
X0041608Y0183352D01*
X0041644Y0183403D01*
X0041683Y0183451D01*
X0041725Y0183496D01*
X0041770Y0183539D01*
X0041818Y0183579D01*
X0041867Y0183616D01*
X0041919Y0183650D01*
X0041973Y0183681D01*
X0042029Y0183709D01*
X0042086Y0183733D01*
X0042145Y0183753D01*
X0042204Y0183770D01*
X0042265Y0183783D01*
X0042326Y0183792D01*
X0042388Y0183798D01*
X0042450Y0183800D01*
X0042510Y0183798D01*
X0042571Y0183793D01*
X0042630Y0183784D01*
X0042689Y0183771D01*
X0042748Y0183755D01*
X0042805Y0183735D01*
X0042860Y0183712D01*
X0042915Y0183685D01*
X0042967Y0183656D01*
X0043018Y0183623D01*
X0043067Y0183587D01*
X0043113Y0183549D01*
X0043157Y0183507D01*
X0043199Y0183463D01*
X0043237Y0183417D01*
X0043273Y0183368D01*
X0043306Y0183317D01*
X0043335Y0183265D01*
X0043362Y0183210D01*
X0043385Y0183155D01*
X0043405Y0183098D01*
X0043421Y0183039D01*
X0043434Y0182980D01*
X0043443Y0182921D01*
X0043448Y0182860D01*
X0043450Y0182800D01*
X0041575Y0183300D02*
X0040825Y0181925D01*
X0038950Y0182425D02*
X0038952Y0182505D01*
X0038957Y0182586D01*
X0038966Y0182666D01*
X0038978Y0182745D01*
X0038993Y0182824D01*
X0039012Y0182902D01*
X0039034Y0182980D01*
X0039059Y0183056D01*
X0039088Y0183131D01*
X0039120Y0183205D01*
X0039155Y0183277D01*
X0039193Y0183348D01*
X0039234Y0183417D01*
X0039278Y0183485D01*
X0039325Y0183550D01*
X0040825Y0181925D02*
X0040792Y0181873D01*
X0040756Y0181822D01*
X0040717Y0181774D01*
X0040675Y0181729D01*
X0040630Y0181686D01*
X0040582Y0181646D01*
X0040533Y0181609D01*
X0040481Y0181575D01*
X0040427Y0181544D01*
X0040371Y0181516D01*
X0040314Y0181492D01*
X0040255Y0181472D01*
X0040196Y0181455D01*
X0040135Y0181442D01*
X0040074Y0181433D01*
X0040012Y0181427D01*
X0039950Y0181425D01*
X0039890Y0181427D01*
X0039829Y0181432D01*
X0039770Y0181441D01*
X0039711Y0181454D01*
X0039652Y0181470D01*
X0039595Y0181490D01*
X0039540Y0181513D01*
X0039485Y0181540D01*
X0039433Y0181569D01*
X0039382Y0181602D01*
X0039333Y0181638D01*
X0039287Y0181676D01*
X0039243Y0181718D01*
X0039201Y0181762D01*
X0039163Y0181808D01*
X0039127Y0181857D01*
X0039094Y0181908D01*
X0039065Y0181960D01*
X0039038Y0182015D01*
X0039015Y0182070D01*
X0038995Y0182127D01*
X0038979Y0182186D01*
X0038966Y0182245D01*
X0038957Y0182304D01*
X0038952Y0182365D01*
X0038950Y0182425D01*
X0042826Y0181300D02*
X0042887Y0181363D01*
X0042945Y0181428D01*
X0043001Y0181496D01*
X0043054Y0181567D01*
X0043103Y0181639D01*
X0043150Y0181713D01*
X0043194Y0181789D01*
X0043234Y0181867D01*
X0043271Y0181947D01*
X0043305Y0182028D01*
X0043335Y0182110D01*
X0043362Y0182194D01*
X0043386Y0182279D01*
X0043406Y0182364D01*
X0043422Y0182450D01*
X0043435Y0182537D01*
X0043444Y0182625D01*
X0043449Y0182712D01*
X0043451Y0182800D01*
X0043450Y0185810D02*
X0038950Y0185810D01*
X0038950Y0187810D01*
X0038950Y0189250D02*
X0038950Y0191750D01*
X0038950Y0190500D02*
X0043450Y0190500D01*
X0043450Y0187810D02*
X0043450Y0185810D01*
X0040950Y0185810D02*
X0040950Y0187310D01*
X0046450Y0191250D02*
X0046450Y0192250D01*
X0046450Y0191250D02*
X0046452Y0191190D01*
X0046457Y0191129D01*
X0046466Y0191070D01*
X0046479Y0191011D01*
X0046495Y0190952D01*
X0046515Y0190895D01*
X0046538Y0190840D01*
X0046565Y0190785D01*
X0046594Y0190733D01*
X0046627Y0190682D01*
X0046663Y0190633D01*
X0046701Y0190587D01*
X0046743Y0190543D01*
X0046787Y0190501D01*
X0046833Y0190463D01*
X0046882Y0190427D01*
X0046933Y0190394D01*
X0046985Y0190365D01*
X0047040Y0190338D01*
X0047095Y0190315D01*
X0047152Y0190295D01*
X0047211Y0190279D01*
X0047270Y0190266D01*
X0047329Y0190257D01*
X0047390Y0190252D01*
X0047450Y0190250D01*
X0049950Y0190250D01*
X0050010Y0190252D01*
X0050071Y0190257D01*
X0050130Y0190266D01*
X0050189Y0190279D01*
X0050248Y0190295D01*
X0050305Y0190315D01*
X0050360Y0190338D01*
X0050415Y0190365D01*
X0050467Y0190394D01*
X0050518Y0190427D01*
X0050567Y0190463D01*
X0050613Y0190501D01*
X0050657Y0190543D01*
X0050699Y0190587D01*
X0050737Y0190633D01*
X0050773Y0190682D01*
X0050806Y0190733D01*
X0050835Y0190785D01*
X0050862Y0190840D01*
X0050885Y0190895D01*
X0050905Y0190952D01*
X0050921Y0191011D01*
X0050934Y0191070D01*
X0050943Y0191129D01*
X0050948Y0191190D01*
X0050950Y0191250D01*
X0050950Y0192250D01*
X0050950Y0194015D02*
X0050950Y0195265D01*
X0050948Y0195334D01*
X0050942Y0195403D01*
X0050933Y0195471D01*
X0050920Y0195538D01*
X0050903Y0195605D01*
X0050882Y0195671D01*
X0050858Y0195735D01*
X0050830Y0195798D01*
X0050799Y0195860D01*
X0050765Y0195920D01*
X0050727Y0195977D01*
X0050686Y0196033D01*
X0050643Y0196086D01*
X0050596Y0196137D01*
X0050547Y0196185D01*
X0050495Y0196230D01*
X0050440Y0196272D01*
X0050384Y0196311D01*
X0050325Y0196348D01*
X0050264Y0196380D01*
X0050202Y0196410D01*
X0050138Y0196436D01*
X0050073Y0196458D01*
X0050007Y0196477D01*
X0049940Y0196492D01*
X0049872Y0196503D01*
X0049803Y0196511D01*
X0049734Y0196515D01*
X0049666Y0196515D01*
X0049597Y0196511D01*
X0049528Y0196503D01*
X0049460Y0196492D01*
X0049393Y0196477D01*
X0049327Y0196458D01*
X0049262Y0196436D01*
X0049198Y0196410D01*
X0049136Y0196380D01*
X0049075Y0196348D01*
X0049016Y0196311D01*
X0048960Y0196272D01*
X0048905Y0196230D01*
X0048853Y0196185D01*
X0048804Y0196137D01*
X0048757Y0196086D01*
X0048714Y0196033D01*
X0048673Y0195977D01*
X0048635Y0195920D01*
X0048601Y0195860D01*
X0048570Y0195798D01*
X0048542Y0195735D01*
X0048518Y0195671D01*
X0048497Y0195605D01*
X0048480Y0195538D01*
X0048467Y0195471D01*
X0048458Y0195403D01*
X0048452Y0195334D01*
X0048450Y0195265D01*
X0048450Y0195515D02*
X0048450Y0194515D01*
X0048450Y0195515D02*
X0048448Y0195577D01*
X0048442Y0195638D01*
X0048433Y0195699D01*
X0048420Y0195759D01*
X0048403Y0195818D01*
X0048382Y0195876D01*
X0048358Y0195933D01*
X0048331Y0195988D01*
X0048300Y0196041D01*
X0048266Y0196093D01*
X0048229Y0196142D01*
X0048189Y0196189D01*
X0048146Y0196233D01*
X0048101Y0196274D01*
X0048053Y0196313D01*
X0048002Y0196349D01*
X0047950Y0196381D01*
X0047896Y0196410D01*
X0047840Y0196436D01*
X0047782Y0196458D01*
X0047724Y0196477D01*
X0047664Y0196492D01*
X0047603Y0196503D01*
X0047542Y0196511D01*
X0047481Y0196515D01*
X0047419Y0196515D01*
X0047358Y0196511D01*
X0047297Y0196503D01*
X0047236Y0196492D01*
X0047176Y0196477D01*
X0047118Y0196458D01*
X0047060Y0196436D01*
X0047004Y0196410D01*
X0046950Y0196381D01*
X0046898Y0196349D01*
X0046847Y0196313D01*
X0046799Y0196274D01*
X0046754Y0196233D01*
X0046711Y0196189D01*
X0046671Y0196142D01*
X0046634Y0196093D01*
X0046600Y0196041D01*
X0046569Y0195988D01*
X0046542Y0195933D01*
X0046518Y0195876D01*
X0046497Y0195818D01*
X0046480Y0195759D01*
X0046467Y0195699D01*
X0046458Y0195638D01*
X0046452Y0195577D01*
X0046450Y0195515D01*
X0046450Y0194015D01*
X0043450Y0175583D02*
X0041450Y0174583D01*
X0041450Y0174333D02*
X0041450Y0173083D01*
X0041650Y0172450D02*
X0040650Y0174450D01*
X0040400Y0174450D02*
X0040469Y0174452D01*
X0040538Y0174458D01*
X0040606Y0174467D01*
X0040673Y0174480D01*
X0040740Y0174497D01*
X0040806Y0174518D01*
X0040870Y0174542D01*
X0040933Y0174570D01*
X0040995Y0174601D01*
X0041055Y0174635D01*
X0041112Y0174673D01*
X0041168Y0174714D01*
X0041221Y0174757D01*
X0041272Y0174804D01*
X0041320Y0174853D01*
X0041365Y0174905D01*
X0041407Y0174960D01*
X0041446Y0175016D01*
X0041483Y0175075D01*
X0041515Y0175136D01*
X0041545Y0175198D01*
X0041571Y0175262D01*
X0041593Y0175327D01*
X0041612Y0175393D01*
X0041627Y0175460D01*
X0041638Y0175528D01*
X0041646Y0175597D01*
X0041650Y0175666D01*
X0041650Y0175734D01*
X0041646Y0175803D01*
X0041638Y0175872D01*
X0041627Y0175940D01*
X0041612Y0176007D01*
X0041593Y0176073D01*
X0041571Y0176138D01*
X0041545Y0176202D01*
X0041515Y0176264D01*
X0041483Y0176325D01*
X0041446Y0176384D01*
X0041407Y0176440D01*
X0041365Y0176495D01*
X0041320Y0176547D01*
X0041272Y0176596D01*
X0041221Y0176643D01*
X0041168Y0176686D01*
X0041112Y0176727D01*
X0041055Y0176765D01*
X0040995Y0176799D01*
X0040933Y0176830D01*
X0040870Y0176858D01*
X0040806Y0176882D01*
X0040740Y0176903D01*
X0040673Y0176920D01*
X0040606Y0176933D01*
X0040538Y0176942D01*
X0040469Y0176948D01*
X0040400Y0176950D01*
X0040400Y0166950D02*
X0040400Y0162450D01*
X0038767Y0162450D02*
X0038767Y0166950D01*
X0039150Y0166950D02*
X0041650Y0166950D01*
X0043100Y0166950D02*
X0046100Y0162450D01*
X0043100Y0162450D02*
X0046100Y0166950D01*
X0040017Y0166950D02*
X0037517Y0166950D01*
X0034092Y0165075D02*
X0034040Y0165108D01*
X0033989Y0165144D01*
X0033941Y0165183D01*
X0033896Y0165225D01*
X0033853Y0165270D01*
X0033813Y0165318D01*
X0033776Y0165367D01*
X0033742Y0165419D01*
X0033711Y0165473D01*
X0033683Y0165529D01*
X0033659Y0165586D01*
X0033639Y0165645D01*
X0033622Y0165704D01*
X0033609Y0165765D01*
X0033600Y0165826D01*
X0033594Y0165888D01*
X0033592Y0165950D01*
X0033594Y0166010D01*
X0033599Y0166071D01*
X0033608Y0166130D01*
X0033621Y0166189D01*
X0033637Y0166248D01*
X0033657Y0166305D01*
X0033680Y0166360D01*
X0033707Y0166415D01*
X0033736Y0166467D01*
X0033769Y0166518D01*
X0033805Y0166567D01*
X0033843Y0166613D01*
X0033885Y0166657D01*
X0033929Y0166699D01*
X0033975Y0166737D01*
X0034024Y0166773D01*
X0034075Y0166806D01*
X0034127Y0166835D01*
X0034182Y0166862D01*
X0034237Y0166885D01*
X0034294Y0166905D01*
X0034353Y0166921D01*
X0034412Y0166934D01*
X0034471Y0166943D01*
X0034532Y0166948D01*
X0034592Y0166950D01*
X0034672Y0166948D01*
X0034753Y0166943D01*
X0034833Y0166934D01*
X0034912Y0166922D01*
X0034991Y0166907D01*
X0035069Y0166888D01*
X0035147Y0166866D01*
X0035223Y0166841D01*
X0035298Y0166812D01*
X0035372Y0166780D01*
X0035444Y0166745D01*
X0035515Y0166707D01*
X0035584Y0166666D01*
X0035652Y0166622D01*
X0035717Y0166575D01*
X0033467Y0163075D02*
X0033530Y0163014D01*
X0033595Y0162956D01*
X0033663Y0162900D01*
X0033734Y0162847D01*
X0033806Y0162798D01*
X0033880Y0162751D01*
X0033956Y0162707D01*
X0034034Y0162667D01*
X0034114Y0162630D01*
X0034195Y0162596D01*
X0034277Y0162566D01*
X0034361Y0162539D01*
X0034446Y0162515D01*
X0034531Y0162495D01*
X0034617Y0162479D01*
X0034704Y0162466D01*
X0034792Y0162457D01*
X0034879Y0162452D01*
X0034967Y0162450D01*
X0035027Y0162452D01*
X0035088Y0162457D01*
X0035147Y0162466D01*
X0035206Y0162479D01*
X0035265Y0162495D01*
X0035322Y0162515D01*
X0035377Y0162538D01*
X0035432Y0162565D01*
X0035484Y0162594D01*
X0035535Y0162627D01*
X0035584Y0162663D01*
X0035630Y0162701D01*
X0035674Y0162743D01*
X0035716Y0162787D01*
X0035754Y0162833D01*
X0035790Y0162882D01*
X0035823Y0162933D01*
X0035852Y0162985D01*
X0035879Y0163040D01*
X0035902Y0163095D01*
X0035922Y0163152D01*
X0035938Y0163211D01*
X0035951Y0163270D01*
X0035960Y0163329D01*
X0035965Y0163390D01*
X0035967Y0163450D01*
X0035467Y0164325D02*
X0034092Y0165075D01*
X0035468Y0164325D02*
X0035520Y0164292D01*
X0035571Y0164256D01*
X0035619Y0164217D01*
X0035664Y0164175D01*
X0035707Y0164130D01*
X0035747Y0164082D01*
X0035784Y0164033D01*
X0035818Y0163981D01*
X0035849Y0163927D01*
X0035877Y0163871D01*
X0035901Y0163814D01*
X0035921Y0163755D01*
X0035938Y0163696D01*
X0035951Y0163635D01*
X0035960Y0163574D01*
X0035966Y0163512D01*
X0035968Y0163450D01*
X0031650Y0162450D02*
X0030650Y0164450D01*
X0030400Y0164450D02*
X0029150Y0164450D01*
X0030400Y0164450D02*
X0030469Y0164452D01*
X0030538Y0164458D01*
X0030606Y0164467D01*
X0030673Y0164480D01*
X0030740Y0164497D01*
X0030806Y0164518D01*
X0030870Y0164542D01*
X0030933Y0164570D01*
X0030995Y0164601D01*
X0031055Y0164635D01*
X0031112Y0164673D01*
X0031168Y0164714D01*
X0031221Y0164757D01*
X0031272Y0164804D01*
X0031320Y0164853D01*
X0031365Y0164905D01*
X0031407Y0164960D01*
X0031446Y0165016D01*
X0031483Y0165075D01*
X0031515Y0165136D01*
X0031545Y0165198D01*
X0031571Y0165262D01*
X0031593Y0165327D01*
X0031612Y0165393D01*
X0031627Y0165460D01*
X0031638Y0165528D01*
X0031646Y0165597D01*
X0031650Y0165666D01*
X0031650Y0165734D01*
X0031646Y0165803D01*
X0031638Y0165872D01*
X0031627Y0165940D01*
X0031612Y0166007D01*
X0031593Y0166073D01*
X0031571Y0166138D01*
X0031545Y0166202D01*
X0031515Y0166264D01*
X0031483Y0166325D01*
X0031446Y0166384D01*
X0031407Y0166440D01*
X0031365Y0166495D01*
X0031320Y0166547D01*
X0031272Y0166596D01*
X0031221Y0166643D01*
X0031168Y0166686D01*
X0031112Y0166727D01*
X0031055Y0166765D01*
X0030995Y0166799D01*
X0030933Y0166830D01*
X0030870Y0166858D01*
X0030806Y0166882D01*
X0030740Y0166903D01*
X0030673Y0166920D01*
X0030606Y0166933D01*
X0030538Y0166942D01*
X0030469Y0166948D01*
X0030400Y0166950D01*
X0029150Y0166950D01*
X0029150Y0162450D01*
X0029450Y0217250D02*
X0029450Y0218500D01*
X0029450Y0217250D02*
X0033950Y0217250D01*
X0031950Y0217250D02*
X0031950Y0218500D01*
X0031950Y0218750D02*
X0033950Y0219750D01*
X0033950Y0221717D02*
X0033950Y0224217D01*
X0033950Y0222967D02*
X0029450Y0222967D01*
X0030450Y0221717D01*
X0029450Y0218500D02*
X0029452Y0218569D01*
X0029458Y0218638D01*
X0029467Y0218706D01*
X0029480Y0218773D01*
X0029497Y0218840D01*
X0029518Y0218906D01*
X0029542Y0218970D01*
X0029570Y0219033D01*
X0029601Y0219095D01*
X0029635Y0219155D01*
X0029673Y0219212D01*
X0029714Y0219268D01*
X0029757Y0219321D01*
X0029804Y0219372D01*
X0029853Y0219420D01*
X0029905Y0219465D01*
X0029960Y0219507D01*
X0030016Y0219546D01*
X0030075Y0219583D01*
X0030136Y0219615D01*
X0030198Y0219645D01*
X0030262Y0219671D01*
X0030327Y0219693D01*
X0030393Y0219712D01*
X0030460Y0219727D01*
X0030528Y0219738D01*
X0030597Y0219746D01*
X0030666Y0219750D01*
X0030734Y0219750D01*
X0030803Y0219746D01*
X0030872Y0219738D01*
X0030940Y0219727D01*
X0031007Y0219712D01*
X0031073Y0219693D01*
X0031138Y0219671D01*
X0031202Y0219645D01*
X0031264Y0219615D01*
X0031325Y0219583D01*
X0031384Y0219546D01*
X0031440Y0219507D01*
X0031495Y0219465D01*
X0031547Y0219420D01*
X0031596Y0219372D01*
X0031643Y0219321D01*
X0031686Y0219268D01*
X0031727Y0219212D01*
X0031765Y0219155D01*
X0031799Y0219095D01*
X0031830Y0219033D01*
X0031858Y0218970D01*
X0031882Y0218906D01*
X0031903Y0218840D01*
X0031920Y0218773D01*
X0031933Y0218706D01*
X0031942Y0218638D01*
X0031948Y0218569D01*
X0031950Y0218500D01*
X0032750Y0245450D02*
X0031250Y0249950D01*
X0029750Y0245450D01*
X0030125Y0246575D02*
X0032375Y0246575D01*
X0034683Y0247450D02*
X0035933Y0247450D01*
X0036183Y0247450D02*
X0037183Y0245450D01*
X0034683Y0245450D02*
X0034683Y0249950D01*
X0035933Y0249950D01*
X0036002Y0249948D01*
X0036071Y0249942D01*
X0036139Y0249933D01*
X0036206Y0249920D01*
X0036273Y0249903D01*
X0036339Y0249882D01*
X0036403Y0249858D01*
X0036466Y0249830D01*
X0036528Y0249799D01*
X0036588Y0249765D01*
X0036645Y0249727D01*
X0036701Y0249686D01*
X0036754Y0249643D01*
X0036805Y0249596D01*
X0036853Y0249547D01*
X0036898Y0249495D01*
X0036940Y0249440D01*
X0036979Y0249384D01*
X0037016Y0249325D01*
X0037048Y0249264D01*
X0037078Y0249202D01*
X0037104Y0249138D01*
X0037126Y0249073D01*
X0037145Y0249007D01*
X0037160Y0248940D01*
X0037171Y0248872D01*
X0037179Y0248803D01*
X0037183Y0248734D01*
X0037183Y0248666D01*
X0037179Y0248597D01*
X0037171Y0248528D01*
X0037160Y0248460D01*
X0037145Y0248393D01*
X0037126Y0248327D01*
X0037104Y0248262D01*
X0037078Y0248198D01*
X0037048Y0248136D01*
X0037016Y0248075D01*
X0036979Y0248016D01*
X0036940Y0247960D01*
X0036898Y0247905D01*
X0036853Y0247853D01*
X0036805Y0247804D01*
X0036754Y0247757D01*
X0036701Y0247714D01*
X0036645Y0247673D01*
X0036588Y0247635D01*
X0036528Y0247601D01*
X0036466Y0247570D01*
X0036403Y0247542D01*
X0036339Y0247518D01*
X0036273Y0247497D01*
X0036206Y0247480D01*
X0036139Y0247467D01*
X0036071Y0247458D01*
X0036002Y0247452D01*
X0035933Y0247450D01*
X0038850Y0249950D02*
X0041350Y0249950D01*
X0040100Y0249950D02*
X0040100Y0245450D01*
X0042850Y0244950D02*
X0044850Y0244950D01*
X0046800Y0246450D02*
X0046800Y0248950D01*
X0046802Y0249010D01*
X0046807Y0249071D01*
X0046816Y0249130D01*
X0046829Y0249189D01*
X0046845Y0249248D01*
X0046865Y0249305D01*
X0046888Y0249360D01*
X0046915Y0249415D01*
X0046944Y0249467D01*
X0046977Y0249518D01*
X0047013Y0249567D01*
X0047051Y0249613D01*
X0047093Y0249657D01*
X0047137Y0249699D01*
X0047183Y0249737D01*
X0047232Y0249773D01*
X0047283Y0249806D01*
X0047335Y0249835D01*
X0047390Y0249862D01*
X0047445Y0249885D01*
X0047502Y0249905D01*
X0047561Y0249921D01*
X0047620Y0249934D01*
X0047679Y0249943D01*
X0047740Y0249948D01*
X0047800Y0249950D01*
X0049300Y0249950D01*
X0049300Y0247950D02*
X0049300Y0245450D01*
X0047800Y0245450D01*
X0047740Y0245452D01*
X0047679Y0245457D01*
X0047620Y0245466D01*
X0047561Y0245479D01*
X0047502Y0245495D01*
X0047445Y0245515D01*
X0047390Y0245538D01*
X0047335Y0245565D01*
X0047283Y0245594D01*
X0047232Y0245627D01*
X0047183Y0245663D01*
X0047137Y0245701D01*
X0047093Y0245743D01*
X0047051Y0245787D01*
X0047013Y0245833D01*
X0046977Y0245882D01*
X0046944Y0245933D01*
X0046915Y0245985D01*
X0046888Y0246040D01*
X0046865Y0246095D01*
X0046845Y0246152D01*
X0046829Y0246211D01*
X0046816Y0246270D01*
X0046807Y0246329D01*
X0046802Y0246390D01*
X0046800Y0246450D01*
X0048550Y0247950D02*
X0049300Y0247950D01*
X0051600Y0249950D02*
X0051600Y0245450D01*
X0054100Y0245450D02*
X0054100Y0249950D01*
X0056400Y0249950D02*
X0057650Y0249950D01*
X0057718Y0249948D01*
X0057785Y0249943D01*
X0057852Y0249934D01*
X0057919Y0249921D01*
X0057984Y0249904D01*
X0058049Y0249885D01*
X0058113Y0249861D01*
X0058175Y0249834D01*
X0058236Y0249804D01*
X0058294Y0249771D01*
X0058351Y0249735D01*
X0058406Y0249695D01*
X0058459Y0249653D01*
X0058510Y0249607D01*
X0058557Y0249560D01*
X0058603Y0249509D01*
X0058645Y0249456D01*
X0058685Y0249401D01*
X0058721Y0249344D01*
X0058754Y0249286D01*
X0058784Y0249225D01*
X0058811Y0249163D01*
X0058835Y0249099D01*
X0058854Y0249034D01*
X0058871Y0248969D01*
X0058884Y0248902D01*
X0058893Y0248835D01*
X0058898Y0248768D01*
X0058900Y0248700D01*
X0058900Y0246700D01*
X0058898Y0246632D01*
X0058893Y0246565D01*
X0058884Y0246498D01*
X0058871Y0246431D01*
X0058854Y0246366D01*
X0058835Y0246301D01*
X0058811Y0246237D01*
X0058784Y0246175D01*
X0058754Y0246114D01*
X0058721Y0246056D01*
X0058685Y0245999D01*
X0058645Y0245944D01*
X0058603Y0245891D01*
X0058557Y0245840D01*
X0058510Y0245793D01*
X0058459Y0245747D01*
X0058406Y0245705D01*
X0058351Y0245665D01*
X0058294Y0245629D01*
X0058236Y0245596D01*
X0058175Y0245566D01*
X0058113Y0245539D01*
X0058049Y0245515D01*
X0057984Y0245496D01*
X0057919Y0245479D01*
X0057852Y0245466D01*
X0057785Y0245457D01*
X0057718Y0245452D01*
X0057650Y0245450D01*
X0056400Y0245450D01*
X0056400Y0249950D01*
X0051600Y0249950D02*
X0054100Y0245450D01*
X0060850Y0244950D02*
X0062850Y0244950D01*
X0064875Y0245450D02*
X0064875Y0249950D01*
X0066125Y0249950D01*
X0066194Y0249948D01*
X0066263Y0249942D01*
X0066331Y0249933D01*
X0066398Y0249920D01*
X0066465Y0249903D01*
X0066531Y0249882D01*
X0066595Y0249858D01*
X0066658Y0249830D01*
X0066720Y0249799D01*
X0066780Y0249765D01*
X0066837Y0249727D01*
X0066893Y0249686D01*
X0066946Y0249643D01*
X0066997Y0249596D01*
X0067045Y0249547D01*
X0067090Y0249495D01*
X0067132Y0249440D01*
X0067171Y0249384D01*
X0067208Y0249325D01*
X0067240Y0249264D01*
X0067270Y0249202D01*
X0067296Y0249138D01*
X0067318Y0249073D01*
X0067337Y0249007D01*
X0067352Y0248940D01*
X0067363Y0248872D01*
X0067371Y0248803D01*
X0067375Y0248734D01*
X0067375Y0248666D01*
X0067371Y0248597D01*
X0067363Y0248528D01*
X0067352Y0248460D01*
X0067337Y0248393D01*
X0067318Y0248327D01*
X0067296Y0248262D01*
X0067270Y0248198D01*
X0067240Y0248136D01*
X0067208Y0248075D01*
X0067171Y0248016D01*
X0067132Y0247960D01*
X0067090Y0247905D01*
X0067045Y0247853D01*
X0066997Y0247804D01*
X0066946Y0247757D01*
X0066893Y0247714D01*
X0066837Y0247673D01*
X0066780Y0247635D01*
X0066720Y0247601D01*
X0066658Y0247570D01*
X0066595Y0247542D01*
X0066531Y0247518D01*
X0066465Y0247497D01*
X0066398Y0247480D01*
X0066331Y0247467D01*
X0066263Y0247458D01*
X0066194Y0247452D01*
X0066125Y0247450D01*
X0064875Y0247450D01*
X0064810Y0248550D02*
X0066810Y0248550D01*
X0068710Y0248550D02*
X0068710Y0253050D01*
X0070710Y0253050D01*
X0072450Y0253050D02*
X0073950Y0253050D01*
X0074012Y0253048D01*
X0074073Y0253042D01*
X0074134Y0253033D01*
X0074194Y0253020D01*
X0074253Y0253003D01*
X0074311Y0252982D01*
X0074368Y0252958D01*
X0074423Y0252931D01*
X0074476Y0252900D01*
X0074528Y0252866D01*
X0074577Y0252829D01*
X0074624Y0252789D01*
X0074668Y0252746D01*
X0074709Y0252701D01*
X0074748Y0252653D01*
X0074784Y0252602D01*
X0074816Y0252550D01*
X0074845Y0252496D01*
X0074871Y0252440D01*
X0074893Y0252382D01*
X0074912Y0252324D01*
X0074927Y0252264D01*
X0074938Y0252203D01*
X0074946Y0252142D01*
X0074950Y0252081D01*
X0074950Y0252019D01*
X0074946Y0251958D01*
X0074938Y0251897D01*
X0074927Y0251836D01*
X0074912Y0251776D01*
X0074893Y0251718D01*
X0074871Y0251660D01*
X0074845Y0251604D01*
X0074816Y0251550D01*
X0074784Y0251498D01*
X0074748Y0251447D01*
X0074709Y0251399D01*
X0074668Y0251354D01*
X0074624Y0251311D01*
X0074577Y0251271D01*
X0074528Y0251234D01*
X0074476Y0251200D01*
X0074423Y0251169D01*
X0074368Y0251142D01*
X0074311Y0251118D01*
X0074253Y0251097D01*
X0074194Y0251080D01*
X0074134Y0251067D01*
X0074073Y0251058D01*
X0074012Y0251052D01*
X0073950Y0251050D01*
X0072950Y0251050D01*
X0072000Y0249950D02*
X0074500Y0245450D01*
X0074500Y0249950D01*
X0073700Y0251050D02*
X0073769Y0251048D01*
X0073838Y0251042D01*
X0073906Y0251033D01*
X0073973Y0251020D01*
X0074040Y0251003D01*
X0074106Y0250982D01*
X0074170Y0250958D01*
X0074233Y0250930D01*
X0074295Y0250899D01*
X0074355Y0250865D01*
X0074412Y0250827D01*
X0074468Y0250786D01*
X0074521Y0250743D01*
X0074572Y0250696D01*
X0074620Y0250647D01*
X0074665Y0250595D01*
X0074707Y0250540D01*
X0074746Y0250484D01*
X0074783Y0250425D01*
X0074815Y0250364D01*
X0074845Y0250302D01*
X0074871Y0250238D01*
X0074893Y0250173D01*
X0074912Y0250107D01*
X0074927Y0250040D01*
X0074938Y0249972D01*
X0074946Y0249903D01*
X0074950Y0249834D01*
X0074950Y0249766D01*
X0074946Y0249697D01*
X0074938Y0249628D01*
X0074927Y0249560D01*
X0074912Y0249493D01*
X0074893Y0249427D01*
X0074871Y0249362D01*
X0074845Y0249298D01*
X0074815Y0249236D01*
X0074783Y0249175D01*
X0074746Y0249116D01*
X0074707Y0249060D01*
X0074665Y0249005D01*
X0074620Y0248953D01*
X0074572Y0248904D01*
X0074521Y0248857D01*
X0074468Y0248814D01*
X0074412Y0248773D01*
X0074355Y0248735D01*
X0074295Y0248701D01*
X0074233Y0248670D01*
X0074170Y0248642D01*
X0074106Y0248618D01*
X0074040Y0248597D01*
X0073973Y0248580D01*
X0073906Y0248567D01*
X0073838Y0248558D01*
X0073769Y0248552D01*
X0073700Y0248550D01*
X0072450Y0248550D01*
X0072000Y0249950D02*
X0072000Y0245450D01*
X0070000Y0245450D02*
X0069000Y0245450D01*
X0069500Y0245450D02*
X0069500Y0249950D01*
X0069000Y0249950D02*
X0070000Y0249950D01*
X0070710Y0251050D02*
X0068710Y0251050D01*
X0064810Y0253050D02*
X0064810Y0248550D01*
X0076950Y0248550D02*
X0078200Y0248550D01*
X0078269Y0248552D01*
X0078338Y0248558D01*
X0078406Y0248567D01*
X0078473Y0248580D01*
X0078540Y0248597D01*
X0078606Y0248618D01*
X0078670Y0248642D01*
X0078733Y0248670D01*
X0078795Y0248701D01*
X0078855Y0248735D01*
X0078912Y0248773D01*
X0078968Y0248814D01*
X0079021Y0248857D01*
X0079072Y0248904D01*
X0079120Y0248953D01*
X0079165Y0249005D01*
X0079207Y0249060D01*
X0079246Y0249116D01*
X0079283Y0249175D01*
X0079315Y0249236D01*
X0079345Y0249298D01*
X0079371Y0249362D01*
X0079393Y0249427D01*
X0079412Y0249493D01*
X0079427Y0249560D01*
X0079438Y0249628D01*
X0079446Y0249697D01*
X0079450Y0249766D01*
X0079450Y0249834D01*
X0079446Y0249903D01*
X0079438Y0249972D01*
X0079427Y0250040D01*
X0079412Y0250107D01*
X0079393Y0250173D01*
X0079371Y0250238D01*
X0079345Y0250302D01*
X0079315Y0250364D01*
X0079283Y0250425D01*
X0079246Y0250484D01*
X0079207Y0250540D01*
X0079165Y0250595D01*
X0079120Y0250647D01*
X0079072Y0250696D01*
X0079021Y0250743D01*
X0078968Y0250786D01*
X0078912Y0250827D01*
X0078855Y0250865D01*
X0078795Y0250899D01*
X0078733Y0250930D01*
X0078670Y0250958D01*
X0078606Y0250982D01*
X0078540Y0251003D01*
X0078473Y0251020D01*
X0078406Y0251033D01*
X0078338Y0251042D01*
X0078269Y0251048D01*
X0078200Y0251050D01*
X0078450Y0251050D02*
X0077450Y0251050D01*
X0078450Y0251050D02*
X0078512Y0251052D01*
X0078573Y0251058D01*
X0078634Y0251067D01*
X0078694Y0251080D01*
X0078753Y0251097D01*
X0078811Y0251118D01*
X0078868Y0251142D01*
X0078923Y0251169D01*
X0078976Y0251200D01*
X0079028Y0251234D01*
X0079077Y0251271D01*
X0079124Y0251311D01*
X0079168Y0251354D01*
X0079209Y0251399D01*
X0079248Y0251447D01*
X0079284Y0251498D01*
X0079316Y0251550D01*
X0079345Y0251604D01*
X0079371Y0251660D01*
X0079393Y0251718D01*
X0079412Y0251776D01*
X0079427Y0251836D01*
X0079438Y0251897D01*
X0079446Y0251958D01*
X0079450Y0252019D01*
X0079450Y0252081D01*
X0079446Y0252142D01*
X0079438Y0252203D01*
X0079427Y0252264D01*
X0079412Y0252324D01*
X0079393Y0252382D01*
X0079371Y0252440D01*
X0079345Y0252496D01*
X0079316Y0252550D01*
X0079284Y0252602D01*
X0079248Y0252653D01*
X0079209Y0252701D01*
X0079168Y0252746D01*
X0079124Y0252789D01*
X0079077Y0252829D01*
X0079028Y0252866D01*
X0078976Y0252900D01*
X0078923Y0252931D01*
X0078868Y0252958D01*
X0078811Y0252982D01*
X0078753Y0253003D01*
X0078694Y0253020D01*
X0078634Y0253033D01*
X0078573Y0253042D01*
X0078512Y0253048D01*
X0078450Y0253050D01*
X0076950Y0253050D01*
X0081435Y0252050D02*
X0081435Y0249550D01*
X0081437Y0249490D01*
X0081442Y0249429D01*
X0081451Y0249370D01*
X0081464Y0249311D01*
X0081480Y0249252D01*
X0081500Y0249195D01*
X0081523Y0249140D01*
X0081550Y0249085D01*
X0081579Y0249033D01*
X0081612Y0248982D01*
X0081648Y0248933D01*
X0081686Y0248887D01*
X0081728Y0248843D01*
X0081772Y0248801D01*
X0081818Y0248763D01*
X0081867Y0248727D01*
X0081918Y0248694D01*
X0081970Y0248665D01*
X0082025Y0248638D01*
X0082080Y0248615D01*
X0082137Y0248595D01*
X0082196Y0248579D01*
X0082255Y0248566D01*
X0082314Y0248557D01*
X0082375Y0248552D01*
X0082435Y0248550D01*
X0083435Y0248550D01*
X0086450Y0248550D02*
X0087950Y0253050D01*
X0084950Y0253050D02*
X0086450Y0248550D01*
X0082435Y0253050D02*
X0082375Y0253048D01*
X0082314Y0253043D01*
X0082255Y0253034D01*
X0082196Y0253021D01*
X0082137Y0253005D01*
X0082080Y0252985D01*
X0082025Y0252962D01*
X0081970Y0252935D01*
X0081918Y0252906D01*
X0081867Y0252873D01*
X0081818Y0252837D01*
X0081772Y0252799D01*
X0081728Y0252757D01*
X0081686Y0252713D01*
X0081648Y0252667D01*
X0081612Y0252618D01*
X0081579Y0252567D01*
X0081550Y0252515D01*
X0081523Y0252460D01*
X0081500Y0252405D01*
X0081480Y0252348D01*
X0081464Y0252289D01*
X0081451Y0252230D01*
X0081442Y0252171D01*
X0081437Y0252110D01*
X0081435Y0252050D01*
X0082435Y0253050D02*
X0083435Y0253050D01*
X0087685Y0202750D02*
X0088685Y0202750D01*
X0087685Y0202750D02*
X0087625Y0202748D01*
X0087564Y0202743D01*
X0087505Y0202734D01*
X0087446Y0202721D01*
X0087387Y0202705D01*
X0087330Y0202685D01*
X0087275Y0202662D01*
X0087220Y0202635D01*
X0087168Y0202606D01*
X0087117Y0202573D01*
X0087068Y0202537D01*
X0087022Y0202499D01*
X0086978Y0202457D01*
X0086936Y0202413D01*
X0086898Y0202367D01*
X0086862Y0202318D01*
X0086829Y0202267D01*
X0086800Y0202215D01*
X0086773Y0202160D01*
X0086750Y0202105D01*
X0086730Y0202048D01*
X0086714Y0201989D01*
X0086701Y0201930D01*
X0086692Y0201871D01*
X0086687Y0201810D01*
X0086685Y0201750D01*
X0086685Y0199250D01*
X0086687Y0199190D01*
X0086692Y0199129D01*
X0086701Y0199070D01*
X0086714Y0199011D01*
X0086730Y0198952D01*
X0086750Y0198895D01*
X0086773Y0198840D01*
X0086800Y0198785D01*
X0086829Y0198733D01*
X0086862Y0198682D01*
X0086898Y0198633D01*
X0086936Y0198587D01*
X0086978Y0198543D01*
X0087022Y0198501D01*
X0087068Y0198463D01*
X0087117Y0198427D01*
X0087168Y0198394D01*
X0087220Y0198365D01*
X0087275Y0198338D01*
X0087330Y0198315D01*
X0087387Y0198295D01*
X0087446Y0198279D01*
X0087505Y0198266D01*
X0087564Y0198257D01*
X0087625Y0198252D01*
X0087685Y0198250D01*
X0088685Y0198250D01*
X0090450Y0199250D02*
X0092950Y0199250D01*
X0092200Y0200250D02*
X0092200Y0198250D01*
X0090450Y0199250D02*
X0091450Y0202750D01*
X0027650Y0247325D02*
X0026275Y0248075D01*
X0026775Y0249950D02*
X0026855Y0249948D01*
X0026936Y0249943D01*
X0027016Y0249934D01*
X0027095Y0249922D01*
X0027174Y0249907D01*
X0027252Y0249888D01*
X0027330Y0249866D01*
X0027406Y0249841D01*
X0027481Y0249812D01*
X0027555Y0249780D01*
X0027627Y0249745D01*
X0027698Y0249707D01*
X0027767Y0249666D01*
X0027835Y0249622D01*
X0027900Y0249575D01*
X0026275Y0248075D02*
X0026223Y0248108D01*
X0026172Y0248144D01*
X0026124Y0248183D01*
X0026079Y0248225D01*
X0026036Y0248270D01*
X0025996Y0248318D01*
X0025959Y0248367D01*
X0025925Y0248419D01*
X0025894Y0248473D01*
X0025866Y0248529D01*
X0025842Y0248586D01*
X0025822Y0248645D01*
X0025805Y0248704D01*
X0025792Y0248765D01*
X0025783Y0248826D01*
X0025777Y0248888D01*
X0025775Y0248950D01*
X0025777Y0249010D01*
X0025782Y0249071D01*
X0025791Y0249130D01*
X0025804Y0249189D01*
X0025820Y0249248D01*
X0025840Y0249305D01*
X0025863Y0249360D01*
X0025890Y0249415D01*
X0025919Y0249467D01*
X0025952Y0249518D01*
X0025988Y0249567D01*
X0026026Y0249613D01*
X0026068Y0249657D01*
X0026112Y0249699D01*
X0026158Y0249737D01*
X0026207Y0249773D01*
X0026258Y0249806D01*
X0026310Y0249835D01*
X0026365Y0249862D01*
X0026420Y0249885D01*
X0026477Y0249905D01*
X0026536Y0249921D01*
X0026595Y0249934D01*
X0026654Y0249943D01*
X0026715Y0249948D01*
X0026775Y0249950D01*
X0025650Y0246074D02*
X0025713Y0246013D01*
X0025778Y0245955D01*
X0025846Y0245899D01*
X0025917Y0245846D01*
X0025989Y0245797D01*
X0026063Y0245750D01*
X0026139Y0245706D01*
X0026217Y0245666D01*
X0026297Y0245629D01*
X0026378Y0245595D01*
X0026460Y0245565D01*
X0026544Y0245538D01*
X0026629Y0245514D01*
X0026714Y0245494D01*
X0026800Y0245478D01*
X0026887Y0245465D01*
X0026975Y0245456D01*
X0027062Y0245451D01*
X0027150Y0245449D01*
X0027150Y0245450D02*
X0027210Y0245452D01*
X0027271Y0245457D01*
X0027330Y0245466D01*
X0027389Y0245479D01*
X0027448Y0245495D01*
X0027505Y0245515D01*
X0027560Y0245538D01*
X0027615Y0245565D01*
X0027667Y0245594D01*
X0027718Y0245627D01*
X0027767Y0245663D01*
X0027813Y0245701D01*
X0027857Y0245743D01*
X0027899Y0245787D01*
X0027937Y0245833D01*
X0027973Y0245882D01*
X0028006Y0245933D01*
X0028035Y0245985D01*
X0028062Y0246040D01*
X0028085Y0246095D01*
X0028105Y0246152D01*
X0028121Y0246211D01*
X0028134Y0246270D01*
X0028143Y0246329D01*
X0028148Y0246390D01*
X0028150Y0246450D01*
X0028148Y0246512D01*
X0028142Y0246574D01*
X0028133Y0246635D01*
X0028120Y0246696D01*
X0028103Y0246755D01*
X0028083Y0246814D01*
X0028059Y0246871D01*
X0028031Y0246927D01*
X0028000Y0246981D01*
X0027966Y0247033D01*
X0027929Y0247082D01*
X0027889Y0247130D01*
X0027846Y0247175D01*
X0027801Y0247217D01*
X0027753Y0247256D01*
X0027702Y0247292D01*
X0027650Y0247325D01*
X0023650Y0246700D02*
X0023650Y0249950D01*
X0021150Y0249950D02*
X0021150Y0246700D01*
X0021152Y0246631D01*
X0021158Y0246562D01*
X0021167Y0246494D01*
X0021180Y0246427D01*
X0021197Y0246360D01*
X0021218Y0246294D01*
X0021242Y0246230D01*
X0021270Y0246167D01*
X0021301Y0246105D01*
X0021335Y0246045D01*
X0021373Y0245988D01*
X0021414Y0245932D01*
X0021457Y0245879D01*
X0021504Y0245828D01*
X0021553Y0245780D01*
X0021605Y0245735D01*
X0021660Y0245693D01*
X0021716Y0245654D01*
X0021775Y0245617D01*
X0021836Y0245585D01*
X0021898Y0245555D01*
X0021962Y0245529D01*
X0022027Y0245507D01*
X0022093Y0245488D01*
X0022160Y0245473D01*
X0022228Y0245462D01*
X0022297Y0245454D01*
X0022366Y0245450D01*
X0022434Y0245450D01*
X0022503Y0245454D01*
X0022572Y0245462D01*
X0022640Y0245473D01*
X0022707Y0245488D01*
X0022773Y0245507D01*
X0022838Y0245529D01*
X0022902Y0245555D01*
X0022964Y0245585D01*
X0023025Y0245617D01*
X0023084Y0245654D01*
X0023140Y0245693D01*
X0023195Y0245735D01*
X0023247Y0245780D01*
X0023296Y0245828D01*
X0023343Y0245879D01*
X0023386Y0245932D01*
X0023427Y0245988D01*
X0023465Y0246045D01*
X0023499Y0246105D01*
X0023530Y0246167D01*
X0023558Y0246230D01*
X0023582Y0246294D01*
X0023603Y0246360D01*
X0023620Y0246427D01*
X0023633Y0246494D01*
X0023642Y0246562D01*
X0023648Y0246631D01*
X0023650Y0246700D01*
X0163457Y0263621D02*
X0163457Y0216321D01*
X0163479Y0216300D02*
X0225279Y0216300D01*
X0225357Y0216321D02*
X0225357Y0263621D01*
X0225179Y0263700D02*
X0163579Y0263700D01*
X0196200Y0260000D02*
X0221200Y0257500D01*
X0221200Y0245000D01*
X0196200Y0242500D01*
X0196200Y0237500D02*
X0221200Y0235000D01*
X0221200Y0222500D01*
X0196200Y0220000D01*
X0205950Y0201750D02*
X0206200Y0201750D01*
X0205950Y0201750D02*
X0205890Y0201748D01*
X0205829Y0201743D01*
X0205770Y0201734D01*
X0205711Y0201721D01*
X0205652Y0201705D01*
X0205595Y0201685D01*
X0205540Y0201662D01*
X0205485Y0201635D01*
X0205433Y0201606D01*
X0205382Y0201573D01*
X0205333Y0201537D01*
X0205287Y0201499D01*
X0205243Y0201457D01*
X0205201Y0201413D01*
X0205163Y0201367D01*
X0205127Y0201318D01*
X0205094Y0201267D01*
X0205065Y0201215D01*
X0205038Y0201160D01*
X0205015Y0201105D01*
X0204995Y0201048D01*
X0204979Y0200989D01*
X0204966Y0200930D01*
X0204957Y0200871D01*
X0204952Y0200810D01*
X0204950Y0200750D01*
X0204950Y0199250D01*
X0206200Y0199250D01*
X0206269Y0199252D01*
X0206338Y0199258D01*
X0206406Y0199267D01*
X0206473Y0199280D01*
X0206540Y0199297D01*
X0206606Y0199318D01*
X0206670Y0199342D01*
X0206733Y0199370D01*
X0206795Y0199401D01*
X0206855Y0199435D01*
X0206912Y0199473D01*
X0206968Y0199514D01*
X0207021Y0199557D01*
X0207072Y0199604D01*
X0207120Y0199653D01*
X0207165Y0199705D01*
X0207207Y0199760D01*
X0207246Y0199816D01*
X0207283Y0199875D01*
X0207315Y0199936D01*
X0207345Y0199998D01*
X0207371Y0200062D01*
X0207393Y0200127D01*
X0207412Y0200193D01*
X0207427Y0200260D01*
X0207438Y0200328D01*
X0207446Y0200397D01*
X0207450Y0200466D01*
X0207450Y0200534D01*
X0207446Y0200603D01*
X0207438Y0200672D01*
X0207427Y0200740D01*
X0207412Y0200807D01*
X0207393Y0200873D01*
X0207371Y0200938D01*
X0207345Y0201002D01*
X0207315Y0201064D01*
X0207283Y0201125D01*
X0207246Y0201184D01*
X0207207Y0201240D01*
X0207165Y0201295D01*
X0207120Y0201347D01*
X0207072Y0201396D01*
X0207021Y0201443D01*
X0206968Y0201486D01*
X0206912Y0201527D01*
X0206855Y0201565D01*
X0206795Y0201599D01*
X0206733Y0201630D01*
X0206670Y0201658D01*
X0206606Y0201682D01*
X0206540Y0201703D01*
X0206473Y0201720D01*
X0206406Y0201733D01*
X0206338Y0201742D01*
X0206269Y0201748D01*
X0206200Y0201750D01*
X0204950Y0199250D02*
X0204863Y0199252D01*
X0204776Y0199258D01*
X0204689Y0199267D01*
X0204603Y0199280D01*
X0204517Y0199297D01*
X0204432Y0199318D01*
X0204349Y0199343D01*
X0204266Y0199371D01*
X0204185Y0199402D01*
X0204105Y0199437D01*
X0204027Y0199476D01*
X0203950Y0199518D01*
X0203875Y0199563D01*
X0203803Y0199612D01*
X0203732Y0199663D01*
X0203664Y0199718D01*
X0203599Y0199775D01*
X0203536Y0199836D01*
X0203475Y0199899D01*
X0203418Y0199964D01*
X0203363Y0200032D01*
X0203312Y0200103D01*
X0203263Y0200175D01*
X0203218Y0200250D01*
X0203176Y0200327D01*
X0203137Y0200405D01*
X0203102Y0200485D01*
X0203071Y0200566D01*
X0203043Y0200649D01*
X0203018Y0200732D01*
X0202997Y0200817D01*
X0202980Y0200903D01*
X0202967Y0200989D01*
X0202958Y0201076D01*
X0202952Y0201163D01*
X0202950Y0201250D01*
X0202950Y0191750D02*
X0202950Y0189250D01*
X0204950Y0189250D01*
X0204950Y0190750D01*
X0204952Y0190810D01*
X0204957Y0190871D01*
X0204966Y0190930D01*
X0204979Y0190989D01*
X0204995Y0191048D01*
X0205015Y0191105D01*
X0205038Y0191160D01*
X0205065Y0191215D01*
X0205094Y0191267D01*
X0205127Y0191318D01*
X0205163Y0191367D01*
X0205201Y0191413D01*
X0205243Y0191457D01*
X0205287Y0191499D01*
X0205333Y0191537D01*
X0205382Y0191573D01*
X0205433Y0191606D01*
X0205485Y0191635D01*
X0205540Y0191662D01*
X0205595Y0191685D01*
X0205652Y0191705D01*
X0205711Y0191721D01*
X0205770Y0191734D01*
X0205829Y0191743D01*
X0205890Y0191748D01*
X0205950Y0191750D01*
X0206450Y0191750D01*
X0206510Y0191748D01*
X0206571Y0191743D01*
X0206630Y0191734D01*
X0206689Y0191721D01*
X0206748Y0191705D01*
X0206805Y0191685D01*
X0206860Y0191662D01*
X0206915Y0191635D01*
X0206967Y0191606D01*
X0207018Y0191573D01*
X0207067Y0191537D01*
X0207113Y0191499D01*
X0207157Y0191457D01*
X0207199Y0191413D01*
X0207237Y0191367D01*
X0207273Y0191318D01*
X0207306Y0191267D01*
X0207335Y0191215D01*
X0207362Y0191160D01*
X0207385Y0191105D01*
X0207405Y0191048D01*
X0207421Y0190989D01*
X0207434Y0190930D01*
X0207443Y0190871D01*
X0207448Y0190810D01*
X0207450Y0190750D01*
X0207450Y0189250D01*
X0206450Y0181750D02*
X0206450Y0179250D01*
X0202950Y0180250D01*
X0205450Y0181000D02*
X0207450Y0181000D01*
X0207450Y0170500D02*
X0207450Y0169250D01*
X0207450Y0170500D02*
X0207448Y0170569D01*
X0207442Y0170638D01*
X0207433Y0170706D01*
X0207420Y0170773D01*
X0207403Y0170840D01*
X0207382Y0170906D01*
X0207358Y0170970D01*
X0207330Y0171033D01*
X0207299Y0171095D01*
X0207265Y0171155D01*
X0207227Y0171212D01*
X0207186Y0171268D01*
X0207143Y0171321D01*
X0207096Y0171372D01*
X0207047Y0171420D01*
X0206995Y0171465D01*
X0206940Y0171507D01*
X0206884Y0171546D01*
X0206825Y0171583D01*
X0206764Y0171615D01*
X0206702Y0171645D01*
X0206638Y0171671D01*
X0206573Y0171693D01*
X0206507Y0171712D01*
X0206440Y0171727D01*
X0206372Y0171738D01*
X0206303Y0171746D01*
X0206234Y0171750D01*
X0206166Y0171750D01*
X0206097Y0171746D01*
X0206028Y0171738D01*
X0205960Y0171727D01*
X0205893Y0171712D01*
X0205827Y0171693D01*
X0205762Y0171671D01*
X0205698Y0171645D01*
X0205636Y0171615D01*
X0205575Y0171583D01*
X0205516Y0171546D01*
X0205460Y0171507D01*
X0205405Y0171465D01*
X0205353Y0171420D01*
X0205304Y0171372D01*
X0205257Y0171321D01*
X0205214Y0171268D01*
X0205173Y0171212D01*
X0205135Y0171155D01*
X0205101Y0171095D01*
X0205070Y0171033D01*
X0205042Y0170970D01*
X0205018Y0170906D01*
X0204997Y0170840D01*
X0204980Y0170773D01*
X0204967Y0170706D01*
X0204958Y0170638D01*
X0204952Y0170569D01*
X0204950Y0170500D01*
X0204950Y0170750D02*
X0204950Y0169750D01*
X0204950Y0170750D02*
X0204948Y0170812D01*
X0204942Y0170873D01*
X0204933Y0170934D01*
X0204920Y0170994D01*
X0204903Y0171053D01*
X0204882Y0171111D01*
X0204858Y0171168D01*
X0204831Y0171223D01*
X0204800Y0171276D01*
X0204766Y0171328D01*
X0204729Y0171377D01*
X0204689Y0171424D01*
X0204646Y0171468D01*
X0204601Y0171509D01*
X0204553Y0171548D01*
X0204502Y0171584D01*
X0204450Y0171616D01*
X0204396Y0171645D01*
X0204340Y0171671D01*
X0204282Y0171693D01*
X0204224Y0171712D01*
X0204164Y0171727D01*
X0204103Y0171738D01*
X0204042Y0171746D01*
X0203981Y0171750D01*
X0203919Y0171750D01*
X0203858Y0171746D01*
X0203797Y0171738D01*
X0203736Y0171727D01*
X0203676Y0171712D01*
X0203618Y0171693D01*
X0203560Y0171671D01*
X0203504Y0171645D01*
X0203450Y0171616D01*
X0203398Y0171584D01*
X0203347Y0171548D01*
X0203299Y0171509D01*
X0203254Y0171468D01*
X0203211Y0171424D01*
X0203171Y0171377D01*
X0203134Y0171328D01*
X0203100Y0171276D01*
X0203069Y0171223D01*
X0203042Y0171168D01*
X0203018Y0171111D01*
X0202997Y0171053D01*
X0202980Y0170994D01*
X0202967Y0170934D01*
X0202958Y0170873D01*
X0202952Y0170812D01*
X0202950Y0170750D01*
X0202950Y0169250D01*
X0204950Y0161375D02*
X0207450Y0159250D01*
X0207450Y0161750D01*
X0203950Y0159250D02*
X0203881Y0159274D01*
X0203814Y0159302D01*
X0203748Y0159333D01*
X0203684Y0159367D01*
X0203622Y0159404D01*
X0203561Y0159445D01*
X0203503Y0159488D01*
X0203447Y0159534D01*
X0203393Y0159584D01*
X0203342Y0159635D01*
X0203294Y0159689D01*
X0203248Y0159746D01*
X0203205Y0159805D01*
X0203166Y0159866D01*
X0203129Y0159928D01*
X0203096Y0159993D01*
X0203065Y0160059D01*
X0203039Y0160127D01*
X0203015Y0160195D01*
X0202995Y0160265D01*
X0202979Y0160336D01*
X0202966Y0160408D01*
X0202957Y0160480D01*
X0202952Y0160552D01*
X0202950Y0160625D01*
X0202952Y0160690D01*
X0202958Y0160756D01*
X0202967Y0160820D01*
X0202980Y0160884D01*
X0202997Y0160948D01*
X0203018Y0161010D01*
X0203042Y0161071D01*
X0203070Y0161130D01*
X0203101Y0161188D01*
X0203135Y0161243D01*
X0203173Y0161297D01*
X0203213Y0161348D01*
X0203257Y0161397D01*
X0203303Y0161443D01*
X0203352Y0161487D01*
X0203403Y0161527D01*
X0203457Y0161565D01*
X0203513Y0161599D01*
X0203570Y0161630D01*
X0203629Y0161658D01*
X0203690Y0161682D01*
X0203752Y0161703D01*
X0203816Y0161720D01*
X0203880Y0161733D01*
X0203944Y0161742D01*
X0204010Y0161748D01*
X0204075Y0161750D01*
X0204140Y0161748D01*
X0204205Y0161743D01*
X0204270Y0161734D01*
X0204334Y0161722D01*
X0204397Y0161706D01*
X0204459Y0161687D01*
X0204521Y0161665D01*
X0204581Y0161639D01*
X0204639Y0161610D01*
X0204696Y0161578D01*
X0204751Y0161543D01*
X0204804Y0161505D01*
X0204855Y0161465D01*
X0204904Y0161421D01*
X0204950Y0161375D01*
X0207450Y0151750D02*
X0207450Y0149250D01*
X0207450Y0150500D02*
X0202950Y0150500D01*
X0203950Y0149250D01*
X0178950Y0150104D02*
X0174450Y0150104D01*
X0174450Y0151354D01*
X0174452Y0151423D01*
X0174458Y0151492D01*
X0174467Y0151560D01*
X0174480Y0151627D01*
X0174497Y0151694D01*
X0174518Y0151760D01*
X0174542Y0151824D01*
X0174570Y0151887D01*
X0174601Y0151949D01*
X0174635Y0152009D01*
X0174673Y0152066D01*
X0174714Y0152122D01*
X0174757Y0152175D01*
X0174804Y0152226D01*
X0174853Y0152274D01*
X0174905Y0152319D01*
X0174960Y0152361D01*
X0175016Y0152400D01*
X0175075Y0152437D01*
X0175136Y0152469D01*
X0175198Y0152499D01*
X0175262Y0152525D01*
X0175327Y0152547D01*
X0175393Y0152566D01*
X0175460Y0152581D01*
X0175528Y0152592D01*
X0175597Y0152600D01*
X0175666Y0152604D01*
X0175734Y0152604D01*
X0175803Y0152600D01*
X0175872Y0152592D01*
X0175940Y0152581D01*
X0176007Y0152566D01*
X0176073Y0152547D01*
X0176138Y0152525D01*
X0176202Y0152499D01*
X0176264Y0152469D01*
X0176325Y0152437D01*
X0176384Y0152400D01*
X0176440Y0152361D01*
X0176495Y0152319D01*
X0176547Y0152274D01*
X0176596Y0152226D01*
X0176643Y0152175D01*
X0176686Y0152122D01*
X0176727Y0152066D01*
X0176765Y0152009D01*
X0176799Y0151949D01*
X0176830Y0151887D01*
X0176858Y0151824D01*
X0176882Y0151760D01*
X0176903Y0151694D01*
X0176920Y0151627D01*
X0176933Y0151560D01*
X0176942Y0151492D01*
X0176948Y0151423D01*
X0176950Y0151354D01*
X0176950Y0150104D01*
X0177950Y0147750D02*
X0174450Y0147750D01*
X0177950Y0147750D02*
X0178010Y0147748D01*
X0178071Y0147743D01*
X0178130Y0147734D01*
X0178189Y0147721D01*
X0178248Y0147705D01*
X0178305Y0147685D01*
X0178360Y0147662D01*
X0178415Y0147635D01*
X0178467Y0147606D01*
X0178518Y0147573D01*
X0178567Y0147537D01*
X0178613Y0147499D01*
X0178657Y0147457D01*
X0178699Y0147413D01*
X0178737Y0147367D01*
X0178773Y0147318D01*
X0178806Y0147267D01*
X0178835Y0147215D01*
X0178862Y0147160D01*
X0178885Y0147105D01*
X0178905Y0147048D01*
X0178921Y0146989D01*
X0178934Y0146930D01*
X0178943Y0146871D01*
X0178948Y0146810D01*
X0178950Y0146750D01*
X0178950Y0146250D01*
X0178950Y0154379D02*
X0178950Y0156879D01*
X0178950Y0155629D02*
X0174450Y0155629D01*
X0175450Y0154379D01*
D14*
X0078052Y0185950D02*
X0074552Y0185950D01*
X0076302Y0185950D02*
X0076302Y0192250D01*
X0074552Y0190850D01*
X0072206Y0192250D02*
X0070806Y0192250D01*
X0070733Y0192248D01*
X0070660Y0192242D01*
X0070587Y0192233D01*
X0070515Y0192219D01*
X0070444Y0192202D01*
X0070373Y0192181D01*
X0070304Y0192157D01*
X0070237Y0192129D01*
X0070170Y0192097D01*
X0070106Y0192062D01*
X0070044Y0192024D01*
X0069983Y0191983D01*
X0069925Y0191938D01*
X0069869Y0191890D01*
X0069816Y0191840D01*
X0069766Y0191787D01*
X0069718Y0191731D01*
X0069673Y0191673D01*
X0069632Y0191612D01*
X0069594Y0191550D01*
X0069559Y0191486D01*
X0069527Y0191419D01*
X0069499Y0191352D01*
X0069475Y0191283D01*
X0069454Y0191212D01*
X0069437Y0191141D01*
X0069423Y0191069D01*
X0069414Y0190996D01*
X0069408Y0190923D01*
X0069406Y0190850D01*
X0069406Y0187350D01*
X0069408Y0187277D01*
X0069414Y0187204D01*
X0069423Y0187131D01*
X0069437Y0187059D01*
X0069454Y0186988D01*
X0069475Y0186917D01*
X0069499Y0186848D01*
X0069527Y0186781D01*
X0069559Y0186714D01*
X0069594Y0186650D01*
X0069632Y0186588D01*
X0069673Y0186527D01*
X0069718Y0186469D01*
X0069766Y0186413D01*
X0069816Y0186360D01*
X0069869Y0186310D01*
X0069925Y0186262D01*
X0069983Y0186217D01*
X0070044Y0186176D01*
X0070106Y0186138D01*
X0070170Y0186103D01*
X0070237Y0186071D01*
X0070304Y0186043D01*
X0070373Y0186019D01*
X0070444Y0185998D01*
X0070515Y0185981D01*
X0070587Y0185967D01*
X0070660Y0185958D01*
X0070733Y0185952D01*
X0070806Y0185950D01*
X0072206Y0185950D01*
X0066950Y0185950D02*
X0065550Y0185950D01*
X0066250Y0185950D02*
X0066250Y0192250D01*
X0065550Y0192250D02*
X0066950Y0192250D01*
D15*
X0086400Y0244600D03*
D16*
X0085450Y0232500D03*
X0050950Y0232500D03*
D17*
X0058200Y0231500D03*
X0068200Y0231500D03*
X0078200Y0231500D03*
D18*
X0073200Y0232500D03*
X0063200Y0232500D03*
D19*
X0036200Y0185000D02*
X0035200Y0185000D01*
X0035200Y0175000D01*
X0036200Y0175000D01*
X0013200Y0175500D02*
X0012200Y0175500D01*
X0013200Y0175500D02*
X0013200Y0185000D01*
X0012200Y0185000D01*
X0022200Y0106500D02*
X0022200Y0079500D01*
X0022202Y0079330D01*
X0022208Y0079159D01*
X0022219Y0078989D01*
X0022233Y0078819D01*
X0022252Y0078650D01*
X0022275Y0078481D01*
X0022301Y0078312D01*
X0022332Y0078145D01*
X0022367Y0077978D01*
X0022407Y0077812D01*
X0022450Y0077647D01*
X0022497Y0077483D01*
X0022548Y0077321D01*
X0022603Y0077159D01*
X0022662Y0076999D01*
X0022725Y0076841D01*
X0022791Y0076684D01*
X0022862Y0076529D01*
X0022936Y0076375D01*
X0023014Y0076224D01*
X0023096Y0076074D01*
X0023181Y0075926D01*
X0023270Y0075781D01*
X0023362Y0075638D01*
X0023458Y0075497D01*
X0023557Y0075358D01*
X0023660Y0075222D01*
X0023765Y0075088D01*
X0023874Y0074957D01*
X0023987Y0074829D01*
X0024102Y0074703D01*
X0024220Y0074580D01*
X0024341Y0074461D01*
X0024466Y0074344D01*
X0024593Y0074230D01*
X0024722Y0074119D01*
X0024855Y0074012D01*
X0024990Y0073908D01*
X0025127Y0073807D01*
X0025267Y0073709D01*
X0025409Y0073615D01*
X0025553Y0073525D01*
X0025700Y0073438D01*
X0025849Y0073354D01*
X0025999Y0073275D01*
X0026152Y0073199D01*
X0026306Y0073126D01*
X0026462Y0073058D01*
X0026620Y0072993D01*
X0026779Y0072932D01*
X0026940Y0072875D01*
X0027102Y0072822D01*
X0027265Y0072773D01*
X0027429Y0072728D01*
X0027595Y0072687D01*
X0027761Y0072649D01*
X0027929Y0072616D01*
X0028097Y0072588D01*
X0028265Y0072563D01*
X0028434Y0072542D01*
X0028604Y0072525D01*
X0028774Y0072513D01*
X0028944Y0072505D01*
X0029115Y0072501D01*
X0029285Y0072501D01*
X0029456Y0072505D01*
X0029626Y0072513D01*
X0029796Y0072525D01*
X0029966Y0072542D01*
X0030135Y0072563D01*
X0030303Y0072588D01*
X0030471Y0072616D01*
X0030639Y0072649D01*
X0030805Y0072687D01*
X0030971Y0072728D01*
X0031135Y0072773D01*
X0031298Y0072822D01*
X0031460Y0072875D01*
X0031621Y0072932D01*
X0031780Y0072993D01*
X0031938Y0073058D01*
X0032094Y0073126D01*
X0032248Y0073199D01*
X0032401Y0073275D01*
X0032551Y0073354D01*
X0032700Y0073438D01*
X0032847Y0073525D01*
X0032991Y0073615D01*
X0033133Y0073709D01*
X0033273Y0073807D01*
X0033410Y0073908D01*
X0033545Y0074012D01*
X0033678Y0074119D01*
X0033807Y0074230D01*
X0033934Y0074344D01*
X0034059Y0074461D01*
X0034180Y0074580D01*
X0034298Y0074703D01*
X0034413Y0074829D01*
X0034526Y0074957D01*
X0034635Y0075088D01*
X0034740Y0075222D01*
X0034843Y0075358D01*
X0034942Y0075497D01*
X0035038Y0075638D01*
X0035130Y0075781D01*
X0035219Y0075926D01*
X0035304Y0076074D01*
X0035386Y0076224D01*
X0035464Y0076375D01*
X0035538Y0076529D01*
X0035609Y0076684D01*
X0035675Y0076841D01*
X0035738Y0076999D01*
X0035797Y0077159D01*
X0035852Y0077321D01*
X0035903Y0077483D01*
X0035950Y0077647D01*
X0035993Y0077812D01*
X0036033Y0077978D01*
X0036068Y0078145D01*
X0036099Y0078312D01*
X0036125Y0078481D01*
X0036148Y0078650D01*
X0036167Y0078819D01*
X0036181Y0078989D01*
X0036192Y0079159D01*
X0036198Y0079330D01*
X0036200Y0079500D01*
X0036200Y0106500D01*
X0036198Y0106670D01*
X0036192Y0106841D01*
X0036181Y0107011D01*
X0036167Y0107181D01*
X0036148Y0107350D01*
X0036125Y0107519D01*
X0036099Y0107688D01*
X0036068Y0107855D01*
X0036033Y0108022D01*
X0035993Y0108188D01*
X0035950Y0108353D01*
X0035903Y0108517D01*
X0035852Y0108679D01*
X0035797Y0108841D01*
X0035738Y0109001D01*
X0035675Y0109159D01*
X0035609Y0109316D01*
X0035538Y0109471D01*
X0035464Y0109625D01*
X0035386Y0109776D01*
X0035304Y0109926D01*
X0035219Y0110074D01*
X0035130Y0110219D01*
X0035038Y0110362D01*
X0034942Y0110503D01*
X0034843Y0110642D01*
X0034740Y0110778D01*
X0034635Y0110912D01*
X0034526Y0111043D01*
X0034413Y0111171D01*
X0034298Y0111297D01*
X0034180Y0111420D01*
X0034059Y0111539D01*
X0033934Y0111656D01*
X0033807Y0111770D01*
X0033678Y0111881D01*
X0033545Y0111988D01*
X0033410Y0112092D01*
X0033273Y0112193D01*
X0033133Y0112291D01*
X0032991Y0112385D01*
X0032847Y0112475D01*
X0032700Y0112562D01*
X0032551Y0112646D01*
X0032401Y0112725D01*
X0032248Y0112801D01*
X0032094Y0112874D01*
X0031938Y0112942D01*
X0031780Y0113007D01*
X0031621Y0113068D01*
X0031460Y0113125D01*
X0031298Y0113178D01*
X0031135Y0113227D01*
X0030971Y0113272D01*
X0030805Y0113313D01*
X0030639Y0113351D01*
X0030471Y0113384D01*
X0030303Y0113412D01*
X0030135Y0113437D01*
X0029966Y0113458D01*
X0029796Y0113475D01*
X0029626Y0113487D01*
X0029456Y0113495D01*
X0029285Y0113499D01*
X0029115Y0113499D01*
X0028944Y0113495D01*
X0028774Y0113487D01*
X0028604Y0113475D01*
X0028434Y0113458D01*
X0028265Y0113437D01*
X0028097Y0113412D01*
X0027929Y0113384D01*
X0027761Y0113351D01*
X0027595Y0113313D01*
X0027429Y0113272D01*
X0027265Y0113227D01*
X0027102Y0113178D01*
X0026940Y0113125D01*
X0026779Y0113068D01*
X0026620Y0113007D01*
X0026462Y0112942D01*
X0026306Y0112874D01*
X0026152Y0112801D01*
X0025999Y0112725D01*
X0025849Y0112646D01*
X0025700Y0112562D01*
X0025553Y0112475D01*
X0025409Y0112385D01*
X0025267Y0112291D01*
X0025127Y0112193D01*
X0024990Y0112092D01*
X0024855Y0111988D01*
X0024722Y0111881D01*
X0024593Y0111770D01*
X0024466Y0111656D01*
X0024341Y0111539D01*
X0024220Y0111420D01*
X0024102Y0111297D01*
X0023987Y0111171D01*
X0023874Y0111043D01*
X0023765Y0110912D01*
X0023660Y0110778D01*
X0023557Y0110642D01*
X0023458Y0110503D01*
X0023362Y0110362D01*
X0023270Y0110219D01*
X0023181Y0110074D01*
X0023096Y0109926D01*
X0023014Y0109776D01*
X0022936Y0109625D01*
X0022862Y0109471D01*
X0022791Y0109316D01*
X0022725Y0109159D01*
X0022662Y0109001D01*
X0022603Y0108841D01*
X0022548Y0108679D01*
X0022497Y0108517D01*
X0022450Y0108353D01*
X0022407Y0108188D01*
X0022367Y0108022D01*
X0022332Y0107855D01*
X0022301Y0107688D01*
X0022275Y0107519D01*
X0022252Y0107350D01*
X0022233Y0107181D01*
X0022219Y0107011D01*
X0022208Y0106841D01*
X0022202Y0106670D01*
X0022200Y0106500D01*
X0133200Y0066000D02*
X0133200Y0065000D01*
X0143200Y0065000D01*
X0143200Y0066000D01*
X0142700Y0043000D02*
X0133200Y0043000D01*
X0133200Y0042000D01*
X0142700Y0042000D02*
X0142700Y0043000D01*
D20*
X0038200Y0215850D03*
D21*
X0107535Y0127963D02*
X0107535Y0125407D01*
X0107535Y0126685D02*
X0102935Y0126685D01*
X0103958Y0125407D01*
X0102935Y0123630D02*
X0107535Y0122607D01*
X0104469Y0121585D01*
X0107535Y0120563D01*
X0102935Y0119541D01*
X0104852Y0115996D02*
X0104818Y0115942D01*
X0104781Y0115891D01*
X0104741Y0115842D01*
X0104698Y0115795D01*
X0104652Y0115752D01*
X0104604Y0115711D01*
X0104553Y0115673D01*
X0104500Y0115638D01*
X0104445Y0115606D01*
X0104388Y0115578D01*
X0104330Y0115554D01*
X0104270Y0115533D01*
X0104209Y0115516D01*
X0104147Y0115502D01*
X0104084Y0115493D01*
X0104021Y0115487D01*
X0103958Y0115485D01*
X0103896Y0115487D01*
X0103835Y0115492D01*
X0103774Y0115502D01*
X0103713Y0115515D01*
X0103654Y0115531D01*
X0103596Y0115551D01*
X0103539Y0115575D01*
X0103483Y0115602D01*
X0103429Y0115632D01*
X0103377Y0115666D01*
X0103328Y0115702D01*
X0103280Y0115742D01*
X0103235Y0115784D01*
X0103193Y0115829D01*
X0103153Y0115877D01*
X0103117Y0115926D01*
X0103083Y0115978D01*
X0103053Y0116032D01*
X0103026Y0116088D01*
X0103002Y0116145D01*
X0102982Y0116203D01*
X0102966Y0116262D01*
X0102953Y0116323D01*
X0102943Y0116384D01*
X0102938Y0116445D01*
X0102936Y0116507D01*
X0102935Y0116507D02*
X0102937Y0116589D01*
X0102942Y0116671D01*
X0102951Y0116753D01*
X0102963Y0116834D01*
X0102979Y0116915D01*
X0102998Y0116995D01*
X0103021Y0117074D01*
X0103047Y0117152D01*
X0103076Y0117229D01*
X0103109Y0117304D01*
X0103145Y0117378D01*
X0103183Y0117451D01*
X0103225Y0117522D01*
X0103270Y0117590D01*
X0103318Y0117657D01*
X0106896Y0115358D02*
X0106959Y0115422D01*
X0107018Y0115490D01*
X0107075Y0115559D01*
X0107129Y0115631D01*
X0107180Y0115705D01*
X0107228Y0115781D01*
X0107272Y0115858D01*
X0107313Y0115938D01*
X0107351Y0116019D01*
X0107386Y0116102D01*
X0107417Y0116186D01*
X0107444Y0116272D01*
X0107468Y0116358D01*
X0107489Y0116446D01*
X0107505Y0116534D01*
X0107518Y0116623D01*
X0107528Y0116712D01*
X0107533Y0116801D01*
X0107535Y0116891D01*
X0107533Y0116953D01*
X0107528Y0117014D01*
X0107518Y0117075D01*
X0107505Y0117136D01*
X0107489Y0117195D01*
X0107469Y0117253D01*
X0107445Y0117310D01*
X0107418Y0117366D01*
X0107388Y0117420D01*
X0107354Y0117472D01*
X0107318Y0117521D01*
X0107278Y0117569D01*
X0107236Y0117614D01*
X0107191Y0117656D01*
X0107143Y0117696D01*
X0107094Y0117732D01*
X0107042Y0117766D01*
X0106988Y0117796D01*
X0106932Y0117823D01*
X0106875Y0117847D01*
X0106817Y0117867D01*
X0106758Y0117883D01*
X0106697Y0117896D01*
X0106636Y0117906D01*
X0106575Y0117911D01*
X0106513Y0117913D01*
X0105619Y0117402D02*
X0104852Y0115996D01*
X0105619Y0117402D02*
X0105653Y0117456D01*
X0105690Y0117507D01*
X0105730Y0117556D01*
X0105773Y0117603D01*
X0105819Y0117646D01*
X0105867Y0117687D01*
X0105918Y0117725D01*
X0105971Y0117760D01*
X0106026Y0117792D01*
X0106083Y0117820D01*
X0106141Y0117844D01*
X0106201Y0117865D01*
X0106262Y0117882D01*
X0106324Y0117896D01*
X0106387Y0117905D01*
X0106450Y0117911D01*
X0106513Y0117913D01*
X0156479Y0219989D02*
X0161079Y0223056D01*
X0161079Y0224744D02*
X0161079Y0227300D01*
X0161079Y0226022D02*
X0156479Y0226022D01*
X0157501Y0224744D01*
X0156479Y0223056D02*
X0161079Y0219989D01*
X0142500Y0240371D02*
X0139000Y0240371D01*
X0139000Y0241344D01*
X0139002Y0241405D01*
X0139008Y0241466D01*
X0139017Y0241526D01*
X0139031Y0241586D01*
X0139048Y0241644D01*
X0139068Y0241702D01*
X0139093Y0241758D01*
X0139120Y0241812D01*
X0139151Y0241865D01*
X0139186Y0241915D01*
X0139223Y0241964D01*
X0139263Y0242009D01*
X0139307Y0242053D01*
X0139352Y0242093D01*
X0139401Y0242130D01*
X0139451Y0242165D01*
X0139504Y0242196D01*
X0139558Y0242223D01*
X0139614Y0242248D01*
X0139672Y0242268D01*
X0139730Y0242285D01*
X0139790Y0242299D01*
X0139850Y0242308D01*
X0139911Y0242314D01*
X0139972Y0242316D01*
X0140033Y0242314D01*
X0140094Y0242308D01*
X0140154Y0242299D01*
X0140214Y0242285D01*
X0140272Y0242268D01*
X0140330Y0242248D01*
X0140386Y0242223D01*
X0140440Y0242196D01*
X0140493Y0242165D01*
X0140543Y0242130D01*
X0140592Y0242093D01*
X0140637Y0242053D01*
X0140681Y0242009D01*
X0140721Y0241964D01*
X0140758Y0241915D01*
X0140793Y0241865D01*
X0140824Y0241812D01*
X0140851Y0241758D01*
X0140876Y0241702D01*
X0140896Y0241644D01*
X0140913Y0241586D01*
X0140927Y0241526D01*
X0140936Y0241466D01*
X0140942Y0241405D01*
X0140944Y0241344D01*
X0140944Y0240371D01*
X0140944Y0241538D02*
X0142500Y0242316D01*
X0142500Y0243856D02*
X0142500Y0245800D01*
X0142500Y0243856D02*
X0140556Y0245508D01*
X0139000Y0244925D02*
X0139002Y0244861D01*
X0139007Y0244797D01*
X0139016Y0244733D01*
X0139029Y0244670D01*
X0139046Y0244608D01*
X0139065Y0244547D01*
X0139089Y0244487D01*
X0139115Y0244429D01*
X0139145Y0244372D01*
X0139179Y0244317D01*
X0139215Y0244264D01*
X0139254Y0244213D01*
X0139296Y0244165D01*
X0139341Y0244118D01*
X0139388Y0244075D01*
X0139438Y0244034D01*
X0139490Y0243997D01*
X0139544Y0243962D01*
X0139600Y0243930D01*
X0139658Y0243902D01*
X0139717Y0243877D01*
X0139778Y0243856D01*
X0140556Y0245508D02*
X0140514Y0245549D01*
X0140470Y0245588D01*
X0140423Y0245623D01*
X0140375Y0245656D01*
X0140324Y0245686D01*
X0140272Y0245712D01*
X0140218Y0245735D01*
X0140163Y0245755D01*
X0140107Y0245771D01*
X0140050Y0245784D01*
X0139992Y0245793D01*
X0139934Y0245798D01*
X0139875Y0245800D01*
X0139818Y0245798D01*
X0139761Y0245793D01*
X0139704Y0245783D01*
X0139649Y0245770D01*
X0139594Y0245754D01*
X0139540Y0245733D01*
X0139488Y0245710D01*
X0139438Y0245683D01*
X0139389Y0245653D01*
X0139342Y0245619D01*
X0139298Y0245583D01*
X0139256Y0245544D01*
X0139217Y0245502D01*
X0139181Y0245458D01*
X0139147Y0245411D01*
X0139117Y0245363D01*
X0139090Y0245312D01*
X0139067Y0245260D01*
X0139046Y0245206D01*
X0139030Y0245151D01*
X0139017Y0245096D01*
X0139007Y0245039D01*
X0139002Y0244982D01*
X0139000Y0244925D01*
X0137622Y0231629D02*
X0137622Y0229684D01*
X0134900Y0230462D01*
X0136844Y0231045D02*
X0138400Y0231045D01*
X0138400Y0228144D02*
X0136844Y0227367D01*
X0136844Y0227172D02*
X0136844Y0226200D01*
X0136844Y0227172D02*
X0136842Y0227233D01*
X0136836Y0227294D01*
X0136827Y0227354D01*
X0136813Y0227414D01*
X0136796Y0227472D01*
X0136776Y0227530D01*
X0136751Y0227586D01*
X0136724Y0227640D01*
X0136693Y0227693D01*
X0136658Y0227743D01*
X0136621Y0227792D01*
X0136581Y0227837D01*
X0136537Y0227881D01*
X0136492Y0227921D01*
X0136443Y0227958D01*
X0136393Y0227993D01*
X0136340Y0228024D01*
X0136286Y0228051D01*
X0136230Y0228076D01*
X0136172Y0228096D01*
X0136114Y0228113D01*
X0136054Y0228127D01*
X0135994Y0228136D01*
X0135933Y0228142D01*
X0135872Y0228144D01*
X0135811Y0228142D01*
X0135750Y0228136D01*
X0135690Y0228127D01*
X0135630Y0228113D01*
X0135572Y0228096D01*
X0135514Y0228076D01*
X0135458Y0228051D01*
X0135404Y0228024D01*
X0135351Y0227993D01*
X0135301Y0227958D01*
X0135252Y0227921D01*
X0135207Y0227881D01*
X0135163Y0227837D01*
X0135123Y0227792D01*
X0135086Y0227743D01*
X0135051Y0227693D01*
X0135020Y0227640D01*
X0134993Y0227586D01*
X0134968Y0227530D01*
X0134948Y0227472D01*
X0134931Y0227414D01*
X0134917Y0227354D01*
X0134908Y0227294D01*
X0134902Y0227233D01*
X0134900Y0227172D01*
X0134900Y0226200D01*
X0138400Y0226200D01*
X0118400Y0226200D02*
X0114900Y0226200D01*
X0114900Y0227172D01*
X0114902Y0227233D01*
X0114908Y0227294D01*
X0114917Y0227354D01*
X0114931Y0227414D01*
X0114948Y0227472D01*
X0114968Y0227530D01*
X0114993Y0227586D01*
X0115020Y0227640D01*
X0115051Y0227693D01*
X0115086Y0227743D01*
X0115123Y0227792D01*
X0115163Y0227837D01*
X0115207Y0227881D01*
X0115252Y0227921D01*
X0115301Y0227958D01*
X0115351Y0227993D01*
X0115404Y0228024D01*
X0115458Y0228051D01*
X0115514Y0228076D01*
X0115572Y0228096D01*
X0115630Y0228113D01*
X0115690Y0228127D01*
X0115750Y0228136D01*
X0115811Y0228142D01*
X0115872Y0228144D01*
X0115933Y0228142D01*
X0115994Y0228136D01*
X0116054Y0228127D01*
X0116114Y0228113D01*
X0116172Y0228096D01*
X0116230Y0228076D01*
X0116286Y0228051D01*
X0116340Y0228024D01*
X0116393Y0227993D01*
X0116443Y0227958D01*
X0116492Y0227921D01*
X0116537Y0227881D01*
X0116581Y0227837D01*
X0116621Y0227792D01*
X0116658Y0227743D01*
X0116693Y0227693D01*
X0116724Y0227640D01*
X0116751Y0227586D01*
X0116776Y0227530D01*
X0116796Y0227472D01*
X0116813Y0227414D01*
X0116827Y0227354D01*
X0116836Y0227294D01*
X0116842Y0227233D01*
X0116844Y0227172D01*
X0116844Y0226200D01*
X0116844Y0227367D02*
X0118400Y0228144D01*
X0118400Y0229684D02*
X0118400Y0230656D01*
X0118398Y0230717D01*
X0118392Y0230778D01*
X0118383Y0230838D01*
X0118369Y0230898D01*
X0118352Y0230956D01*
X0118332Y0231014D01*
X0118307Y0231070D01*
X0118280Y0231124D01*
X0118249Y0231177D01*
X0118214Y0231227D01*
X0118177Y0231276D01*
X0118137Y0231321D01*
X0118093Y0231365D01*
X0118048Y0231405D01*
X0117999Y0231442D01*
X0117949Y0231477D01*
X0117896Y0231508D01*
X0117842Y0231535D01*
X0117786Y0231560D01*
X0117728Y0231580D01*
X0117670Y0231597D01*
X0117610Y0231611D01*
X0117550Y0231620D01*
X0117489Y0231626D01*
X0117428Y0231628D01*
X0117367Y0231626D01*
X0117306Y0231620D01*
X0117246Y0231611D01*
X0117186Y0231597D01*
X0117128Y0231580D01*
X0117070Y0231560D01*
X0117014Y0231535D01*
X0116960Y0231508D01*
X0116907Y0231477D01*
X0116857Y0231442D01*
X0116808Y0231405D01*
X0116763Y0231365D01*
X0116719Y0231321D01*
X0116679Y0231276D01*
X0116642Y0231227D01*
X0116607Y0231177D01*
X0116576Y0231124D01*
X0116549Y0231070D01*
X0116524Y0231014D01*
X0116504Y0230956D01*
X0116487Y0230898D01*
X0116473Y0230838D01*
X0116464Y0230778D01*
X0116458Y0230717D01*
X0116456Y0230656D01*
X0116456Y0230851D02*
X0116456Y0230073D01*
X0116456Y0230851D02*
X0116454Y0230907D01*
X0116448Y0230962D01*
X0116438Y0231016D01*
X0116424Y0231070D01*
X0116407Y0231123D01*
X0116386Y0231174D01*
X0116361Y0231224D01*
X0116332Y0231272D01*
X0116301Y0231317D01*
X0116266Y0231360D01*
X0116228Y0231401D01*
X0116187Y0231439D01*
X0116144Y0231474D01*
X0116099Y0231505D01*
X0116051Y0231534D01*
X0116001Y0231559D01*
X0115950Y0231580D01*
X0115897Y0231597D01*
X0115843Y0231611D01*
X0115789Y0231621D01*
X0115734Y0231627D01*
X0115678Y0231629D01*
X0115622Y0231627D01*
X0115567Y0231621D01*
X0115513Y0231611D01*
X0115459Y0231597D01*
X0115406Y0231580D01*
X0115355Y0231559D01*
X0115305Y0231534D01*
X0115257Y0231505D01*
X0115212Y0231474D01*
X0115169Y0231439D01*
X0115128Y0231401D01*
X0115090Y0231360D01*
X0115055Y0231317D01*
X0115024Y0231272D01*
X0114995Y0231224D01*
X0114970Y0231174D01*
X0114949Y0231123D01*
X0114932Y0231070D01*
X0114918Y0231016D01*
X0114908Y0230962D01*
X0114902Y0230907D01*
X0114900Y0230851D01*
X0114900Y0229684D01*
X0114444Y0239371D02*
X0114444Y0240344D01*
X0114444Y0240538D02*
X0116000Y0241316D01*
X0116000Y0242856D02*
X0116000Y0244022D01*
X0115998Y0244078D01*
X0115992Y0244133D01*
X0115982Y0244187D01*
X0115968Y0244241D01*
X0115951Y0244294D01*
X0115930Y0244345D01*
X0115905Y0244395D01*
X0115877Y0244443D01*
X0115845Y0244488D01*
X0115810Y0244531D01*
X0115772Y0244572D01*
X0115731Y0244610D01*
X0115688Y0244645D01*
X0115643Y0244676D01*
X0115595Y0244705D01*
X0115545Y0244730D01*
X0115494Y0244751D01*
X0115441Y0244768D01*
X0115387Y0244782D01*
X0115333Y0244792D01*
X0115278Y0244798D01*
X0115222Y0244800D01*
X0114833Y0244800D01*
X0114777Y0244798D01*
X0114722Y0244792D01*
X0114668Y0244782D01*
X0114614Y0244768D01*
X0114561Y0244751D01*
X0114510Y0244730D01*
X0114460Y0244705D01*
X0114412Y0244676D01*
X0114367Y0244645D01*
X0114324Y0244610D01*
X0114283Y0244572D01*
X0114245Y0244531D01*
X0114210Y0244488D01*
X0114179Y0244443D01*
X0114150Y0244395D01*
X0114125Y0244345D01*
X0114104Y0244294D01*
X0114087Y0244241D01*
X0114073Y0244187D01*
X0114063Y0244133D01*
X0114057Y0244078D01*
X0114055Y0244022D01*
X0114056Y0244022D02*
X0114056Y0242856D01*
X0112500Y0242856D01*
X0112500Y0244800D01*
X0112500Y0240344D02*
X0112500Y0239371D01*
X0116000Y0239371D01*
X0114444Y0240344D02*
X0114442Y0240405D01*
X0114436Y0240466D01*
X0114427Y0240526D01*
X0114413Y0240586D01*
X0114396Y0240644D01*
X0114376Y0240702D01*
X0114351Y0240758D01*
X0114324Y0240812D01*
X0114293Y0240865D01*
X0114258Y0240915D01*
X0114221Y0240964D01*
X0114181Y0241009D01*
X0114137Y0241053D01*
X0114092Y0241093D01*
X0114043Y0241130D01*
X0113993Y0241165D01*
X0113940Y0241196D01*
X0113886Y0241223D01*
X0113830Y0241248D01*
X0113772Y0241268D01*
X0113714Y0241285D01*
X0113654Y0241299D01*
X0113594Y0241308D01*
X0113533Y0241314D01*
X0113472Y0241316D01*
X0113411Y0241314D01*
X0113350Y0241308D01*
X0113290Y0241299D01*
X0113230Y0241285D01*
X0113172Y0241268D01*
X0113114Y0241248D01*
X0113058Y0241223D01*
X0113004Y0241196D01*
X0112951Y0241165D01*
X0112901Y0241130D01*
X0112852Y0241093D01*
X0112807Y0241053D01*
X0112763Y0241009D01*
X0112723Y0240964D01*
X0112686Y0240915D01*
X0112651Y0240865D01*
X0112620Y0240812D01*
X0112593Y0240758D01*
X0112568Y0240702D01*
X0112548Y0240644D01*
X0112531Y0240586D01*
X0112517Y0240526D01*
X0112508Y0240466D01*
X0112502Y0240405D01*
X0112500Y0240344D01*
D22*
X0107200Y0245750D03*
X0123700Y0246750D03*
X0133700Y0246750D03*
X0143700Y0246750D03*
X0143700Y0225250D03*
X0133700Y0225250D03*
X0123700Y0225250D03*
X0107200Y0224250D03*
M02*
