%
M48
M72
T01C0.02400
T02C0.03200
T03C0.03600
T04C0.03937
T05C0.04000
T06C0.08661
T07C0.09000
T08C0.17323
%
T01
X29200Y83000
X29200Y103000
T02
X19200Y9000
X19200Y29000
X39200Y29000
X39200Y9000
X60200Y9000
X60200Y29000
X60200Y45000
X60200Y55000
X60200Y65000
X60200Y75000
X60200Y85000
X60200Y95000
X60200Y105000
X60200Y115000
X60200Y125000
X60200Y135000
X60200Y145000
X60200Y155000
X60200Y165000
X60200Y175000
X58200Y190000
X58200Y210000
X73200Y210000
X93200Y210000
X107200Y220000
X123700Y221000
X133700Y221000
X143700Y221000
X143700Y251000
X133700Y251000
X123700Y251000
X107200Y250000
X90200Y175000
X90200Y165000
X90200Y155000
X90200Y145000
X90200Y135000
X90200Y125000
X90200Y115000
X90200Y105000
X90200Y95000
X90200Y85000
X90200Y75000
X90200Y65000
X90200Y55000
X90200Y45000
X38200Y57000
X18200Y57000
X22200Y129000
X42200Y129000
X38200Y211000
X38200Y221000
T03
X168400Y235079
X176200Y235079
X176200Y244921
X168400Y244921
X186200Y201000
X186200Y191000
X186200Y181000
X186200Y171000
X186200Y161000
X186200Y151000
X196200Y151000
X196200Y161000
X196200Y171000
X196200Y181000
X196200Y191000
X196200Y201000
T04
X170728Y134843
X170728Y125000
X170728Y115157
X113641Y115157
X113641Y134843
T05
X110200Y85000
X110200Y75000
X110200Y65000
X110200Y55000
X125400Y62900
X125400Y45100
X151000Y45100
X151000Y62900
X44200Y155000
X44200Y165000
X33100Y167200
X34200Y155000
X15300Y167200
X15300Y192800
X33100Y192800
X26200Y238000
X58200Y240000
X68200Y240000
X78200Y240000
T06
X141200Y149016
X141200Y100984
T07
X186900Y216300
X186900Y263700
T08
X206200Y274000
X36200Y269000
X214200Y23000
M30
