G75*
%MOIN*%
%OFA0B0*%
%FSLAX25Y25*%
%IPPOS*%
%LPD*%
%AMOC8*
5,1,8,0,0,1.08239X$1,22.5*
%
%ADD10C,0.18123*%
%ADD11OC8,0.07100*%
%ADD12C,0.06000*%
%ADD13C,0.06800*%
%ADD14C,0.05200*%
%ADD15OC8,0.06000*%
%ADD16C,0.06400*%
%ADD17C,0.13800*%
%ADD18R,0.06737X0.06737*%
%ADD19R,0.13461X0.13461*%
%ADD20OC8,0.06400*%
%ADD21OC8,0.06800*%
D10*
X0214200Y0023000D03*
X0036200Y0269000D03*
X0206200Y0274000D03*
D11*
X0019200Y0009000D03*
X0019200Y0029000D03*
X0039200Y0029000D03*
X0039200Y0009000D03*
X0060200Y0009000D03*
X0060200Y0029000D03*
X0038200Y0057000D03*
X0018200Y0057000D03*
X0022200Y0129000D03*
X0042200Y0129000D03*
X0058200Y0190000D03*
X0058200Y0210000D03*
X0073200Y0210000D03*
X0093200Y0210000D03*
D12*
X0092800Y0175000D02*
X0087600Y0175000D01*
X0087600Y0165000D02*
X0092800Y0165000D01*
X0092800Y0155000D02*
X0087600Y0155000D01*
X0087600Y0145000D02*
X0092800Y0145000D01*
X0092800Y0135000D02*
X0087600Y0135000D01*
X0087600Y0125000D02*
X0092800Y0125000D01*
X0092800Y0115000D02*
X0087600Y0115000D01*
X0087600Y0105000D02*
X0092800Y0105000D01*
X0092800Y0095000D02*
X0087600Y0095000D01*
X0087600Y0085000D02*
X0092800Y0085000D01*
X0092800Y0075000D02*
X0087600Y0075000D01*
X0087600Y0065000D02*
X0092800Y0065000D01*
X0092800Y0055000D02*
X0087600Y0055000D01*
X0087600Y0045000D02*
X0092800Y0045000D01*
X0062800Y0045000D02*
X0057600Y0045000D01*
X0057600Y0055000D02*
X0062800Y0055000D01*
X0062800Y0065000D02*
X0057600Y0065000D01*
X0057600Y0075000D02*
X0062800Y0075000D01*
X0062800Y0085000D02*
X0057600Y0085000D01*
X0057600Y0095000D02*
X0062800Y0095000D01*
X0062800Y0105000D02*
X0057600Y0105000D01*
X0057600Y0115000D02*
X0062800Y0115000D01*
X0062800Y0125000D02*
X0057600Y0125000D01*
X0057600Y0135000D02*
X0062800Y0135000D01*
X0062800Y0145000D02*
X0057600Y0145000D01*
X0057600Y0155000D02*
X0062800Y0155000D01*
X0062800Y0165000D02*
X0057600Y0165000D01*
X0057600Y0175000D02*
X0062800Y0175000D01*
D13*
X0033100Y0170200D02*
X0033100Y0164200D01*
X0015300Y0164200D02*
X0015300Y0170200D01*
X0015300Y0189800D02*
X0015300Y0195800D01*
X0033100Y0195800D02*
X0033100Y0189800D01*
X0058200Y0237000D02*
X0058200Y0243000D01*
X0068200Y0243000D02*
X0068200Y0237000D01*
X0078200Y0237000D02*
X0078200Y0243000D01*
X0122400Y0062900D02*
X0128400Y0062900D01*
X0128400Y0045100D02*
X0122400Y0045100D01*
X0148000Y0045100D02*
X0154000Y0045100D01*
X0154000Y0062900D02*
X0148000Y0062900D01*
D14*
X0031400Y0083000D02*
X0027000Y0083000D01*
X0027000Y0103000D02*
X0031400Y0103000D01*
D15*
X0038200Y0211000D03*
X0038200Y0221000D03*
X0107200Y0220000D03*
X0123700Y0221000D03*
X0133700Y0221000D03*
X0143700Y0221000D03*
X0143700Y0251000D03*
X0133700Y0251000D03*
X0123700Y0251000D03*
X0107200Y0250000D03*
D16*
X0168400Y0244921D03*
X0176200Y0244921D03*
X0176200Y0235079D03*
X0168400Y0235079D03*
D17*
X0186900Y0216300D03*
X0186900Y0263700D03*
D18*
X0170728Y0134843D03*
X0170728Y0125000D03*
X0170728Y0115157D03*
X0113641Y0115157D03*
X0113641Y0134843D03*
D19*
X0141200Y0149016D03*
X0141200Y0100984D03*
D20*
X0186200Y0151000D03*
X0186200Y0161000D03*
X0186200Y0171000D03*
X0186200Y0181000D03*
X0186200Y0191000D03*
X0186200Y0201000D03*
X0196200Y0201000D03*
X0196200Y0191000D03*
X0196200Y0181000D03*
X0196200Y0171000D03*
X0196200Y0161000D03*
X0196200Y0151000D03*
D21*
X0110200Y0085000D03*
X0110200Y0075000D03*
X0110200Y0065000D03*
X0110200Y0055000D03*
X0044200Y0155000D03*
X0044200Y0165000D03*
X0034200Y0155000D03*
X0026200Y0238000D03*
M02*
